<?xml version="1.0" encoding="utf-8"?>
<!-- Generator: Adobe Illustrator 24.0.2, SVG Export Plug-In . SVG Version: 6.00 Build 0)  -->
<svg version="1.1" id="Capa_1" xmlns="http://www.w3.org/2000/svg" xmlns:xlink="http://www.w3.org/1999/xlink" x="0px" y="0px"
	 viewBox="0 0 64 64" style="enable-background:new 0 0 64 64;" xml:space="preserve">
<style type="text/css">
	.st0{fill:#010202;}
</style>
<path class="st0" d="M32,0.5C14.63,0.5,0.5,14.63,0.5,32c0,17.37,14.13,31.5,31.5,31.5S63.5,49.37,63.5,32
	C63.5,14.63,49.37,0.5,32,0.5z M60.5,32c0,4.76-1.18,9.26-3.26,13.21L33.5,31.5l23.33-13.47C59.16,22.16,60.5,26.93,60.5,32z
	 M55.78,16.32L32.5,29.77V3.51C42.22,3.68,50.77,8.74,55.78,16.32z M30.5,3.54v26.23L7.94,16.75C12.75,9.19,21.02,4.03,30.5,3.54z
	 M6.92,18.47L29.5,31.5L6.53,44.76C4.6,40.92,3.5,36.59,3.5,32C3.5,27.11,4.74,22.49,6.92,18.47z M7.49,46.52L30.5,33.23v27.23
	C20.71,59.95,12.22,54.48,7.49,46.52z M32.5,60.49V33.23l23.75,13.71C51.31,54.94,42.53,60.31,32.5,60.49z"/>
</svg>
