<?xml version="1.0" encoding="utf-8"?>
<!-- Generator: Adobe Illustrator 24.0.2, SVG Export Plug-In . SVG Version: 6.00 Build 0)  -->
<svg version="1.1" id="Capa_1" xmlns="http://www.w3.org/2000/svg" xmlns:xlink="http://www.w3.org/1999/xlink" x="0px" y="0px"
	 viewBox="0 0 64 64" style="enable-background:new 0 0 64 64;" xml:space="preserve">
<style type="text/css">
	.st0{fill:#010202;}
</style>
<path class="st0" d="M32,0.5C14.63,0.5,0.5,14.63,0.5,32S14.63,63.5,32,63.5c17.37,0,31.5-14.13,31.5-31.5S49.37,0.5,32,0.5z
	 M3.53,33h56.95c-0.16,4.71-1.47,9.13-3.66,13H7.19C5,42.13,3.69,37.71,3.53,33z M3.53,31C3.69,26.29,5,21.87,7.19,18h49.62
	c2.19,3.87,3.5,8.29,3.66,13H3.53z M32,3.5c9.79,0,18.44,4.96,23.57,12.5H8.43C13.56,8.46,22.21,3.5,32,3.5z M32,60.5
	c-9.79,0-18.44-4.96-23.57-12.5h47.14C50.44,55.54,41.79,60.5,32,60.5z"/>
</svg>
