<?xml version="1.0" encoding="utf-8"?>
<!-- Generator: Adobe Illustrator 24.0.2, SVG Export Plug-In . SVG Version: 6.00 Build 0)  -->
<svg version="1.1" id="Capa_1" xmlns="http://www.w3.org/2000/svg" xmlns:xlink="http://www.w3.org/1999/xlink" x="0px" y="0px"
	 viewBox="0 0 64 64" style="enable-background:new 0 0 64 64;" xml:space="preserve">
<style type="text/css">
	.st0{fill:#010202;}
</style>
<path class="st0" d="M32,0.5C14.63,0.5,0.5,14.63,0.5,32S14.63,63.5,32,63.5c17.37,0,31.5-14.13,31.5-31.5S49.37,0.5,32,0.5z
	 M32,60.5C16.28,60.5,3.5,47.71,3.5,32S16.28,3.5,32,3.5c15.71,0,28.5,12.79,28.5,28.5S47.72,60.5,32,60.5z M38,16.5
	c0,3.31-2.69,6-6,6s-6-2.69-6-6s2.69-6,6-6S38,13.19,38,16.5z M38,47.5c0,3.31-2.69,6-6,6s-6-2.69-6-6s2.69-6,6-6S38,44.19,38,47.5z
	 M22.5,32c0,3.31-2.69,6-6,6s-6-2.69-6-6s2.69-6,6-6S22.5,28.69,22.5,32z M53.5,32c0,3.31-2.69,6-6,6s-6-2.69-6-6s2.69-6,6-6
	S53.5,28.69,53.5,32z"/>
</svg>
