<?xml version="1.0" encoding="utf-8"?>
<!-- Generator: Adobe Illustrator 24.0.2, SVG Export Plug-In . SVG Version: 6.00 Build 0)  -->
<svg version="1.1" id="Capa_1" xmlns="http://www.w3.org/2000/svg" xmlns:xlink="http://www.w3.org/1999/xlink" x="0px" y="0px"
	 viewBox="0 0 64 64" style="enable-background:new 0 0 64 64;" xml:space="preserve">
<style type="text/css">
	.st0{fill:#010202;}
</style>
<path class="st0" d="M32,0.5C14.63,0.5,0.5,14.63,0.5,32S14.63,63.5,32,63.5c17.37,0,31.5-14.13,31.5-31.5S49.37,0.5,32,0.5z
	 M32.5,60.49V31.5h-2v28.96C15.48,59.68,3.5,47.21,3.5,32C3.5,16.29,16.28,3.5,32,3.5c15.71,0,28.5,12.79,28.5,28.5
	C60.5,47.55,47.98,60.22,32.5,60.49z M45.08,19.42c7.21,7.21,7.21,18.95,0,26.16l-1.41-1.41c6.43-6.43,6.43-16.9,0-23.33
	C40.55,17.72,36.41,16,32,16c-4.41,0-8.55,1.72-11.67,4.83c-3.12,3.12-4.83,7.26-4.83,11.67c0,4.41,1.72,8.55,4.83,11.67l-1.41,1.41
	c-3.49-3.49-5.42-8.14-5.42-13.08c0-4.94,1.92-9.59,5.42-13.08C22.41,15.92,27.06,14,32,14C36.94,14,41.59,15.92,45.08,19.42z"/>
</svg>
