<?xml version="1.0" encoding="utf-8"?>
<!-- Generator: Adobe Illustrator 24.0.2, SVG Export Plug-In . SVG Version: 6.00 Build 0)  -->
<svg version="1.1" id="Capa_1" xmlns="http://www.w3.org/2000/svg" xmlns:xlink="http://www.w3.org/1999/xlink" x="0px" y="0px"
	 viewBox="0 0 64 64" style="enable-background:new 0 0 64 64;" xml:space="preserve">
<style type="text/css">
	.st0{fill:#010202;}
</style>
<path class="st0" d="M32,0.5C14.63,0.5,0.5,14.63,0.5,32S14.63,63.5,32,63.5S63.5,49.37,63.5,32S49.37,0.5,32,0.5z M32,60.5
	C16.29,60.5,3.5,47.71,3.5,32S16.29,3.5,32,3.5S60.5,16.29,60.5,32S47.71,60.5,32,60.5z M32,14c-10.2,0-18.5,8.3-18.5,18.5
	S21.8,51,32,51s18.5-8.3,18.5-18.5S42.2,14,32,14z M32,49c-9.1,0-16.5-7.4-16.5-16.5C15.5,23.4,22.9,16,32,16
	c9.1,0,16.5,7.4,16.5,16.5C48.5,41.6,41.1,49,32,49z"/>
</svg>
