<?xml version="1.0" encoding="utf-8"?>
<!-- Generator: Adobe Illustrator 24.0.2, SVG Export Plug-In . SVG Version: 6.00 Build 0)  -->
<svg version="1.1" id="Capa_1" xmlns="http://www.w3.org/2000/svg" xmlns:xlink="http://www.w3.org/1999/xlink" x="0px" y="0px"
	 viewBox="0 0 64 64" style="enable-background:new 0 0 64 64;" xml:space="preserve">
<style type="text/css">
	.st0{fill:#4E4E4E;}
</style>
<g>
	<path class="st0" d="M1.88,13.73c0.84,0,1.53-0.68,1.53-1.53c0-0.84-0.68-1.53-1.53-1.53c-0.84,0-1.53,0.68-1.53,1.53
		C0.36,13.04,1.04,13.73,1.88,13.73z"/>
	<path class="st0" d="M58.12,46.4c0,0.84,0.68,1.53,1.53,1.53c0.84,0,1.53-0.68,1.53-1.53c0-0.84-0.68-1.53-1.53-1.53
		C58.81,44.87,58.12,45.55,58.12,46.4z"/>
	<path class="st0" d="M50.54,13.73c0.84,0,1.53-0.68,1.53-1.53c0-0.84-0.68-1.53-1.53-1.53c-0.84,0-1.53,0.68-1.53,1.53
		C49.01,13.04,49.69,13.73,50.54,13.73z"/>
	<path class="st0" d="M4.93,45.64c0.85,0,1.53-0.68,1.53-1.53c0-0.84-0.68-1.53-1.53-1.53c-0.84,0-1.53,0.68-1.53,1.53
		C3.4,44.96,4.09,45.64,4.93,45.64z"/>
	<path class="st0" d="M63.79,58.17c-0.39-0.62-1.21-0.81-1.83-0.42c-0.39,0.24-9.65,5.8-25.25-2c-16.94-8.47-35.32-0.16-36.09,0.2
		c-0.67,0.31-0.96,1.1-0.65,1.76c0.31,0.67,1.1,0.96,1.76,0.65c0.18-0.08,18.02-8.12,33.79-0.23c6.77,3.38,12.48,4.42,16.95,4.42
		c6.77,0,10.66-2.38,10.92-2.55C64,59.61,64.19,58.79,63.79,58.17z"/>
	<path class="st0" d="M9.24,36.11c0.14,0.04,0.27,0.05,0.41,0.05c0.01,0,0.03,0.01,0.05,0.01h4.43v13.57c0,0.38,0.16,0.75,0.45,1
		c0.29,0.25,0.67,0.37,1.05,0.32c1.85-0.24,3.72-0.36,5.57-0.36c6.4,0,12.29,1.41,17.03,4.09c0.67,0.38,1.36,0.82,2.17,1.37
		c0.13,0.09,0.28,0.16,0.44,0.2c2.81,0.69,5.94,1.09,9.31,1.2c0.01,0,0.03,0,0.04,0c0.34,0,0.68-0.13,0.93-0.37
		c0.26-0.25,0.41-0.6,0.41-0.96V36.16h4.43c0.01,0,0.01,0,0.01,0c0.08,0,0.16-0.01,0.23-0.02c0.05,0.01,0.1,0.02,0.15,0.02
		c0.12,0,0.25-0.02,0.37-0.05c0.97-0.28,2.76-1.26,3.27-3.13c0.52-1.89-0.38-4.09-2.67-6.51c-4.72-5.02-21.2-19.12-21.89-19.7
		l-1.53-1.35c-0.5-0.44-1.24-0.45-1.74-0.02l-1.6,1.36c-0.43,0.37-6.83,5.84-12.79,11.17v-2.4c0-0.73-0.6-1.33-1.33-1.33H11.1
		c-0.73,0-1.33,0.6-1.33,1.33v9.8c-0.42,0.42-0.81,0.81-1.13,1.15c-2.29,2.42-3.18,4.62-2.67,6.51C6.48,34.85,8.27,35.83,9.24,36.11
		z M50.18,33.5c-0.73,0-1.33,0.6-1.33,1.33v20.01c-2.57-0.15-4.97-0.49-7.16-1.01c-0.79-0.53-1.48-0.97-2.16-1.35
		c-5.14-2.9-11.48-4.44-18.34-4.44c-1.46,0-2.93,0.07-4.4,0.21V34.83c0-0.73-0.6-1.33-1.33-1.33h-2.27l19.63-17.48L52.44,33.5H50.18
		z M12.43,16.85h2.66v3.33c0,0.04,0.01,0.09,0.01,0.13c-0.94,0.85-1.84,1.68-2.67,2.46V16.85z M10.58,28.29
		C15.2,23.38,32.1,8.92,32.27,8.77l0.72-0.61l0.68,0.6c0.17,0.15,17.07,14.61,21.69,19.51c2.1,2.23,2.18,3.45,2.04,3.98
		c-0.15,0.57-0.7,0.94-1.08,1.13L33.77,13.31c-0.24-0.22-0.56-0.34-0.88-0.34h-0.14c-0.33,0-0.64,0.12-0.88,0.34L9.42,33.29
		c-0.35-0.21-0.76-0.54-0.89-1.02C8.4,31.74,8.48,30.52,10.58,28.29z"/>
	<path class="st0" d="M24.63,35.24v7.11c0,2.27,1.84,4.11,4.11,4.11h7.11c2.27,0,4.11-1.84,4.11-4.11v-7.11
		c0-2.27-1.84-4.11-4.11-4.11h-7.11C26.47,31.13,24.63,32.97,24.63,35.24z M30.81,43.8h-2.07c-0.8,0-1.45-0.65-1.45-1.45v-2.27h3.52
		V43.8z M33.47,33.79h2.38c0.8,0,1.45,0.65,1.45,1.45v2.17h-3.83V33.79z M33.47,40.07h3.83v2.27c0,0.8-0.65,1.45-1.45,1.45h-2.38
		V40.07z M30.81,37.41h-3.52v-2.17c0-0.8,0.65-1.45,1.45-1.45h2.07V37.41z"/>
	<path class="st0" d="M14.52,12.38c1.02,0,1.99-0.36,2.75-1.01c0.5,0.16,1.01,0.25,1.52,0.25c2.78,0,5.04-2.26,5.04-5.04
		c0-2.78-2.26-5.04-5.04-5.04c-1.71,0-3.28,0.88-4.2,2.28c-2.37-0.03-4.35,1.89-4.35,4.28C10.25,10.46,12.16,12.38,14.52,12.38z
		 M14.52,6.49c0.12,0,0.27,0.02,0.45,0.08c0.67,0.19,1.37-0.16,1.62-0.81c0.35-0.94,1.22-1.55,2.22-1.55c1.31,0,2.38,1.07,2.38,2.38
		c0,1.31-1.07,2.38-2.38,2.38c-0.41,0-0.8-0.11-1.18-0.33c-0.6-0.35-1.37-0.18-1.76,0.39c-0.3,0.44-0.8,0.7-1.33,0.7
		c-0.89,0-1.62-0.72-1.62-1.62C12.91,7.22,13.63,6.49,14.52,6.49z"/>
</g>
</svg>
