<?xml version="1.0" encoding="utf-8"?>
<!-- Generator: Adobe Illustrator 24.0.2, SVG Export Plug-In . SVG Version: 6.00 Build 0)  -->
<svg version="1.1" id="Capa_1" xmlns="http://www.w3.org/2000/svg" xmlns:xlink="http://www.w3.org/1999/xlink" x="0px" y="0px"
	 viewBox="0 0 64 64" style="enable-background:new 0 0 64 64;" xml:space="preserve">
<style type="text/css">
	.st0{fill:#4E4E4E;}
</style>
<g>
	<path class="st0" d="M20.36,13.15c0.18,0.1,0.37,0.14,0.57,0.14c0.29,0,0.57-0.1,0.8-0.31c5.1-4.64,5.36-7.84,4.69-9.71
		c-0.67-1.87-2.55-3.09-4.91-3.2c-2.4-0.12-4.51,1.01-5.38,2.85c-0.84,1.8-0.91,4.96,3.55,9.86C19.87,12.98,20.11,13.1,20.36,13.15z
		 M18.3,3.93c0.52-1.1,1.84-1.49,2.9-1.49c0.07,0,0.14,0,0.2,0c1.02,0.05,2.37,0.5,2.77,1.63c0.27,0.74,0.43,2.78-3.3,6.44
		C18.55,7.77,17.61,5.4,18.3,3.93z"/>
	<path class="st0" d="M53.22,8.78c-0.84-1.87-2.54-3.13-4.78-3.53c-4.09-0.74-6.74,2.99-7.87,4.58c-1.46,2.05-2.9,4.15-4.3,6.19
		c-0.7,1.02-1.4,2.04-2.1,3.05c-0.04,0.05-0.07,0.11-0.09,0.17c-0.39-0.14-0.79-0.28-1.2-0.42l3.4-4.89
		c1.05-1.51,0.85-3.51-0.36-4.8c0.16-0.01,0.32-0.04,0.47-0.12l3.62-1.8c0.38-0.19,0.63-0.56,0.66-0.98
		c0.03-0.42-0.16-0.83-0.51-1.07l-3.27-2.28c-0.35-0.24-0.79-0.28-1.18-0.11c-0.38,0.17-0.65,0.54-0.69,0.96l-0.43,4.02
		c-0.02,0.17,0.01,0.33,0.06,0.49c-0.47-0.2-0.97-0.32-1.5-0.32c-1.25,0-2.42,0.61-3.14,1.64l-4.95,7.11
		c-1.28-0.25-2.58-0.46-3.88-0.58c-0.55-0.05-1.07,0.29-1.24,0.81c-0.25,0.76-0.46,1.52-0.66,2.27c-0.14,0.53-0.29,1.05-0.44,1.55
		l-5.21,16.9c-1.29,4.18,1.09,9.47,4.04,11.97c0.02,0.02,0.05,0.04,0.08,0.06l14.52,10.36l0.62,0.53c0.46,0.4,0.93,0.8,1.38,1.17
		c1.54,1.31,3.52,2.03,5.58,2.03l0,0c1.65,0,3.25-0.46,4.62-1.34c1.81-1.16,3.84-3.49,4.83-5.54c1.67-3.46,0.76-7.79-2.18-10.28
		L34.86,36.16c0,0,0-0.01,0-0.01l4.13-13.4c0.03-0.1,0.06-0.21,0.08-0.31l0.03-0.11c0.15-0.58-0.15-1.18-0.7-1.41
		c-0.65-0.27-1.34-0.54-2.04-0.81c0.63-0.91,1.25-1.82,1.88-2.73c1.39-2.03,2.83-4.12,4.28-6.15c1.44-2.02,3.22-4.02,5.5-3.61
		c1.46,0.26,2.51,1.01,3.02,2.16c0.58,1.29,0.42,2.95-0.43,4.34c-0.34,0.56-0.16,1.3,0.4,1.64c0.56,0.34,1.3,0.16,1.64-0.4
		C53.92,13.26,54.14,10.8,53.22,8.78z M31.98,10.93c0.43-0.62,1.36-0.79,1.99-0.36c0.65,0.45,0.81,1.34,0.36,1.99l-3.48,5
		c-1-0.25-2-0.48-3-0.69L31.98,10.93z M15.92,38.32L18,31.56c2.12,1.6,7.51,6.42,5.58,13.13c-0.01,0.03-0.01,0.06-0.02,0.09
		c-0.47,2.28-1.65,4.28-1.66,4.3c-0.09,0.15-0.14,0.32-0.16,0.49l-2.56-1.82C16.87,45.75,14.97,41.41,15.92,38.32z M47.16,55.82
		c-0.79,1.64-2.54,3.65-3.97,4.57c-0.98,0.63-2.14,0.96-3.33,0.96l0,0c-1.16,0-2.28-0.32-3.25-0.91c0-0.02,0.01-0.04,0.01-0.06
		c0.06-3.59,1.08-6.33,3.04-8.14c2.64-2.44,6.26-2.53,7.08-2.52C47.89,51.51,48.11,53.85,47.16,55.82z M44.53,47.5
		c-1.84,0.28-4.37,1.03-6.48,2.97c-2.13,1.96-3.38,4.7-3.72,8.15l-0.54-0.46c-0.03-0.02-0.05-0.04-0.08-0.06l-10.29-7.33
		c0.21-0.1,0.4-0.25,0.53-0.46c0.06-0.09,1.38-2.33,1.94-4.99c2.52-8.89-5.51-15-7.15-16.14l1.37-4.44c1.72,0.17,9.4,1.06,14.5,4.15
		l-2.02,6.57c-0.03,0.09-0.06,0.17-0.08,0.23c-0.23,0.64-0.32,1.33,0.57,2.09L44.53,47.5z M35.33,26.53
		c-5.14-2.91-12.05-3.87-14.51-4.13l0.3-0.97c0.16-0.52,0.31-1.06,0.46-1.62c0.11-0.4,0.22-0.81,0.34-1.22
		c5.23,0.64,10.41,2.46,14.58,4.13L35.33,26.53z"/>
</g>
</svg>
