<?xml version="1.0" encoding="utf-8"?>
<!-- Generator: Adobe Illustrator 24.0.2, SVG Export Plug-In . SVG Version: 6.00 Build 0)  -->
<svg version="1.1" id="Capa_1" xmlns="http://www.w3.org/2000/svg" xmlns:xlink="http://www.w3.org/1999/xlink" x="0px" y="0px"
	 viewBox="0 0 64 64" style="enable-background:new 0 0 64 64;" xml:space="preserve">
<style type="text/css">
	.st0{fill:#4E4E4E;}
</style>
<g>
	<path class="st0" d="M42.54,39.35c-1.03-1.29-2.63-3.88-2.77-7.59c-0.18-4.84-3.9-6.57-7.32-6.57c-0.31,0-1.11,0-1.41,0
		c-3.32,0-6.94,1.73-7.12,6.57c-0.14,3.71-1.74,6.3-2.77,7.59c-2.32,1.66-3.69,4.32-3.69,7.18c0,1.2,0.24,2.36,0.71,3.46
		c0.23,0.54,0.76,0.89,1.35,0.89h24.68c0.59,0,1.12-0.35,1.35-0.89c0.47-1.1,0.71-2.26,0.71-3.46
		C46.23,43.67,44.86,41.01,42.54,39.35z M43.13,47.95H20.54c-0.11-0.46-0.17-0.94-0.17-1.42c0-1.96,0.97-3.78,2.59-4.88
		c0.12-0.08,0.22-0.17,0.31-0.28c1.25-1.52,3.38-4.78,3.56-9.49c0.09-2.49,1.51-3.75,4.2-3.75c0.29,0,1.1,0,1.41,0
		c2.82,0,4.3,1.26,4.39,3.75c0.18,4.72,2.31,7.98,3.56,9.5c0.09,0.11,0.19,0.2,0.31,0.28c1.62,1.1,2.59,2.92,2.59,4.88
		C43.3,47.01,43.24,47.49,43.13,47.95z"/>
	<path class="st0" d="M31.84,52.14c-3.09,0-5.61,2.52-5.61,5.61s2.52,5.61,5.61,5.61c3.09,0,5.61-2.52,5.61-5.61
		S34.93,52.14,31.84,52.14z M31.84,60.43c-1.48,0-2.68-1.2-2.68-2.68c0-1.48,1.2-2.68,2.68-2.68c1.48,0,2.68,1.2,2.68,2.68
		C34.52,59.23,33.32,60.43,31.84,60.43z"/>
	<path class="st0" d="M60.6,11.67c-2.4-0.11-4.13-0.81-5.17-2.09c-1.16-1.44-1.2-3.32-1.15-4.16c0.02-0.26,0.04-0.43,0.04-0.44
		c0.14-0.79-0.4-1.55-1.19-1.69c-0.2-0.03-0.39-0.03-0.57,0.01c-0.36,0.11-0.67,0.36-0.86,0.72c0,0.01-0.09,0.16-0.25,0.4
		c-0.48,0.7-1.64,2.13-3.4,2.56C48,7,47.95,7,47.89,7.01V4.3c0-3.93-2.77-4.23-3.62-4.23c-3.05,0-7.33,3.14-8.48,4.03
		c-0.4-0.18-0.83-0.3-1.3-0.3h-4.23c-0.42,0-0.82,0.08-1.18,0.23c-1.26-0.97-5.42-3.96-8.4-3.96c-0.85,0-3.62,0.31-3.62,4.23v2.98
		c-0.48,0.04-0.94,0.01-1.39-0.09c-1.78-0.4-2.96-1.82-3.46-2.52c-0.17-0.24-0.26-0.4-0.26-0.4c-0.19-0.35-0.5-0.59-0.85-0.7
		c-0.18-0.04-0.38-0.04-0.57-0.01c-0.79,0.15-1.32,0.91-1.17,1.7c0,0.01,0.03,0.17,0.05,0.44c0.06,0.84,0.05,2.72-1.09,4.17
		c-1.01,1.29-2.74,2.01-5.14,2.16c-0.27,0.02-0.51,0.11-0.72,0.24c-0.44,0.23-0.76,0.69-0.79,1.22c-0.04,0.81,0.59,1.49,1.39,1.53
		c2.4,0.11,4.13,0.81,5.17,2.09c1.16,1.44,1.2,3.32,1.15,4.16c-0.02,0.27-0.04,0.43-0.04,0.44c-0.14,0.79,0.4,1.55,1.19,1.69
		c0.09,0.02,0.17,0.02,0.26,0.02c0.12,0,0.24-0.03,0.35-0.06c0.34-0.12,0.64-0.35,0.82-0.69c0-0.01,0.09-0.16,0.25-0.39
		c0.48-0.7,1.65-2.15,3.44-2.58c1.59-0.38,3.4,0.12,5.37,1.49c0.66,0.46,1.58,0.3,2.04-0.36c0.26-0.37,0.9-3.84,2.42-4.93
		c1.17-0.84,2.74-1.11,4.69-0.81c0.16,1.61-0.12,2.94-0.83,3.96c-1.38,1.99-4.05,2.34-4.1,2.35c-0.8,0.09-1.38,0.81-1.29,1.61
		c0.08,0.75,0.72,1.3,1.45,1.3c0.05,0,0.11,0,0.16-0.01c0.16-0.02,3.99-0.47,6.16-3.56c0.04-0.05,0.07-0.11,0.1-0.16
		c0.06,0.1,0.12,0.2,0.18,0.29c2.21,3.06,6.05,3.46,6.21,3.48c0.05,0,0.1,0.01,0.14,0.01c0.75,0,1.38-0.57,1.46-1.32
		c0.08-0.81-0.51-1.52-1.32-1.6c-0.03,0-2.69-0.31-4.12-2.28c-0.75-1.04-1.04-2.41-0.88-4.08c1.91-0.31,3.47-0.07,4.63,0.74
		c1.54,1.07,2.24,4.54,2.5,4.91c0.47,0.66,1.39,0.81,2.04,0.34c1.95-1.4,3.75-1.92,5.35-1.56c1.79,0.4,2.98,1.83,3.47,2.53
		c0.16,0.22,0.24,0.37,0.25,0.39c0.18,0.33,0.47,0.55,0.8,0.67c0.12,0.03,0.23,0.06,0.36,0.06c0.09,0,0.18-0.01,0.27-0.03
		c0.79-0.15,1.32-0.92,1.17-1.71c0-0.01-0.03-0.17-0.05-0.43c-0.06-0.83-0.05-2.7,1.08-4.16c1.01-1.3,2.75-2.03,5.15-2.18
		c0.27-0.02,0.52-0.11,0.73-0.26c0.44-0.24,0.74-0.68,0.77-1.21C62.04,12.39,61.41,11.71,60.6,11.67z M19.4,17.11
		c-1.54-0.51-3.04-0.59-4.48-0.24c-1.16,0.28-2.13,0.82-2.92,1.42c-0.26-0.98-0.7-2.02-1.47-2.98c-0.57-0.71-1.25-1.29-2.04-1.77
		c0.84-0.5,1.56-1.13,2.15-1.88c0.75-0.96,1.18-2.01,1.43-3c0.8,0.59,1.78,1.11,2.93,1.38c0.56,0.13,1.13,0.19,1.7,0.19
		c0.12,0,0.24-0.01,0.37-0.02v2.84c0,2.65,1.26,3.65,2.34,4.02L19.4,17.11z M27.04,11.2c-0.1,0.08-0.22,0.16-0.33,0.24
		c-0.84,0.61-1.85,1.26-2.85,1.8c-1.19,0.64-2.36,1.12-3.17,1.12c-0.34,0-0.69,0-0.69-1.3V9.54V6.28V6.22V4.3
		c0-1.3,0.35-1.3,0.69-1.3c1.59,0,4.52,1.79,6.36,3.16V11.2z M34.49,10.63h-4.23c-0.05,0-0.08-0.02-0.09,0l-0.01-3.87
		c0.01-0.01,0.04-0.03,0.1-0.03h4.23c0.05,0,0.08,0.01,0.09,0.01l0.01,3.86C34.59,10.59,34.56,10.63,34.49,10.63z M44.96,6.73v3.06
		v3.27c0,1.3-0.35,1.3-0.69,1.3c-0.98,0-2.48-0.69-3.91-1.53c-0.88-0.52-1.74-1.11-2.45-1.63v-0.22V6.15
		c1.83-1.37,4.76-3.16,6.36-3.16c0.34,0,0.69,0,0.69,1.3V6.73z M53.04,15.04c-0.75,0.96-1.18,2.01-1.43,3
		c-0.8-0.59-1.78-1.11-2.93-1.38c-0.69-0.16-1.38-0.21-2.09-0.17c0.72-0.6,1.31-1.63,1.31-3.44V9.99c0.29-0.04,0.58-0.09,0.87-0.16
		c1.15-0.28,2.12-0.82,2.92-1.42c0.26,0.98,0.7,2.02,1.47,2.98c0.57,0.71,1.25,1.3,2.04,1.77C54.34,13.66,53.62,14.29,53.04,15.04z"
		/>
</g>
</svg>
