<?xml version="1.0" encoding="utf-8"?>
<!-- Generator: Adobe Illustrator 24.0.2, SVG Export Plug-In . SVG Version: 6.00 Build 0)  -->
<svg version="1.1" id="Capa_1" xmlns="http://www.w3.org/2000/svg" xmlns:xlink="http://www.w3.org/1999/xlink" x="0px" y="0px"
	 viewBox="0 0 64 64" style="enable-background:new 0 0 64 64;" xml:space="preserve">
<style type="text/css">
	.st0{fill:#4E4E4E;}
</style>
<g>
	<path class="st0" d="M57.68,25.73c0-14.3-11.63-25.93-25.93-25.93c-14.3,0-25.94,11.63-25.94,25.93c0,14.3,11.63,25.94,25.94,25.94
		C46.04,51.66,57.68,40.03,57.68,25.73z M8.84,25.73c0-12.63,10.27-22.9,22.9-22.9c12.63,0,22.9,10.27,22.9,22.9
		c0,5.35-1.85,10.27-4.93,14.17c-2.08-0.58-4.04-1.48-6.11-2.43c-1.5-0.69-3.03-1.39-4.63-1.97c0,0,0-0.01,0-0.01v-6.56
		c0-0.84-0.68-1.52-1.52-1.52c-0.84,0-1.52,0.68-1.52,1.52v5.05h-9.23v-5.05c0-0.84-0.68-1.52-1.52-1.52
		c-0.84,0-1.52,0.68-1.52,1.52v6.56c0,0.01,0,0.02,0,0.03c-1.19,0.49-2.31,1.1-3.35,1.84c-1.84-1.7-3.2-3.65-4.04-5.83
		c-2.54-6.59,0.4-13.25,0.45-13.35c0.35-0.76,0.02-1.66-0.75-2.01c-0.76-0.35-1.66-0.02-2.01,0.75c-0.15,0.32-3.53,7.85-0.53,15.67
		c1.96,5.12,6.17,9.11,12.5,11.85c0.2,0.08,0.4,0.12,0.6,0.12c0.59,0,1.15-0.34,1.39-0.92c0.33-0.77-0.02-1.66-0.79-1.99
		c-1.59-0.69-3.01-1.47-4.28-2.32c3.35-2.03,7.62-2.72,11.95-1.87c2.59,0.51,4.98,1.61,7.51,2.77c1.65,0.76,3.34,1.53,5.12,2.14
		c-4.1,3.88-9.63,6.27-15.71,6.27C19.12,48.63,8.84,38.36,8.84,25.73z"/>
	<path class="st0" d="M19.04,13.74c0.32,0,0.64-0.1,0.91-0.3l2.73-2.05c0.67-0.5,0.81-1.45,0.3-2.12c-0.5-0.67-1.45-0.8-2.12-0.3
		l-2.73,2.05c-0.67,0.5-0.8,1.45-0.3,2.12C18.13,13.53,18.58,13.74,19.04,13.74z"/>
	<path class="st0" d="M16.83,54.92c-0.84,0-1.52,0.68-1.52,1.52c0,0.84,0.68,1.52,1.52,1.52h30.72c0.84,0,1.52-0.68,1.52-1.52
		c0-0.84-0.68-1.52-1.52-1.52H16.83z"/>
	<path class="st0" d="M49.25,60.97H15.14c-0.84,0-1.52,0.68-1.52,1.52c0,0.84,0.68,1.52,1.52,1.52h34.11c0.84,0,1.52-0.68,1.52-1.52
		C50.77,61.65,50.09,60.97,49.25,60.97z"/>
	<path class="st0" d="M20.16,26.25c0.48,0.69,1.43,0.85,2.11,0.37l9.1-6.39l9.1,6.39c0.27,0.19,0.57,0.28,0.87,0.28
		c0.48,0,0.95-0.23,1.24-0.65c0.48-0.69,0.32-1.63-0.37-2.11l-9.85-6.91c-0.26-0.18-0.56-0.28-0.87-0.28h-0.25
		c-0.31,0-0.62,0.1-0.87,0.28l-9.85,6.91C19.85,24.62,19.68,25.57,20.16,26.25z"/>
	<path class="st0" d="M20.05,17.45c0,1.15,0.93,2.07,2.07,2.07c1.15,0,2.07-0.93,2.07-2.07c0-1.15-0.93-2.07-2.07-2.07
		C20.98,15.37,20.05,16.3,20.05,17.45z"/>
	<path class="st0" d="M36.84,11.88c1.15,0,2.07-0.93,2.07-2.07c0-1.14-0.93-2.07-2.07-2.07c-1.14,0-2.07,0.93-2.07,2.07
		C34.76,10.95,35.7,11.88,36.84,11.88z"/>
	<path class="st0" d="M46.7,22.7c1.15,0,2.07-0.93,2.07-2.07c0-1.15-0.93-2.07-2.07-2.07c-1.14,0-2.07,0.93-2.07,2.07
		C44.63,21.77,45.56,22.7,46.7,22.7z"/>
	<path class="st0" d="M45.33,32.41c0,1.14,0.93,2.07,2.07,2.07c1.15,0,2.07-0.93,2.07-2.07c0-1.15-0.93-2.07-2.07-2.07
		C46.26,30.34,45.33,31.27,45.33,32.41z"/>
</g>
</svg>
