<?xml version="1.0" encoding="utf-8"?>
<!-- Generator: Adobe Illustrator 24.0.2, SVG Export Plug-In . SVG Version: 6.00 Build 0)  -->
<svg version="1.1" id="Capa_1" xmlns="http://www.w3.org/2000/svg" xmlns:xlink="http://www.w3.org/1999/xlink" x="0px" y="0px"
	 viewBox="0 0 64 64" style="enable-background:new 0 0 64 64;" xml:space="preserve">
<style type="text/css">
	.st0{fill:#4E4E4E;}
</style>
<g>
	<path class="st0" d="M16.69,41.36c-2.36,0-4.29,1.92-4.29,4.29c0,2.37,1.92,4.29,4.29,4.29c2.37,0,4.29-1.92,4.29-4.29
		C20.98,43.28,19.05,41.36,16.69,41.36z M16.69,47.59c-1.07,0-1.94-0.87-1.94-1.94c0-1.07,0.87-1.94,1.94-1.94
		c1.07,0,1.94,0.87,1.94,1.94C18.63,46.72,17.76,47.59,16.69,47.59z"/>
	<path class="st0" d="M48.5,41.79c-2.36,0-4.29,1.92-4.29,4.29c0,2.37,1.92,4.29,4.29,4.29c2.37,0,4.29-1.92,4.29-4.29
		C52.79,43.71,50.87,41.79,48.5,41.79z M48.5,48.02c-1.07,0-1.94-0.87-1.94-1.94c0-1.07,0.87-1.94,1.94-1.94
		c1.07,0,1.94,0.87,1.94,1.94C50.45,47.15,49.57,48.02,48.5,48.02z"/>
	<path class="st0" d="M32.6,47.7c-3.37,0-6.12,2.74-6.12,6.12c0,3.37,2.74,6.12,6.12,6.12c3.37,0,6.12-2.74,6.12-6.12
		C38.71,50.44,35.97,47.7,32.6,47.7z M32.6,57.59c-2.08,0-3.77-1.69-3.77-3.77c0-2.08,1.69-3.77,3.77-3.77s3.77,1.69,3.77,3.77
		C36.37,55.89,34.68,57.59,32.6,57.59z"/>
	<path class="st0" d="M51.48,12.19v2.8c0,0.12-0.01,0.24-0.01,0.36c2.52,2.49,4.55,5.47,5.94,8.78L43.6,30.52
		c-1.63-4.51-5.94-7.75-11-7.75c-5.12,0-9.47,3.31-11.06,7.89L7.73,24.27c1.39-3.37,3.44-6.4,5.99-8.92c0-0.12-0.01-0.23-0.01-0.36
		v-2.8C7.39,17.56,3.37,25.55,3.37,34.47c0,16.11,13.11,29.22,29.22,29.22c16.11,0,29.22-13.11,29.22-29.22
		C61.82,25.55,57.8,17.56,51.48,12.19z M32.6,25.11c5.16,0,9.36,4.2,9.36,9.36s-4.2,9.36-9.36,9.36c-5.16,0-9.36-4.2-9.36-9.36
		S27.43,25.11,32.6,25.11z M32.6,61.35c-14.82,0-26.88-12.06-26.88-26.88c0-2.78,0.42-5.46,1.21-7.99l13.99,6.47
		c0.02,0.01,0.05,0.02,0.07,0.02c-0.06,0.49-0.11,0.98-0.11,1.49c0,6.45,5.25,11.7,11.71,11.7c6.45,0,11.7-5.25,11.7-11.7
		c0-0.56-0.05-1.1-0.13-1.63l14.04-6.49c0.82,2.57,1.26,5.29,1.26,8.13C59.47,49.29,47.42,61.35,32.6,61.35z"/>
	<path class="st0" d="M18.78,19.6c3.53,0,8.6-3.77,9.81-4.71c0.43,0.21,0.91,0.34,1.42,0.34h4.95c0.57,0,1.1-0.16,1.56-0.41
		c0.99,0.78,6.26,4.78,9.9,4.78c1.17,0,3.89-0.45,3.89-4.61V4.73c0-4.16-2.72-4.61-3.89-4.61c-3.64,0-8.91,4-9.9,4.78
		c-0.46-0.25-0.99-0.41-1.56-0.41H30c-0.51,0-0.99,0.13-1.42,0.34c-1.21-0.94-6.27-4.71-9.81-4.71c-1.17,0-3.89,0.45-3.89,4.61
		v10.26C14.88,19.15,17.6,19.6,18.78,19.6z M38.62,6.73c2.18-1.64,5.81-3.88,7.8-3.88c0.49,0,1.16,0,1.16,1.87v10.26
		c0,1.87-0.67,1.87-1.16,1.87c-1.98,0-5.62-2.23-7.8-3.88V6.73z M29.55,7.55c0-0.15,0.18-0.33,0.45-0.33h4.95
		c0.27,0,0.45,0.17,0.45,0.33v4.61c0,0.15-0.19,0.33-0.45,0.33H30c-0.27,0-0.45-0.17-0.45-0.33V7.55z M17.62,6.99V4.73
		c0-1.87,0.67-1.87,1.16-1.87c1.98,0,5.62,2.23,7.8,3.88v6.26c-2.18,1.64-5.81,3.88-7.8,3.88c-0.49,0-1.16,0-1.16-1.87V6.99z"/>
</g>
</svg>
