<?xml version="1.0" encoding="utf-8"?>
<!-- Generator: Adobe Illustrator 24.0.2, SVG Export Plug-In . SVG Version: 6.00 Build 0)  -->
<svg version="1.1" id="Capa_1" xmlns="http://www.w3.org/2000/svg" xmlns:xlink="http://www.w3.org/1999/xlink" x="0px" y="0px"
	 viewBox="0 0 64 64" style="enable-background:new 0 0 64 64;" xml:space="preserve">
<style type="text/css">
	.st0{fill:#4E4E4E;}
</style>
<g>
	<path class="st0" d="M43.74,18.94c0.03-1.93-0.15-7.59-3.16-10.8c-1.08-1.15-2.39-1.87-3.91-2.16c-0.09-1.36-0.45-3.01-1.56-4.19
		c-0.61-0.65-1.38-1.08-2.26-1.27c-0.17-0.07-0.36-0.1-0.56-0.1H31.8c-0.2,0-0.39,0.04-0.56,0.1c-0.88,0.18-1.65,0.61-2.26,1.27
		c-1.11,1.18-1.47,2.83-1.56,4.19c-1.52,0.28-2.83,1.01-3.91,2.16c-3.01,3.21-3.19,8.87-3.16,10.8c-1.53,0.64-2.61,2.16-2.61,3.92
		c0,2.1,1.53,3.83,3.52,4.18c-0.86,1.77-1.3,3.9-1.3,6.38l0,12.99c-0.01,0.17-0.12,4.12,2.79,7.12c0.82,0.85,1.8,1.52,2.91,2.03
		c-1.89,1.33-3.12,3.53-3.12,6.01v0.89c0,0.85,0.69,1.54,1.54,1.54H40c0.85,0,1.54-0.69,1.54-1.54v-0.89c0-2.48-1.24-4.68-3.12-6.01
		c1.11-0.51,2.09-1.18,2.91-2.03c2.91-2.99,2.8-6.95,2.79-7.06V33.42c0-2.48-0.44-4.61-1.3-6.38c2-0.35,3.52-2.08,3.52-4.18
		C46.35,21.1,45.27,19.58,43.74,18.94z M25.76,10.25c0.84-0.89,1.88-1.32,3.2-1.32c0.43,0,0.83-0.18,1.13-0.49
		c0.29-0.31,0.44-0.73,0.41-1.16c-0.1-1.48,0.19-2.81,0.73-3.39c0.15-0.16,0.37-0.34,0.81-0.38c0.44,0.05,0.66,0.23,0.81,0.38
		c0.54,0.58,0.83,1.91,0.73,3.39C33.56,7.71,33.71,8.13,34,8.44c0.29,0.31,0.7,0.49,1.13,0.49c1.32,0,2.37,0.43,3.2,1.32
		c2.03,2.15,2.37,6.55,2.34,8.63c-1.47,0.53-2.55,1.84-2.76,3.43c-1.62-0.7-3.21-0.92-4.31-0.97v-4.69c0-0.85-0.69-1.54-1.54-1.54
		c-0.85,0-1.54,0.69-1.54,1.54v4.69c-1.11,0.05-2.69,0.27-4.31,0.97c-0.21-1.59-1.29-2.9-2.76-3.43
		C23.39,16.79,23.74,12.4,25.76,10.25z M20.82,22.86c0-0.65,0.53-1.17,1.17-1.17c0.65,0,1.17,0.53,1.17,1.17
		c0,0.65-0.53,1.17-1.17,1.17C21.35,24.03,20.82,23.51,20.82,22.86z M32.04,52.73c-2.38,0-4.35-0.43-4.35-5.68
		c0-1.98,0.3-3.89,0.86-5.52c0.84-2.46,2.21-4.04,3.5-4.04c1.53,0,2.86,1.46,3.64,3.99c0.44,1.43,0.72,3.61,0.72,5.57
		C36.4,52.3,34.43,52.73,32.04,52.73z M25.68,60.92c0.31-2.05,2.09-3.63,4.23-3.63h4.27c2.14,0,3.92,1.58,4.23,3.63H25.68z
		 M39.1,51.41c-0.09,0.1-0.2,0.18-0.3,0.27c0.46-1.25,0.69-2.79,0.69-4.63c0-2.27-0.33-4.75-0.86-6.47c-1.2-3.92-3.6-6.17-6.58-6.17
		c-2.7,0-5.1,2.29-6.41,6.13c-0.67,1.95-1.03,4.21-1.03,6.52c0,1.84,0.23,3.38,0.69,4.63c-0.1-0.09-0.21-0.17-0.3-0.27
		c-1.99-2.03-1.94-4.85-1.94-4.93V33.42c0-3.21,0.85-5.61,2.52-7.11c1.6-1.45,3.67-1.81,4.94-1.89v3.2l-5.32,2.7
		c-0.04,0.02-0.07,0.04-0.1,0.06c-0.3,0.17-0.52,0.44-0.64,0.74l0,0c0,0,0,0,0,0c0,0.01-0.01,0.02-0.01,0.03c0,0,0,0,0,0
		c0,0,0,0,0,0v0c-0.11,0.28-0.13,0.6-0.06,0.91c0.1,0.42,0.37,0.77,0.73,0.98c0.2,0.11,0.42,0.18,0.66,0.2c0.03,0,0.07,0,0.1,0
		h12.37c0.03,0,0.07,0,0.1,0c0.24-0.02,0.47-0.09,0.66-0.2c0.36-0.21,0.63-0.55,0.73-0.98c0.07-0.31,0.05-0.62-0.06-0.91v0
		c0,0,0,0,0,0c0,0,0,0,0,0c0-0.01-0.01-0.02-0.01-0.03c0,0,0,0,0,0c0,0,0,0,0,0c-0.12-0.31-0.35-0.57-0.64-0.74
		c-0.03-0.02-0.07-0.04-0.1-0.06l-5.32-2.7v-3.2c1.26,0.08,3.32,0.44,4.92,1.87c1.68,1.51,2.54,3.91,2.54,7.13v13.1
		C41.04,46.55,41.09,49.38,39.1,51.41z M42.1,24.03c-0.65,0-1.17-0.52-1.17-1.17c0-0.65,0.52-1.17,1.17-1.17s1.17,0.53,1.17,1.17
		C43.27,23.51,42.74,24.03,42.1,24.03z"/>
	<path class="st0" d="M48.27,36.16c0.3,0,0.6-0.09,0.87-0.27l8.37-5.72c0.7-0.48,0.88-1.44,0.4-2.14c-0.48-0.7-1.44-0.88-2.14-0.4
		l-8.37,5.72c-0.7,0.48-0.88,1.44-0.4,2.14C47.3,35.93,47.78,36.16,48.27,36.16z"/>
	<path class="st0" d="M57.51,53.66l-8.37-5.72c-0.7-0.48-1.66-0.3-2.14,0.4c-0.48,0.7-0.3,1.66,0.4,2.14l8.37,5.72
		c0.27,0.18,0.57,0.27,0.87,0.27c0.49,0,0.97-0.23,1.27-0.67C58.39,55.1,58.21,54.14,57.51,53.66z"/>
	<path class="st0" d="M58.94,40.37h-7.5c-0.85,0-1.54,0.69-1.54,1.54c0,0.85,0.69,1.54,1.54,1.54h7.5c0.85,0,1.54-0.69,1.54-1.54
		C60.48,41.06,59.79,40.37,58.94,40.37z"/>
	<path class="st0" d="M16.6,33.35l-8.37-5.72c-0.7-0.48-1.66-0.3-2.14,0.4c-0.48,0.7-0.3,1.66,0.4,2.14l8.37,5.72
		c0.27,0.18,0.57,0.27,0.87,0.27c0.49,0,0.98-0.23,1.27-0.67C17.48,34.79,17.3,33.83,16.6,33.35z"/>
	<path class="st0" d="M14.86,47.93l-8.37,5.72c-0.7,0.48-0.88,1.44-0.4,2.14c0.3,0.44,0.78,0.67,1.27,0.67c0.3,0,0.6-0.09,0.87-0.27
		l8.37-5.72c0.7-0.48,0.88-1.44,0.4-2.14C16.52,47.63,15.56,47.45,14.86,47.93z"/>
	<path class="st0" d="M14.1,41.91c0-0.85-0.69-1.54-1.54-1.54h-7.5c-0.85,0-1.54,0.69-1.54,1.54c0,0.85,0.69,1.54,1.54,1.54h7.5
		C13.41,43.45,14.1,42.76,14.1,41.91z"/>
</g>
</svg>
