<?xml version="1.0" encoding="utf-8"?>
<!-- Generator: Adobe Illustrator 24.0.2, SVG Export Plug-In . SVG Version: 6.00 Build 0)  -->
<svg version="1.1" id="Capa_1" xmlns="http://www.w3.org/2000/svg" xmlns:xlink="http://www.w3.org/1999/xlink" x="0px" y="0px"
	 viewBox="0 0 64 64" style="enable-background:new 0 0 64 64;" xml:space="preserve">
<style type="text/css">
	.st0{fill:#4E4E4E;}
</style>
<g>
	<path class="st0" d="M46.12,33.28c-1.37-1.7-3.53-5.16-3.72-10.13c-0.19-5.1-3.6-8.15-9.11-8.15c-0.42,0-0.74,0.02-0.93,0.04
		c-0.19-0.02-0.5-0.04-0.9-0.04c-2,0-8.57,0.59-8.85,8.15c-0.19,4.97-2.35,8.43-3.72,10.13c-2.93,2.08-4.67,5.43-4.67,9.03
		c0,1.5,0.3,2.96,0.88,4.33c0.24,0.55,0.78,0.91,1.39,0.91h32.04c0.6,0,1.15-0.36,1.38-0.91c0.59-1.38,0.89-2.84,0.89-4.33
		C50.8,38.71,49.05,35.35,46.12,33.28z M47.47,44.54H17.54c-0.21-0.72-0.32-1.47-0.32-2.24c0-2.67,1.32-5.16,3.54-6.66
		c0.12-0.08,0.23-0.18,0.32-0.29c1.6-1.93,4.31-6.08,4.53-12.09c0.16-4.34,3.27-5.25,5.84-5.25c0.41,0,0.68,0.03,0.71,0.03
		c0.12,0.02,0.25,0.02,0.37,0c0.04,0,0.32-0.03,0.75-0.03c2.69,0,5.94,0.91,6.1,5.25c0.23,6.01,2.94,10.16,4.54,12.09
		c0.09,0.11,0.2,0.21,0.32,0.29c2.22,1.5,3.54,3.99,3.54,6.66C47.78,43.07,47.68,43.82,47.47,44.54z"/>
	<path class="st0" d="M32.5,49.99c-3.8,0-6.89,3.09-6.89,6.88c0,3.8,3.09,6.89,6.89,6.89c3.8,0,6.89-3.09,6.89-6.89
		C39.39,53.08,36.3,49.99,32.5,49.99z M32.5,60.75c-2.14,0-3.87-1.74-3.87-3.87c0-2.14,1.74-3.87,3.87-3.87
		c2.14,0,3.87,1.74,3.87,3.87C36.38,59.01,34.64,60.75,32.5,60.75z"/>
	<path class="st0" d="M17.03,14.9c0.01,0,0.01,0,0.02,0c6.68-0.08,11.72-3.23,11.72-7.33c0-4.09-5.04-7.24-11.72-7.33
		c-0.39,0-0.79,0.15-1.08,0.43c-0.29,0.28-0.45,0.67-0.45,1.07v11.64c0,0.4,0.16,0.79,0.45,1.07C16.26,14.74,16.64,14.9,17.03,14.9z
		 M18.54,3.34c4.32,0.44,7.22,2.44,7.22,4.23c0,1.79-2.9,3.79-7.22,4.23V3.34z"/>
	<path class="st0" d="M47.96,14.9c0.01,0,0.01,0,0.02,0c0.39,0,0.78-0.16,1.06-0.43c0.29-0.28,0.45-0.67,0.45-1.07V1.75
		c0-0.4-0.16-0.79-0.45-1.07c-0.29-0.28-0.67-0.43-1.08-0.43c-6.68,0.08-11.72,3.23-11.72,7.33C36.24,11.66,41.28,14.81,47.96,14.9z
		 M46.47,3.34v8.46c-4.32-0.44-7.22-2.44-7.22-4.23C39.25,5.78,42.15,3.78,46.47,3.34z"/>
	<path class="st0" d="M31.91,10.09h1.19c1.01,0,1.83-0.82,1.83-1.83V6.87c0-1.01-0.82-1.83-1.83-1.83h-1.19
		c-1.01,0-1.83,0.82-1.83,1.83v1.39C30.09,9.27,30.91,10.09,31.91,10.09z"/>
</g>
</svg>
