<?xml version="1.0" encoding="utf-8"?>
<!-- Generator: Adobe Illustrator 24.0.2, SVG Export Plug-In . SVG Version: 6.00 Build 0)  -->
<svg version="1.1" id="Capa_1" xmlns="http://www.w3.org/2000/svg" xmlns:xlink="http://www.w3.org/1999/xlink" x="0px" y="0px"
	 viewBox="0 0 64 64" style="enable-background:new 0 0 64 64;" xml:space="preserve">
<style type="text/css">
	.st0{fill:#4E4E4E;}
</style>
<g>
	<path class="st0" d="M63.74,38.86c-2-2.85-12.27-17.05-17.6-17.05c-4.1,0-6.19,4.96-7.14,8.4c-0.33-0.51-0.69-0.99-1.11-1.42
		c-1.37-1.39-3.08-2.09-5.08-2.09h-1.6c-2,0-3.71,0.7-5.08,2.09c-0.42,0.42-0.78,0.91-1.11,1.42c-0.96-3.44-3.05-8.4-7.14-8.4
		c-5.33,0-15.6,14.2-17.6,17.05c-0.23,0.33-0.31,0.74-0.22,1.14c0.2,0.87,1.04,2.52,2.91,3.16c1.86,0.64,4.15,0.18,6.92-1.41
		c1.05,1.96,2.5,2.46,3.55,2.53c0.09,0.01,0.18,0.01,0.27,0.01c3.03,0,6.47-3.29,8.89-6.14c-0.33,2.84-0.29,5.6-0.27,7.46
		c0,0.35,0.01,0.66,0.01,0.92c0,6.3-3.9,14.74-3.94,14.82c-0.21,0.44-0.17,0.95,0.09,1.36c0.26,0.41,0.71,0.66,1.2,0.66h24.67
		c0.49,0,0.94-0.25,1.2-0.66c0.26-0.41,0.29-0.92,0.09-1.36c-0.04-0.08-3.94-8.51-3.94-14.82c0-0.26,0-0.57,0.01-0.92
		c0.02-1.86,0.06-4.62-0.27-7.46c2.41,2.85,5.85,6.14,8.88,6.14c0.09,0,0.18,0,0.27-0.01c1.05-0.07,2.51-0.57,3.55-2.53
		c2.78,1.59,5.06,2.05,6.92,1.41c1.87-0.64,2.71-2.29,2.91-3.16C64.05,39.6,63.97,39.19,63.74,38.86z M13.62,41.44
		c-0.2-0.01-0.74-0.05-1.29-1.13c-0.02-0.04-0.04-0.08-0.07-0.12c0.53-0.38,1.07-0.8,1.64-1.25c0.61-0.49,0.71-1.39,0.21-2
		c-0.49-0.61-1.39-0.71-2-0.21c-5.12,4.13-7.44,4.01-8.2,3.76c-0.42-0.14-0.69-0.4-0.86-0.64c5.32-7.43,12.34-15.19,14.82-15.19
		c2.59,0,4.35,5.45,4.93,8.56C20.24,36.87,15.9,41.59,13.62,41.44z M42.19,60.52H21.82c1.23-3.05,3.34-8.99,3.34-14
		c0-0.27,0-0.59-0.01-0.96c-0.04-3.47-0.15-11.59,2.99-14.77c0.83-0.84,1.83-1.25,3.06-1.25h1.6c1.23,0,2.23,0.41,3.06,1.25
		c3.14,3.18,3.04,11.3,2.99,14.77c0,0.37-0.01,0.69-0.01,0.96C38.85,51.53,40.95,57.47,42.19,60.52z M60.13,40.47
		c-0.76,0.26-3.07,0.42-8.23-3.75c-0.61-0.49-1.5-0.4-2,0.21c-0.49,0.61-0.4,1.5,0.21,2c0.56,0.45,1.1,0.87,1.63,1.25
		c-0.02,0.04-0.05,0.08-0.07,0.12c-0.54,1.08-1.08,1.12-1.29,1.13c-2.3,0.15-6.62-4.57-9.18-8.22c0.57-3.11,2.34-8.56,4.93-8.56
		c2.47,0,9.5,7.76,14.82,15.19C60.79,40.07,60.53,40.33,60.13,40.47z"/>
	<path class="st0" d="M25.88,17.49c0,3.48,2.83,6.31,6.31,6.31c3.48,0,6.31-2.83,6.31-6.31s-2.83-6.31-6.31-6.31
		C28.71,11.17,25.88,14.01,25.88,17.49z M35.67,17.49c0,1.92-1.56,3.47-3.47,3.47c-1.92,0-3.47-1.56-3.47-3.47
		c0-1.92,1.56-3.47,3.47-3.47C34.11,14.01,35.67,15.57,35.67,17.49z"/>
	<path class="st0" d="M32.19,8.25c3.86,0,7.77-1.43,7.77-4.17c0-2.74-3.91-4.17-7.77-4.17s-7.77,1.43-7.77,4.17
		C24.43,6.82,28.33,8.25,32.19,8.25z M32.19,2.74c2.95,0,4.63,0.91,4.91,1.33c-0.28,0.42-1.96,1.33-4.91,1.33
		c-2.95,0-4.63-0.91-4.91-1.33C27.56,3.65,29.25,2.74,32.19,2.74z"/>
</g>
</svg>
