<?xml version="1.0" encoding="utf-8"?>
<!-- Generator: Adobe Illustrator 24.0.2, SVG Export Plug-In . SVG Version: 6.00 Build 0)  -->
<svg version="1.1" id="Capa_1" xmlns="http://www.w3.org/2000/svg" xmlns:xlink="http://www.w3.org/1999/xlink" x="0px" y="0px"
	 viewBox="0 0 64 64" style="enable-background:new 0 0 64 64;" xml:space="preserve">
<style type="text/css">
	.st0{fill:#4E4E4E;}
</style>
<g>
	<path class="st0" d="M58.23,53.23l1.5-1.5c0.52-0.51,0.52-1.35,0-1.87c-0.52-0.52-1.35-0.52-1.87,0l-1.5,1.5l-1.5-1.5
		c-0.52-0.52-1.35-0.52-1.87,0s-0.52,1.35,0,1.87l1.5,1.5l-1.5,1.5c-0.52,0.52-0.52,1.35,0,1.87c0.26,0.26,0.6,0.39,0.93,0.39
		s0.67-0.13,0.93-0.39l1.5-1.5l1.5,1.5c0.26,0.26,0.6,0.39,0.93,0.39c0.34,0,0.67-0.13,0.93-0.39c0.52-0.52,0.52-1.35,0-1.87
		L58.23,53.23z"/>
	<circle class="st0" cx="51.21" cy="53.23" r="1.52"/>
	<circle class="st0" cx="61.48" cy="53.23" r="1.52"/>
	<path class="st0" d="M56.36,56.87c-0.84,0-1.52,0.68-1.52,1.52c0,0.84,0.68,1.52,1.52,1.52c0.84,0,1.52-0.68,1.52-1.52
		C57.88,57.55,57.2,56.87,56.36,56.87z"/>
	<path class="st0" d="M56.36,46.56c-0.84,0-1.52,0.68-1.52,1.52c0,0.84,0.68,1.52,1.52,1.52c0.84,0,1.52-0.68,1.52-1.52
		C57.88,47.24,57.2,46.56,56.36,46.56z"/>
	<path class="st0" d="M7.03,9.83c0.24,0.19,0.53,0.29,0.82,0.29c0.39,0,0.77-0.17,1.04-0.5c0.45-0.57,0.36-1.4-0.21-1.85L7.78,7.06
		l0.71-0.89c0.45-0.57,0.36-1.4-0.21-1.86C7.7,3.86,6.87,3.95,6.42,4.53L5.71,5.42L4.82,4.71c-0.57-0.45-1.4-0.36-1.86,0.21
		c-0.45,0.57-0.36,1.4,0.21,1.86l0.89,0.71L3.36,8.38c-0.45,0.57-0.36,1.4,0.21,1.86c0.24,0.19,0.53,0.29,0.82,0.29
		c0.39,0,0.77-0.17,1.04-0.5l0.71-0.89L7.03,9.83z"/>
	<path class="st0" d="M8.2,56.64c-0.84,0-1.52,0.68-1.52,1.52s0.68,1.52,1.52,1.52c0.84,0,1.52-0.68,1.52-1.52S9.04,56.64,8.2,56.64
		z"/>
	<path class="st0" d="M60.25,8.37c0.84,0,1.52-0.68,1.52-1.52s-0.68-1.52-1.52-1.52c-0.84,0-1.52,0.68-1.52,1.52
		S59.42,8.37,60.25,8.37z"/>
	<path class="st0" d="M2.16,15.15c-0.84,0-1.52,0.68-1.52,1.52c0,0.84,0.68,1.52,1.52,1.52c0.84,0,1.52-0.68,1.52-1.52
		C3.68,15.82,3,15.15,2.16,15.15z"/>
	<path class="st0" d="M22.53,52.11c-0.84,0-1.52,0.68-1.52,1.52s0.68,1.52,1.52,1.52c0.84,0,1.52-0.68,1.52-1.52
		S23.37,52.11,22.53,52.11z"/>
	<path class="st0" d="M29.71,21.07c0.14,0.05,0.28,0.07,0.43,0.07c0.55,0,1.06-0.35,1.25-0.9l4.27-12.53l4.61,1.6
		c0.69,0.24,1.44-0.13,1.68-0.81l1.59-4.58c0.12-0.34,0.09-0.71-0.07-1.03c-0.16-0.32-0.45-0.56-0.8-0.66l-5.98-1.79
		c-0.68-0.21-1.4,0.17-1.63,0.84l-6.18,18.13C28.65,20.08,29.02,20.83,29.71,21.07z M37.15,3.32l3.44,1.03l-0.71,2.04L36.5,5.21
		L37.15,3.32z"/>
	<path class="st0" d="M32.54,45.16c0.63-0.32,1.27-0.64,1.94-0.98c0.29-0.15,0.58-0.3,0.88-0.45c0.11,0.59,0.22,1.26,0.33,1.92
		c0.17,1,0.34,2.03,0.51,2.81c0.13,0.62,0.68,1.04,1.29,1.04c0.09,0,0.18-0.01,0.28-0.03c0.71-0.15,1.17-0.85,1.01-1.57
		c-0.15-0.72-0.32-1.72-0.48-2.69c-0.16-0.96-0.32-1.94-0.49-2.71c3.61-1.77,8.22-3.84,15.09-6.25c0.31-0.11,0.64-0.21,0.96-0.31
		c2.28-0.7,5.72-1.75,5.45-7.04c-0.32-6.27-2.74-17.17-9.79-18.27c-0.14-0.02-0.29-0.02-0.43,0l-0.8,0.14
		c-3.89,0.68-7.57,1.32-10.95,1.08c-0.73-0.06-1.36,0.49-1.41,1.22c-0.05,0.73,0.49,1.36,1.22,1.41c3.7,0.27,7.54-0.4,11.59-1.11
		l0.57-0.1c4.85,0.99,7.06,9.92,7.36,15.76c0.17,3.23-1.33,3.69-3.59,4.38c-0.36,0.11-0.72,0.22-1.06,0.34
		c-9.33,3.27-14.55,5.92-18.75,8.06c-1.54,0.78-2.95,1.49-4.4,2.16c1.3-5.45,2.49-16.78-1.67-23.51c-1.94-3.14-4.77-4.91-8.42-5.29
		c2.73-0.65,5.71-0.63,8.64-0.6c0,0,0.01,0,0.01,0c0.72,0,1.31-0.58,1.32-1.31c0.01-0.73-0.58-1.33-1.31-1.33
		c-6.07-0.06-13.58-0.13-18.25,6.79c-0.05,0.06-0.1,0.11-0.15,0.18c-6.17,8.04-1.42,26.18-1.22,26.94c0.14,0.51,0.56,0.88,1.07,0.96
		c0.36,0.06,8.89,1.37,14.16,1.37c1.77,0,2.97-0.15,3.77-0.48c0.07-0.02,0.15-0.03,0.22-0.06c1.08-0.42,2.08-0.87,3.06-1.32
		l4.53,15.59c0.17,0.58,0.69,0.95,1.27,0.95c0.12,0,0.25-0.02,0.37-0.05c0.7-0.2,1.1-0.94,0.9-1.64L32.54,45.16z M10.19,44.34
		c-0.83-3.53-3.65-17.28,0.77-23.55c0.09-0.08,0.16-0.17,0.23-0.27c0.06-0.09,0.12-0.17,0.18-0.26c1.42-1.69,3.35-2.52,5.91-2.52
		c3.46,0,5.97,1.35,7.69,4.11c4.38,7.08,1.87,20.77,0.79,23.44c-0.26,0.08-0.97,0.24-2.69,0.24C18.96,45.55,12.51,44.67,10.19,44.34
		z"/>
	<path class="st0" d="M39.68,51.88c-0.15-0.71-0.85-1.17-1.57-1.01c-0.71,0.15-1.17,0.85-1.01,1.57l0.97,4.51
		c0.13,0.62,0.68,1.04,1.29,1.04c0.09,0,0.18-0.01,0.28-0.03c0.71-0.15,1.17-0.85,1.01-1.57L39.68,51.88z"/>
</g>
</svg>
