<?xml version="1.0" encoding="utf-8"?>
<!-- Generator: Adobe Illustrator 24.0.2, SVG Export Plug-In . SVG Version: 6.00 Build 0)  -->
<svg version="1.1" id="Capa_1" xmlns="http://www.w3.org/2000/svg" xmlns:xlink="http://www.w3.org/1999/xlink" x="0px" y="0px"
	 viewBox="0 0 64 64" style="enable-background:new 0 0 64 64;" xml:space="preserve">
<style type="text/css">
	.st0{fill:#4E4E4E;}
</style>
<g>
	<g>
		<path class="st0" d="M39.74,19.44c0.37-0.26,0.62-0.7,0.62-1.19c0-0.8-0.65-1.46-1.46-1.46H25.1c-0.8,0-1.46,0.65-1.46,1.46
			c0,0.49,0.24,0.92,0.62,1.19C15.58,22.61,9.38,30.95,9.38,40.7c0,12.48,10.15,22.63,22.63,22.63c12.48,0,22.62-10.15,22.62-22.63
			C54.62,30.95,48.42,22.61,39.74,19.44z M32,60.41c-10.87,0-19.71-8.84-19.71-19.71c0-10.87,8.84-19.71,19.71-19.71
			c10.87,0,19.71,8.84,19.71,19.71C51.71,51.57,42.87,60.41,32,60.41z"/>
		<path class="st0" d="M36.75,5.33c0-2.57-2.13-4.65-4.75-4.65s-4.75,2.09-4.75,4.65v7.51h9.5V5.33z M33.84,9.92h-3.67v-4.6
			c0-0.96,0.82-1.74,1.84-1.74s1.84,0.78,1.84,1.74V9.92z"/>
	</g>
	<g>
		<path class="st0" d="M22.05,43.4c1.62,0,2.93-1.31,2.93-2.93c0-1.62-1.31-2.94-2.93-2.94c-1.62,0-2.93,1.32-2.93,2.94
			C19.12,42.08,20.43,43.4,22.05,43.4z"/>
		<path class="st0" d="M41.95,37.53c-1.62,0-2.93,1.32-2.93,2.94c0,1.62,1.31,2.93,2.93,2.93c1.62,0,2.93-1.31,2.93-2.93
			C44.88,38.85,43.57,37.53,41.95,37.53z"/>
		<path class="st0" d="M32.03,47.51c-1.62,0-2.93,1.31-2.93,2.94c0,1.62,1.31,2.93,2.93,2.93c1.62,0,2.94-1.32,2.94-2.93
			C34.97,48.83,33.66,47.51,32.03,47.51z"/>
		<path class="st0" d="M32.03,33.42c1.62,0,2.94-1.32,2.94-2.94c0-1.62-1.31-2.94-2.94-2.94c-1.62,0-2.93,1.31-2.93,2.94
			C29.1,32.1,30.42,33.42,32.03,33.42z"/>
		<path class="st0" d="M42.96,44.59l-4.93-0.28c-0.05-0.08-0.11-0.15-0.18-0.22l-3.62-3.62l3.62-3.62c0.13-0.13,0.23-0.29,0.31-0.45
			l4.8-0.28c0.86-0.05,1.51-0.78,1.46-1.64c-0.05-0.86-0.78-1.51-1.64-1.46l-3.49,0.2v-3.78c0-0.86-0.69-1.55-1.55-1.55
			c-0.86,0-1.55,0.69-1.55,1.55v4.87c-0.19,0.07-0.38,0.19-0.53,0.35l-3.62,3.62l-3.62-3.62c-0.13-0.13-0.28-0.23-0.44-0.3
			L27.7,29.5c-0.05-0.86-0.78-1.51-1.64-1.46c-0.86,0.05-1.51,0.78-1.46,1.64l0.2,3.49h-3.78c-0.86,0-1.55,0.7-1.55,1.55
			s0.69,1.55,1.55,1.55h4.84c0.08,0.21,0.19,0.41,0.36,0.58l3.62,3.62l-3.62,3.62c-0.11,0.11-0.19,0.22-0.26,0.35h-4.95
			c-0.86,0-1.55,0.69-1.55,1.55c0,0.86,0.69,1.55,1.55,1.55h3.78l-0.2,3.49c-0.05,0.86,0.6,1.59,1.46,1.64c0.03,0,0.06,0,0.09,0
			c0.81,0,1.5-0.64,1.55-1.46l0.27-4.62c0.16-0.08,0.32-0.17,0.45-0.31l3.62-3.62l3.62,3.62c0.16,0.16,0.34,0.27,0.53,0.35v4.64
			c0,0.86,0.7,1.55,1.55,1.55c0.86,0,1.55-0.69,1.55-1.55v-3.78l3.49,0.2c0.86,0.05,1.59-0.6,1.64-1.46
			C44.46,45.37,43.81,44.64,42.96,44.59z"/>
	</g>
</g>
</svg>
