<?xml version="1.0" encoding="utf-8"?>
<!-- Generator: Adobe Illustrator 24.0.2, SVG Export Plug-In . SVG Version: 6.00 Build 0)  -->
<svg version="1.1" id="Capa_1" xmlns="http://www.w3.org/2000/svg" xmlns:xlink="http://www.w3.org/1999/xlink" x="0px" y="0px"
	 viewBox="0 0 64 64" style="enable-background:new 0 0 64 64;" xml:space="preserve">
<style type="text/css">
	.st0{fill:#4E4E4E;}
</style>
<g>
	<path class="st0" d="M47.95,47.03L35.63,36.56c0,0,0-0.01,0-0.01l4.14-13.46c0.03-0.1,0.06-0.21,0.09-0.32l0.03-0.11
		c0.15-0.58-0.15-1.19-0.7-1.42c-4.74-1.94-10.98-4.24-17.29-4.83c-0.55-0.05-1.07,0.29-1.25,0.82c-0.25,0.76-0.46,1.53-0.67,2.27
		c-0.15,0.53-0.29,1.06-0.44,1.55l-5.23,16.97c-1.29,4.2,1.1,9.51,4.05,12.02c0.02,0.02,0.05,0.04,0.08,0.06l14.59,10.4l0.62,0.53
		c0.47,0.4,0.93,0.8,1.39,1.18c0.02,0.02,0.05,0.03,0.07,0.05c0,0,0.01,0.01,0.01,0.01c1.54,1.27,3.49,1.98,5.53,1.98l0,0
		c1.66,0,3.26-0.47,4.64-1.35c1.82-1.17,3.86-3.5,4.85-5.56C51.81,53.88,50.89,49.53,47.95,47.03z M22.29,20.14
		c0.11-0.41,0.22-0.82,0.34-1.23c5.25,0.64,10.46,2.48,14.64,4.15l-1.13,3.68c-5.19-2.79-12.14-3.74-14.61-4l0.3-0.98
		C21.99,21.25,22.14,20.7,22.29,20.14z M16.6,38.74l2.09-6.79c2.13,1.6,7.54,6.44,5.6,13.18c-0.01,0.03-0.01,0.06-0.02,0.09
		c-0.48,2.29-1.66,4.3-1.67,4.32c-0.09,0.16-0.14,0.32-0.16,0.49l-2.57-1.83C17.56,46.2,15.64,41.84,16.6,38.74z M34.46,58.6
		l-10.33-7.37c0.21-0.1,0.4-0.25,0.53-0.47c0.06-0.09,1.38-2.33,1.95-5.01c2.53-8.93-5.53-15.07-7.18-16.21l1.37-4.46
		c1.73,0.16,9.46,1.05,14.61,4l-2.08,6.76c-0.03,0.09-0.06,0.17-0.08,0.24c-0.23,0.64-0.33,1.34,0.57,2.1l11.54,9.8
		c-1.87,0.31-4.47,1.1-6.67,3.12c-2.08,1.92-3.37,4.54-3.85,7.81l-0.3-0.25C34.52,58.64,34.49,58.62,34.46,58.6z M47.97,56.31
		c-0.8,1.65-2.55,3.66-3.99,4.59c-0.99,0.63-2.14,0.97-3.34,0.97l0,0c-1.29,0-2.54-0.39-3.59-1.12c0.22-3.41,1.3-6.06,3.25-7.86
		c2.72-2.52,6.38-2.69,7.24-2.69C48.7,51.99,48.92,54.34,47.97,56.31z"/>
	<path class="st0" d="M21.07,13.46c0.18,0.1,0.38,0.15,0.57,0.15c0.29,0,0.58-0.1,0.81-0.31c5.12-4.66,5.38-7.88,4.71-9.76
		c-0.68-1.87-2.56-3.11-4.93-3.22c-2.4-0.12-4.53,1.01-5.4,2.86c-0.85,1.8-0.92,4.99,3.56,9.9C20.57,13.29,20.81,13.41,21.07,13.46z
		 M19,4.2c0.52-1.11,1.85-1.49,2.92-1.49c0.07,0,0.14,0,0.2,0c1.03,0.05,2.38,0.51,2.78,1.64c0.27,0.74,0.43,2.79-3.32,6.46
		C19.24,8.06,18.3,5.68,19,4.2z"/>
</g>
</svg>
