<?xml version="1.0" encoding="utf-8"?>
<!-- Generator: Adobe Illustrator 24.0.2, SVG Export Plug-In . SVG Version: 6.00 Build 0)  -->
<svg version="1.1" id="Capa_1" xmlns="http://www.w3.org/2000/svg" xmlns:xlink="http://www.w3.org/1999/xlink" x="0px" y="0px"
	 viewBox="0 0 64 64" style="enable-background:new 0 0 64 64;" xml:space="preserve">
<style type="text/css">
	.st0{fill:#4E4E4E;}
</style>
<g>
	<path class="st0" d="M45.35,25.51H18.38c-3.18,0-5.76,2.58-5.76,5.76v26.97c0,3.18,2.58,5.76,5.76,5.76h26.97
		c3.18,0,5.76-2.58,5.76-5.76V31.27C51.11,28.09,48.53,25.51,45.35,25.51z M48.2,31.27V43.3H33.32V28.42h12.03
		C46.92,28.42,48.2,29.7,48.2,31.27z M18.38,28.42h12.03V43.3H15.53V31.27C15.53,29.7,16.81,28.42,18.38,28.42z M15.53,58.24V46.21
		h14.88v14.88H18.38C16.81,61.09,15.53,59.81,15.53,58.24z M45.35,61.09H33.32V46.21H48.2v12.03C48.2,59.81,46.92,61.09,45.35,61.09
		z"/>
	<path class="st0" d="M33.12,20.35c0.09,0.4,0.33,0.74,0.68,0.94c1.33,0.79,3.08,1.21,5.07,1.21c3.46,0,7.86-1.33,9.36-4.26
		c0.82-1.59,0.6-3.39-0.6-5.06c-1.23-1.71-2.74-2.07-3.8-2.07c-4.69,0-9.91,7.27-10.49,8.1C33.12,19.54,33.04,19.95,33.12,20.35z
		 M43.84,14.02c0.38,0,0.89,0.1,1.43,0.86c0.74,1.03,0.57,1.66,0.37,2.04c-0.76,1.47-3.8,2.67-6.77,2.67c-0.72,0-1.4-0.07-2-0.2
		C38.79,17.04,41.82,14.02,43.84,14.02z"/>
	<path class="st0" d="M24.85,22.5c1.99,0,3.75-0.42,5.07-1.21c0.35-0.21,0.59-0.55,0.68-0.94c0.09-0.4,0-0.81-0.23-1.14
		c-0.58-0.83-5.8-8.1-10.49-8.1c-1.05,0-2.57,0.36-3.8,2.07c-1.2,1.68-1.41,3.47-0.6,5.06C16.99,21.17,21.4,22.5,24.85,22.5z
		 M18.46,14.87c0.55-0.76,1.05-0.86,1.43-0.86c1.99,0,4.95,2.87,6.97,5.37c-0.61,0.13-1.29,0.21-2.01,0.21
		c-2.98,0-6.01-1.2-6.77-2.67C17.89,16.53,17.71,15.91,18.46,14.87z"/>
	<path class="st0" d="M30.65,14.94c0.25,0.48,0.75,0.79,1.29,0.79c0.01,0,0.02,0,0.03,0c0.56-0.01,1.06-0.34,1.29-0.85l1.19-2.58
		c0.3-0.6,2.94-5.95,1.61-9.27c-0.45-1.11-1.29-1.91-2.43-2.31c-0.6-0.21-1.36-0.24-1.77-0.24c-0.4,0-1.17,0.03-1.77,0.24
		c-1.14,0.4-1.98,1.2-2.43,2.31c-1.33,3.32,1.31,8.67,1.62,9.28L30.65,14.94z M30.37,4.11c0.13-0.33,0.34-0.53,0.68-0.65
		c0.07-0.03,0.37-0.08,0.81-0.08c0.44,0,0.73,0.05,0.81,0.08c0.35,0.12,0.55,0.32,0.69,0.65c0.6,1.48-0.49,4.84-1.49,6.85
		C30.88,9.01,29.77,5.61,30.37,4.11z"/>
</g>
</svg>
