<?xml version="1.0" encoding="utf-8"?>
<!-- Generator: Adobe Illustrator 24.0.2, SVG Export Plug-In . SVG Version: 6.00 Build 0)  -->
<svg version="1.1" id="Capa_1" xmlns="http://www.w3.org/2000/svg" xmlns:xlink="http://www.w3.org/1999/xlink" x="0px" y="0px"
	 viewBox="0 0 64 64" style="enable-background:new 0 0 64 64;" xml:space="preserve">
<style type="text/css">
	.st0{fill:#4E4E4E;}
</style>
<g>
	<path class="st0" d="M53.98,39.13c0.18-0.32,0.21-0.71,0.11-1.06l-6.81-22.83c-0.22-0.74-0.99-1.15-1.73-0.93l-43.56,13
		c-0.35,0.11-0.65,0.35-0.83,0.67s-0.21,0.71-0.11,1.06l6.81,22.83c0.18,0.6,0.73,0.99,1.33,0.99c0.13,0,0.27-0.02,0.4-0.06
		l43.56-12.99C53.51,39.7,53.8,39.46,53.98,39.13z M27.76,34.75L6.32,28.92l36.19-10.8L27.76,34.75z M10.13,49.74l-5.49-18.4
		l23.03,6.27c0.12,0.03,0.25,0.05,0.37,0.05c0.19,0,0.36-0.05,0.53-0.12c0.31-0.05,0.61-0.19,0.84-0.45l16.07-18.14l5.54,18.58
		L10.13,49.74z"/>
	<path class="st0" d="M4.48,7.75h1.11L4.81,8.54c-0.54,0.54-0.54,1.42,0,1.97c0.27,0.27,0.63,0.41,0.98,0.41
		c0.36,0,0.71-0.14,0.98-0.41l0.79-0.79v1.11c0,0.77,0.62,1.39,1.39,1.39c0.77,0,1.39-0.62,1.39-1.39V9.72l0.79,0.79
		c0.27,0.27,0.63,0.41,0.98,0.41c0.36,0,0.71-0.14,0.98-0.41c0.54-0.54,0.54-1.42,0-1.97L12.3,7.75h1.11c0.77,0,1.39-0.62,1.39-1.39
		c0-0.77-0.62-1.39-1.39-1.39H12.3l0.79-0.79c0.54-0.54,0.54-1.42,0-1.97c-0.54-0.54-1.42-0.54-1.97,0l-0.78,0.78V1.9
		c0-0.77-0.62-1.39-1.39-1.39c-0.77,0-1.39,0.62-1.39,1.39v1.11L6.77,2.22c-0.54-0.54-1.42-0.54-1.97,0c-0.54,0.54-0.54,1.42,0,1.97
		l0.79,0.79H4.48c-0.77,0-1.39,0.62-1.39,1.39C3.09,7.13,3.71,7.75,4.48,7.75z"/>
	<path class="st0" d="M63.01,49.98c0-0.77-0.62-1.39-1.39-1.39h-1.11l0.79-0.79c0.54-0.54,0.54-1.42,0-1.97
		c-0.54-0.54-1.42-0.54-1.97,0l-0.79,0.79v-1.11c0-0.77-0.62-1.39-1.39-1.39c-0.77,0-1.39,0.62-1.39,1.39v1.11l-0.78-0.78
		c-0.54-0.54-1.42-0.54-1.97,0c-0.54,0.54-0.54,1.42,0,1.97l0.79,0.79h-1.11c-0.77,0-1.39,0.62-1.39,1.39
		c0,0.77,0.62,1.39,1.39,1.39h1.11l-0.79,0.79c-0.54,0.54-0.54,1.42,0,1.97c0.27,0.27,0.63,0.41,0.98,0.41
		c0.36,0,0.71-0.14,0.98-0.41l0.79-0.79v1.11c0,0.77,0.62,1.39,1.39,1.39c0.77,0,1.39-0.62,1.39-1.39v-1.11l0.79,0.79
		c0.27,0.27,0.63,0.41,0.98,0.41c0.36,0,0.71-0.14,0.98-0.41c0.54-0.54,0.54-1.42,0-1.97l-0.79-0.79h1.11
		C62.39,51.37,63.01,50.74,63.01,49.98z"/>
	<path class="st0" d="M56.89,16.57h0.91v0.91c0,0.77,0.62,1.39,1.39,1.39c0.77,0,1.39-0.62,1.39-1.39v-0.91h0.91
		c0.77,0,1.39-0.62,1.39-1.39c0-0.77-0.62-1.39-1.39-1.39h-0.91v-0.91c0-0.77-0.62-1.39-1.39-1.39c-0.77,0-1.39,0.62-1.39,1.39v0.91
		h-0.91c-0.77,0-1.39,0.62-1.39,1.39C55.5,15.94,56.13,16.57,56.89,16.57z"/>
	<path class="st0" d="M26.03,13.25c2.45,0,4.45-2,4.45-4.45c0-2.45-2-4.45-4.45-4.45c-2.45,0-4.45,2-4.45,4.45
		C21.58,11.25,23.58,13.25,26.03,13.25z M26.03,7.13c0.92,0,1.67,0.75,1.67,1.67c0,0.92-0.75,1.67-1.67,1.67
		c-0.92,0-1.67-0.75-1.67-1.67C24.36,7.88,25.11,7.13,26.03,7.13z"/>
	<path class="st0" d="M41.85,54.59c-2.45,0-4.45,2-4.45,4.45c0,2.45,2,4.45,4.45,4.45c2.45,0,4.45-2,4.45-4.45
		C46.3,56.59,44.3,54.59,41.85,54.59z M41.85,60.71c-0.92,0-1.67-0.75-1.67-1.67s0.75-1.67,1.67-1.67c0.92,0,1.67,0.75,1.67,1.67
		S42.77,60.71,41.85,60.71z"/>
</g>
</svg>
