<?xml version="1.0" encoding="utf-8"?>
<!-- Generator: Adobe Illustrator 24.0.2, SVG Export Plug-In . SVG Version: 6.00 Build 0)  -->
<svg version="1.1" id="Capa_1" xmlns="http://www.w3.org/2000/svg" xmlns:xlink="http://www.w3.org/1999/xlink" x="0px" y="0px"
	 viewBox="0 0 64 64" style="enable-background:new 0 0 64 64;" xml:space="preserve">
<style type="text/css">
	.st0{fill:#4E4E4E;}
</style>
<g>
	<path class="st0" d="M19.34,15.2H4.67c-0.8,0-1.45,0.65-1.45,1.45v21.89c0,4.35,3.18,7.96,7.33,8.65v13.92H5.15
		c-0.8,0-1.45,0.65-1.45,1.45c0,0.8,0.65,1.45,1.45,1.45h13.71c0.8,0,1.45-0.65,1.45-1.45c0-0.8-0.65-1.45-1.45-1.45h-5.41V47.19
		c4.15-0.69,7.33-4.3,7.33-8.65V16.65C20.79,15.85,20.14,15.2,19.34,15.2z M17.89,18.09v11.85c-0.04,0-0.07-0.01-0.11-0.01H6.12
		V18.09H17.89z M12.01,44.43c-3.25,0-5.89-2.64-5.89-5.89v-5.71h11.67c0.04,0,0.07-0.01,0.11-0.01v5.72
		C17.89,41.78,15.25,44.43,12.01,44.43z"/>
	<path class="st0" d="M61.55,52.97c-0.38-0.7-1.26-0.96-1.96-0.58l-4.76,2.58l-6.63-12.24c1.44-1.11,2.49-2.64,3.02-4.42
		c0.67-2.25,0.42-4.62-0.69-6.68L40.11,12.38c-0.38-0.7-1.26-0.96-1.96-0.58l-12.9,6.98c-0.7,0.38-0.96,1.26-0.58,1.96l10.42,19.25
		c1.54,2.84,4.5,4.6,7.73,4.6c0,0,0,0,0,0c0.97,0,1.92-0.18,2.84-0.49l6.63,12.24l-4.76,2.58c-0.7,0.38-0.96,1.26-0.58,1.96
		c0.26,0.48,0.76,0.76,1.27,0.76c0.23,0,0.47-0.06,0.69-0.17l12.06-6.53C61.67,54.55,61.93,53.68,61.55,52.97z M38.26,15.03
		l8.07,14.91H33.11c-0.05,0-0.11,0.01-0.16,0.02l-5.05-9.32L38.26,15.03z M42.82,41.7c-2.17,0-4.15-1.18-5.18-3.09l-3.13-5.79h13.14
		c0.08,0,0.16-0.01,0.23-0.02l0.11,0.2c0.75,1.38,0.91,2.98,0.47,4.48c-0.45,1.51-1.46,2.75-2.84,3.5c0,0,0,0,0,0c0,0,0,0,0,0
		C44.76,41.45,43.79,41.7,42.82,41.7L42.82,41.7z"/>
	<path class="st0" d="M14.24,12.23c1.04,0,1.88-0.84,1.88-1.88c0-1.04-0.84-1.88-1.88-1.88s-1.88,0.84-1.88,1.88
		C12.36,11.39,13.21,12.23,14.24,12.23z"/>
	<path class="st0" d="M23.42,2.18c0-1.04-0.84-1.88-1.88-1.88c-1.04,0-1.88,0.84-1.88,1.88c0,1.04,0.84,1.88,1.88,1.88
		C22.57,4.06,23.42,3.22,23.42,2.18z"/>
	<path class="st0" d="M31.86,10.27c0-2.5-2.03-4.53-4.53-4.53s-4.53,2.03-4.53,4.53c0,2.5,2.03,4.53,4.53,4.53
		S31.86,12.77,31.86,10.27z M25.68,10.27c0-0.9,0.74-1.64,1.64-1.64c0.91,0,1.64,0.74,1.64,1.64c0,0.91-0.74,1.64-1.64,1.64
		C26.42,11.92,25.68,11.18,25.68,10.27z"/>
</g>
</svg>
