<?xml version="1.0" encoding="utf-8"?>
<!-- Generator: Adobe Illustrator 24.0.2, SVG Export Plug-In . SVG Version: 6.00 Build 0)  -->
<svg version="1.1" id="Capa_1" xmlns="http://www.w3.org/2000/svg" xmlns:xlink="http://www.w3.org/1999/xlink" x="0px" y="0px"
	 viewBox="0 0 64 64" style="enable-background:new 0 0 64 64;" xml:space="preserve">
<style type="text/css">
	.st0{fill:#4E4E4E;}
</style>
<g>
	<path class="st0" d="M20.39,53.75h23.34c2.16,0,3.92-1.77,3.92-3.94V25.04c0-2.17-1.76-3.94-3.92-3.94H20.39
		c-2.16,0-3.92,1.77-3.92,3.94v24.77C16.47,51.98,18.23,53.75,20.39,53.75z M19.2,25.04c0-0.66,0.53-1.21,1.19-1.21h23.34
		c0.66,0,1.19,0.54,1.19,1.21v8.88c-0.51-0.83-1.12-1.34-1.9-1.44c-1.57-0.19-2.49,1.5-2.79,2.06c-0.44,0.81-0.73,1.98-1.03,3.23
		c-0.38,1.55-0.95,3.89-1.78,4.33c-0.07,0.04-0.19,0.09-0.24,0.07c-0.84-0.4-1.55-3.74-1.85-5.16c-0.23-1.08-0.39-1.86-0.62-2.35
		c-0.79-1.72-1.77-2.53-2.92-2.42c-0.62,0.06-2.51,0.25-4.09,6.88c-0.04,0.17-0.08,0.37-0.13,0.61c-0.31,1.56-0.62,2.43-0.86,2.58
		c-0.18-0.05-0.7-0.46-1.57-3.08c-0.05-0.16-0.1-0.3-0.14-0.42c-0.1-0.28-0.21-0.76-0.32-1.27c-0.42-1.89-0.95-4.24-2.62-4.87
		c-0.79-0.3-1.58-0.25-2.27,0.13c-0.21,0.12-0.4,0.26-0.58,0.43V25.04z M19.2,39.58c0.04-0.17,0.08-0.36,0.13-0.59
		c0.19-0.91,0.76-3.69,1.59-4.15c0.05-0.03,0.12-0.06,0.31,0.01c0.49,0.24,0.97,2.38,1.15,3.19c0.14,0.6,0.25,1.12,0.4,1.53
		l0.13,0.37c0.55,1.65,1.55,4.69,3.77,4.69c0.04,0,0.08,0,0.12,0c2.2-0.11,2.76-2.94,3.07-4.46c0.04-0.2,0.08-0.38,0.11-0.52
		c0.69-2.9,1.53-4.59,1.99-5.02c0.12,0.12,0.33,0.4,0.61,1c0.12,0.25,0.3,1.1,0.46,1.85c0.68,3.23,1.39,5.98,3.15,6.8
		c0.51,0.24,1.33,0.41,2.33-0.11c1.76-0.93,2.4-3.54,2.96-5.85c0.25-1.04,0.51-2.12,0.81-2.66c0.21-0.39,0.38-0.62,0.49-0.74
		c0.67,0.79,1.45,3.81,1.76,5c0.15,0.56,0.27,1.02,0.38,1.4v8.49c0,0.66-0.53,1.21-1.19,1.21H20.39c-0.66,0-1.19-0.54-1.19-1.21
		V39.58z"/>
	<path class="st0" d="M21.89,29.99c0.36,0,0.72-0.15,0.97-0.4c0.26-0.26,0.41-0.61,0.41-0.97c0-0.36-0.15-0.71-0.41-0.97
		c-0.51-0.51-1.42-0.51-1.93,0c-0.26,0.26-0.41,0.61-0.41,0.97c0,0.36,0.15,0.71,0.41,0.97C21.18,29.84,21.53,29.99,21.89,29.99z"/>
	<circle class="st0" cx="35.45" cy="28.62" r="1.37"/>
	<circle class="st0" cx="28.67" cy="28.62" r="1.37"/>
	<path class="st0" d="M42.22,29.99c0.37,0,0.72-0.15,0.97-0.4c0.26-0.26,0.41-0.61,0.41-0.97c0-0.36-0.15-0.71-0.41-0.97
		c-0.51-0.51-1.42-0.51-1.93,0c-0.26,0.26-0.41,0.61-0.41,0.97c0,0.36,0.15,0.71,0.41,0.97C41.51,29.84,41.86,29.99,42.22,29.99z"/>
	<path class="st0" d="M30.87,18.54c0.27,0.29,0.64,0.44,1.01,0.44c0.33,0,0.66-0.12,0.92-0.36c2.97-2.72,0.86-6.9-0.86-8.94
		c-0.49-0.58-1.35-0.65-1.93-0.16c-0.58,0.49-0.65,1.35-0.16,1.93c0.03,0.04,2.88,3.52,1.11,5.15
		C30.4,17.12,30.36,17.98,30.87,18.54z"/>
	<path class="st0" d="M26.71,16.1c0.18,0.08,0.38,0.12,0.57,0.12c0.51,0,1-0.29,1.23-0.79c0.32-0.68,0.03-1.49-0.65-1.82
		c-0.06-0.03-1.53-0.76-2.07-2.68c-0.58-2.06,0.13-4.81,2.03-8c4.16,0.84,6.62,2.94,7.56,4.7c0.44,0.82,0.83,2.07,0.22,3.37
		c-0.32,0.68-0.03,1.5,0.66,1.82c0.68,0.32,1.5,0.03,1.82-0.66c0.85-1.81,0.75-3.88-0.28-5.82c-1.71-3.2-5.61-5.54-10.45-6.28
		C26.83,0,26.29,0.24,26,0.69c-2.76,4.29-3.71,8.01-2.82,11.06C24.09,14.86,26.6,16.05,26.71,16.1z"/>
	<path class="st0" d="M11.02,59.73H53.1c0.65,0,1.17-0.52,1.17-1.17c0-0.65-0.53-1.17-1.17-1.17H11.02c-0.65,0-1.17,0.52-1.17,1.17
		C9.84,59.2,10.37,59.73,11.02,59.73z"/>
	<path class="st0" d="M53.1,61.59H11.02c-0.65,0-1.17,0.52-1.17,1.17c0,0.65,0.53,1.17,1.17,1.17H53.1c0.65,0,1.17-0.52,1.17-1.17
		C54.27,62.12,53.75,61.59,53.1,61.59z"/>
</g>
</svg>
