<?xml version="1.0" encoding="utf-8"?>
<!-- Generator: Adobe Illustrator 24.0.2, SVG Export Plug-In . SVG Version: 6.00 Build 0)  -->
<svg version="1.1" id="Capa_1" xmlns="http://www.w3.org/2000/svg" xmlns:xlink="http://www.w3.org/1999/xlink" x="0px" y="0px"
	 viewBox="0 0 64 64" style="enable-background:new 0 0 64 64;" xml:space="preserve">
<style type="text/css">
	.st0{fill:#4E4E4E;}
</style>
<g>
	<path class="st0" d="M51.16,10.09l-3.6-0.68c0.02-0.11,0.04-0.21,0.04-0.33V1.59c0-0.42-0.17-0.81-0.48-1.09
		c-0.31-0.28-0.71-0.42-1.13-0.38L13.54,2.89c-0.04,0-0.09,0.02-0.13,0.02l-0.02,0c-0.43-0.08-0.88,0.03-1.22,0.31
		c-0.34,0.28-0.54,0.7-0.54,1.14v47.47c0,0.66,0.44,1.25,1.08,1.43l37.77,10.56c0.13,0.04,0.27,0.05,0.4,0.05
		c0.32,0,0.64-0.1,0.9-0.3c0.37-0.28,0.59-0.72,0.59-1.18V11.54C52.37,10.83,51.86,10.22,51.16,10.09z M44.64,3.21v5.64L24.16,4.96
		L44.64,3.21z M49.4,60.45l-34.8-9.73V6.16l34.8,6.61V60.45z"/>
	<path class="st0" d="M27.41,48.12l-0.01,1.89c0,0.69,0.47,1.29,1.14,1.45l4.61,1.11c0.11,0.03,0.23,0.04,0.35,0.04
		c0.33,0,0.65-0.11,0.91-0.31c0.36-0.28,0.57-0.7,0.57-1.15l0.01-1.24c0.61,0.05,1.22,0.09,1.8,0.09c0,0,0,0,0,0
		c4.15,0,6.24-1.32,6.47-1.47c0.4-0.26,0.64-0.7,0.66-1.18c0.02-0.47-0.19-0.93-0.57-1.22c-0.03-0.02-2.5-1.97-5.06-4.66
		c1.97-0.33,3-0.98,3.15-1.08c0.4-0.26,0.64-0.7,0.66-1.18c0.02-0.48-0.19-0.93-0.57-1.22c-0.03-0.02-2.06-1.62-4.18-3.84
		c1.59-0.29,2.44-0.82,2.56-0.9c0.4-0.26,0.64-0.7,0.66-1.18c0.02-0.48-0.19-0.93-0.57-1.22c-2.76-2.17-7.13-6.61-7.17-9.37
		c0-0.02,0-0.04,0-0.05h0c0,0,0,0,0,0c0-0.82-0.65-1.49-1.47-1.49c0,0-0.01,0-0.01,0c-0.81,0-1.48,0.66-1.48,1.47
		c-0.02,2.78-5.03,4.91-6.79,5.44c-0.49,0.15-0.87,0.53-1,1.02c-0.14,0.49-0.01,1.02,0.33,1.39c0.05,0.06,1.04,1.13,3.01,2.29
		c-2,1.1-3.91,1.68-3.94,1.69c-0.49,0.15-0.86,0.53-1,1.02c-0.14,0.49-0.02,1.01,0.32,1.39c0.06,0.07,1.24,1.35,3.6,2.74
		c-2.46,1.36-4.81,2.08-4.84,2.08c-0.49,0.15-0.86,0.53-1,1.02c-0.14,0.49-0.02,1.01,0.32,1.39C19.03,43.02,21.75,45.98,27.41,48.12
		z M28.28,39.42c0.43-0.31,0.65-0.83,0.59-1.36c-0.06-0.53-0.39-0.98-0.88-1.19c-1.32-0.58-2.37-1.2-3.17-1.74
		c1.35-0.59,3.02-1.45,4.48-2.6c0.41-0.32,0.62-0.84,0.55-1.37c-0.07-0.52-0.41-0.96-0.9-1.17c-1.01-0.42-1.84-0.88-2.49-1.29
		c1.51-0.69,3.36-1.75,4.67-3.23c1.3,2.27,3.34,4.4,4.9,5.85c-0.49,0.04-1.06,0.05-1.7,0.01c-0.59-0.05-1.14,0.27-1.41,0.78
		c-0.27,0.52-0.22,1.15,0.14,1.61c1.5,1.91,3.25,3.63,4.58,4.83c-0.65,0.1-1.47,0.15-2.42,0.11c-0.58-0.03-1.13,0.29-1.39,0.81
		c-0.26,0.52-0.2,1.15,0.17,1.6c1.88,2.3,4.01,4.33,5.52,5.68c-0.72,0.15-1.63,0.26-2.73,0.26c-1.52,0-3.18-0.21-4.92-0.63
		c-4.3-1.04-7.27-2.76-8.99-4C24.43,41.75,26.47,40.76,28.28,39.42z"/>
	<path class="st0" d="M31.02,17.66c0.23,0.06,0.47,0.08,0.7,0.08c1.58,0,2.77-1.26,2.78-2.93c0.01-1.7-1.18-3.28-2.77-3.66
		c-0.23-0.06-0.47-0.08-0.7-0.08c-1.58,0-2.77,1.26-2.78,2.94C28.25,15.7,29.43,17.28,31.02,17.66z"/>
</g>
</svg>
