<?xml version="1.0" encoding="utf-8"?>
<!-- Generator: Adobe Illustrator 24.0.2, SVG Export Plug-In . SVG Version: 6.00 Build 0)  -->
<svg version="1.1" id="Capa_1" xmlns="http://www.w3.org/2000/svg" xmlns:xlink="http://www.w3.org/1999/xlink" x="0px" y="0px"
	 viewBox="0 0 64 64" style="enable-background:new 0 0 64 64;" xml:space="preserve">
<style type="text/css">
	.st0{fill:#4E4E4E;}
</style>
<g>
	<path class="st0" d="M62.61,30.65l-3.36-2.25l1.5-2.24c0.45-0.68,0.27-1.6-0.41-2.05c-0.68-0.45-1.6-0.27-2.05,0.41l-1.98,2.96
		l-9.11,1.81c-1.79-2.21-4.06-4.05-6.7-5.32c2.38-2.28,3.74-5.41,3.74-8.8c0-6.75-5.49-12.24-12.24-12.24
		c-6.75,0-12.24,5.49-12.24,12.24c0,3.38,1.36,6.52,3.74,8.8c-2.64,1.27-4.91,3.11-6.7,5.32l-9.11-1.81l-1.98-2.96
		c-0.45-0.68-1.37-0.86-2.05-0.41c-0.68,0.45-0.86,1.37-0.41,2.05l1.5,2.24l-3.36,2.25c-0.68,0.45-0.86,1.37-0.41,2.05
		c0.28,0.43,0.75,0.66,1.23,0.66c0.28,0,0.57-0.08,0.82-0.25l4.08-2.73L15,31.94c-1.61,2.86-2.52,6.14-2.52,9.6
		c0,10.77,8.76,19.53,19.53,19.53c10.77,0,19.52-8.76,19.52-19.53c0-3.46-0.91-6.74-2.52-9.6l7.89-1.57l4.08,2.73
		c0.25,0.17,0.54,0.25,0.82,0.25c0.48,0,0.94-0.23,1.23-0.66C63.47,32.02,63.29,31.1,62.61,30.65z M32,58.11
		c-9.14,0-16.57-7.43-16.57-16.57c0-7.21,4.61-13.55,11.48-15.76c0.55-0.18,0.95-0.66,1.01-1.24c0.07-0.58-0.21-1.14-0.7-1.44
		c-2.82-1.7-4.5-4.67-4.5-7.94c0-5.12,4.16-9.28,9.28-9.28c5.12,0,9.28,4.16,9.28,9.28c0,3.27-1.68,6.24-4.5,7.94
		c-0.49,0.3-0.77,0.86-0.7,1.44c0.07,0.57,0.46,1.06,1.01,1.24c6.87,2.22,11.48,8.55,11.48,15.76C48.57,50.68,41.14,58.11,32,58.11z
		"/>
	<path class="st0" d="M27.74,12.39l-0.87,0.87c-0.58,0.58-0.58,1.51,0,2.09c0.29,0.29,0.67,0.43,1.04,0.43
		c0.38,0,0.76-0.14,1.04-0.43l0.87-0.87c0.58-0.58,0.58-1.51,0-2.09C29.26,11.81,28.32,11.81,27.74,12.39z"/>
	<path class="st0" d="M37.12,13.25l-0.87-0.87c-0.58-0.58-1.51-0.58-2.09,0c-0.58,0.58-0.58,1.51,0,2.09l0.87,0.87
		c0.29,0.29,0.67,0.43,1.05,0.43c0.38,0,0.76-0.14,1.04-0.43C37.7,14.77,37.7,13.83,37.12,13.25z"/>
</g>
</svg>
