<?xml version="1.0" encoding="utf-8"?>
<!-- Generator: Adobe Illustrator 24.0.2, SVG Export Plug-In . SVG Version: 6.00 Build 0)  -->
<svg version="1.1" id="Capa_1" xmlns="http://www.w3.org/2000/svg" xmlns:xlink="http://www.w3.org/1999/xlink" x="0px" y="0px"
	 viewBox="0 0 64 64" style="enable-background:new 0 0 64 64;" xml:space="preserve">
<style type="text/css">
	.st0{fill:#4E4E4E;}
</style>
<g>
	<path class="st0" d="M8.28,16.53l-1.33,1.33c-0.46,0.46-0.46,1.2,0,1.65c0.23,0.23,0.53,0.34,0.82,0.34c0.3,0,0.6-0.11,0.82-0.34
		l1.33-1.33l1.33,1.33c0.23,0.23,0.53,0.34,0.82,0.34c0.3,0,0.6-0.11,0.82-0.34c0.46-0.46,0.46-1.19,0-1.65l-1.33-1.33l1.33-1.33
		c0.46-0.45,0.46-1.19,0-1.65s-1.19-0.46-1.65,0l-1.33,1.33L8.6,13.55c-0.46-0.46-1.19-0.46-1.65,0c-0.46,0.46-0.46,1.19,0,1.65
		L8.28,16.53z"/>
	<path class="st0" d="M5.37,17.87c0.74,0,1.34-0.6,1.34-1.34c0-0.74-0.6-1.34-1.34-1.34c-0.74,0-1.34,0.6-1.34,1.34
		C4.03,17.27,4.63,17.87,5.37,17.87z"/>
	<path class="st0" d="M14.45,17.87c0.74,0,1.34-0.6,1.34-1.34c0-0.74-0.6-1.34-1.34-1.34c-0.74,0-1.34,0.6-1.34,1.34
		C13.11,17.27,13.71,17.87,14.45,17.87z"/>
	<path class="st0" d="M9.93,19.75c-0.74,0-1.34,0.6-1.34,1.34c0,0.74,0.6,1.34,1.34,1.34c0.74,0,1.34-0.6,1.34-1.34
		C11.27,20.35,10.67,19.75,9.93,19.75z"/>
	<path class="st0" d="M9.93,13.31c0.74,0,1.34-0.6,1.34-1.34c0-0.74-0.6-1.34-1.34-1.34c-0.74,0-1.34,0.6-1.34,1.34
		C8.59,12.71,9.19,13.31,9.93,13.31z"/>
	<path class="st0" d="M23.94,45.45c-12.84,6.06-20.95-2.52-21.3-2.91c-0.43-0.48-1.17-0.51-1.65-0.08
		c-0.48,0.43-0.51,1.17-0.08,1.65c0.07,0.08,5.41,5.8,14.16,5.8c2.93,0,6.24-0.64,9.87-2.35c9.87-4.66,19.21-2.25,22.16,1.28
		c0.41,0.49,1.15,0.56,1.64,0.15c0.49-0.41,0.56-1.15,0.15-1.64C45.58,43.39,35.37,40.05,23.94,45.45z"/>
	<path class="st0" d="M60.72,33.61v-2.69c1.95-0.48,3.4-2.24,3.4-4.33c0-2.09-1.45-3.85-3.4-4.33v-3.05
		c1.66-0.66,2.79-2.27,2.79-4.13c0-2.46-2-4.46-4.46-4.46c-2.05,0-3.79,1.4-4.3,3.29h-2.31c-0.51-1.89-2.25-3.29-4.3-3.29
		c-2.05,0-3.79,1.4-4.3,3.29h-2.31c-0.51-1.89-2.25-3.29-4.3-3.29c-2.05,0-3.79,1.4-4.3,3.29h-2.31c-0.51-1.89-2.25-3.29-4.3-3.29
		c-2.46,0-4.46,2-4.46,4.46c0,2.1,1.46,3.86,3.41,4.33v2.85c-1.96,0.47-3.41,2.23-3.41,4.33c0,2.1,1.46,3.86,3.41,4.33v0.71
		c-0.45,0.19-0.9,0.38-1.35,0.59c-12.85,6.07-20.96-2.54-21.31-2.91c-0.43-0.48-1.17-0.51-1.65-0.08c-0.48,0.43-0.51,1.17-0.08,1.65
		c0.07,0.08,5.41,5.8,14.16,5.8c2.29,0,4.83-0.4,7.56-1.4c-0.47,0.71-0.75,1.54-0.75,2.45c0,2.46,2,4.46,4.46,4.46
		c2,0,3.69-1.31,4.25-3.13h2.4c0.56,1.83,2.26,3.13,4.25,3.13c2,0,3.69-1.31,4.25-3.13h2.4c0.56,1.83,2.26,3.13,4.25,3.13
		c2,0,3.69-1.31,4.25-3.13h2.4c0.56,1.83,2.26,3.13,4.25,3.13c2.46,0,4.46-2,4.46-4.46C63.51,35.91,62.36,34.28,60.72,33.61z
		 M59.05,39.87c-1.13,0-2.06-0.89-2.12-2.02c-0.03-0.62-0.54-1.11-1.17-1.11h-4.35c-0.62,0-1.14,0.49-1.17,1.11
		c-0.05,1.13-0.98,2.02-2.12,2.02c-1.13,0-2.06-0.89-2.12-2.02c-0.03-0.62-0.54-1.11-1.17-1.11h-4.35c-0.62,0-1.14,0.49-1.17,1.11
		c-0.05,1.13-0.98,2.02-2.12,2.02s-2.06-0.89-2.12-2.02c-0.03-0.62-0.54-1.11-1.17-1.11h-4.35c-0.62,0-1.14,0.49-1.17,1.11
		c-0.05,1.13-0.98,2.02-2.12,2.02c-1.17,0-2.12-0.95-2.12-2.12c0-1.17,0.95-2.12,2.12-2.12c0,0,0.07,0,0.08,0.01
		c0.32,0.01,0.63-0.11,0.85-0.33c0.23-0.22,0.36-0.52,0.36-0.84v-1.23c8.84-3.11,16.79-0.83,19.47,2.38
		c0.41,0.49,1.15,0.56,1.64,0.15c0.49-0.41,0.56-1.15,0.15-1.64c-2.94-3.53-11.37-6.56-21.26-3.35v-0.89c0-0.32-0.13-0.62-0.36-0.84
		c-0.23-0.22-0.54-0.34-0.85-0.32c-0.01,0-0.07,0-0.08,0.01c-1.17,0-2.12-0.95-2.12-2.12c0-1.17,0.95-2.12,2.13-2.12
		c0.01,0,0.06,0,0.07,0c0.31,0.01,0.63-0.1,0.85-0.32c0.23-0.22,0.36-0.52,0.36-0.84v-4.95c0-0.32-0.13-0.62-0.36-0.84
		c-0.22-0.21-0.51-0.33-0.81-0.33c-0.03,0-0.1,0-0.12,0.01c-1.17,0-2.12-0.95-2.12-2.12c0-1.17,0.95-2.12,2.12-2.12
		c1.17,0,2.12,0.95,2.12,2.12c0,0.64,0.52,1.17,1.17,1.17h4.33c0.64,0,1.17-0.52,1.17-1.17c0-1.17,0.95-2.12,2.12-2.12
		c1.17,0,2.12,0.95,2.12,2.12c0,0.64,0.52,1.17,1.17,1.17h4.33c0.64,0,1.17-0.52,1.17-1.17c0-1.17,0.95-2.12,2.12-2.12
		c1.17,0,2.12,0.95,2.12,2.12c0,0.64,0.52,1.17,1.17,1.17h4.33c0.64,0,1.17-0.52,1.17-1.17c0-1.17,0.95-2.12,2.12-2.12
		c1.17,0,2.12,0.95,2.12,2.12c0,1.04-0.77,1.94-1.8,2.1c-0.57,0.09-0.99,0.58-0.99,1.15v4.98c0,0.31,0.13,0.62,0.35,0.84
		c0.23,0.22,0.53,0.33,0.85,0.33l0.08,0c1.17,0,2.12,0.95,2.12,2.12c0,1.17-0.95,2.12-2.1,2.12c-0.01,0-0.07-0.01-0.09-0.01
		c-0.32-0.01-0.62,0.11-0.85,0.33c-0.23,0.22-0.36,0.52-0.36,0.84v4.62c0,0.58,0.42,1.07,0.99,1.15c1.03,0.16,1.8,1.06,1.8,2.1
		C61.18,38.91,60.22,39.87,59.05,39.87z"/>
	<path class="st0" d="M62.25,53.32h-1.71c-0.32-0.8-0.94-1.44-1.74-1.77v-1.68c0-0.64-0.52-1.17-1.17-1.17s-1.17,0.52-1.17,1.17
		v1.65c-0.84,0.32-1.5,0.97-1.83,1.8h-1.61c-0.64,0-1.17,0.52-1.17,1.17c0,0.64,0.52,1.17,1.17,1.17h1.61c0.33,0.83,1,1.48,1.83,1.8
		v1.65c0,0.64,0.52,1.17,1.17,1.17s1.17-0.52,1.17-1.17v-1.68c0.79-0.33,1.42-0.97,1.74-1.77h1.71c0.64,0,1.17-0.52,1.17-1.17
		C63.41,53.85,62.89,53.32,62.25,53.32z M57.59,55.34c-0.47,0-0.85-0.38-0.85-0.85c0-0.47,0.38-0.85,0.85-0.85
		c0.47,0,0.85,0.38,0.85,0.85C58.43,54.96,58.05,55.34,57.59,55.34z"/>
	<path class="st0" d="M37.38,51.79c-0.74,0-1.34,0.6-1.34,1.34c0,0.74,0.6,1.34,1.34,1.34c0.74,0,1.34-0.6,1.34-1.34
		C38.72,52.39,38.12,51.79,37.38,51.79z"/>
	<path class="st0" d="M54.26,8.46c0.74,0,1.34-0.6,1.34-1.34c0-0.74-0.6-1.34-1.34-1.34s-1.34,0.6-1.34,1.34
		C52.92,7.87,53.52,8.46,54.26,8.46z"/>
	<path class="st0" d="M13.27,55.45c-0.74,0-1.34,0.6-1.34,1.34c0,0.74,0.6,1.34,1.34,1.34c0.74,0,1.34-0.6,1.34-1.34
		C14.61,56.05,14.01,55.45,13.27,55.45z"/>
	<path class="st0" d="M18.28,42.79c0-0.74-0.6-1.34-1.34-1.34c-0.74,0-1.34,0.6-1.34,1.34c0,0.74,0.6,1.34,1.34,1.34
		C17.68,44.13,18.28,43.53,18.28,42.79z"/>
</g>
</svg>
