<?xml version="1.0" encoding="utf-8"?>
<!-- Generator: Adobe Illustrator 24.0.2, SVG Export Plug-In . SVG Version: 6.00 Build 0)  -->
<svg version="1.1" id="Capa_1" xmlns="http://www.w3.org/2000/svg" xmlns:xlink="http://www.w3.org/1999/xlink" x="0px" y="0px"
	 viewBox="0 0 64 64" style="enable-background:new 0 0 64 64;" xml:space="preserve">
<style type="text/css">
	.st0{fill:#4E4E4E;}
</style>
<g>
	<path class="st0" d="M14.67,24.6c0.85,0,1.7-0.06,2.5-0.17v1.4c0,0.78,0.64,1.42,1.42,1.42c0.78,0,1.42-0.64,1.42-1.42v-1.37
		c0.74,0.09,1.51,0.14,2.29,0.14c2.01,0,5.55-0.32,6.7-2.49c0.42-0.79,0.67-2.1-0.52-3.84c-1.02-1.49-2.29-1.81-3.19-1.81
		c-1.91,0-3.84,1.46-5.28,2.9V1.85c0-0.78-0.64-1.42-1.42-1.42c-0.78,0-1.42,0.64-1.42,1.42v17.74c-1.46-1.51-3.48-3.13-5.5-3.13
		c-0.89,0-2.17,0.31-3.19,1.81c-1.18,1.74-0.93,3.05-0.52,3.84C9.12,24.27,12.66,24.6,14.67,24.6z M25.29,19.3
		c0.15,0,0.46,0,0.84,0.56c0.35,0.51,0.4,0.83,0.36,0.91c-0.17,0.32-1.42,0.98-4.19,0.98c-0.21,0-0.42,0-0.62-0.01
		C22.89,20.46,24.33,19.3,25.29,19.3z M10.83,19.86c0.38-0.56,0.69-0.56,0.84-0.56c0.96,0,2.39,1.16,3.62,2.45
		c-0.21,0.01-0.42,0.01-0.62,0.01c-2.77,0-4.02-0.66-4.19-0.98C10.43,20.69,10.49,20.37,10.83,19.86z"/>
	<path class="st0" d="M21.8,33.29v-1.21c0-1.71-1.39-3.1-3.1-3.1c-1.71,0-3.1,1.39-3.1,3.1v1.21c-5.79,1.4-10.1,6.61-10.1,12.82
		c0,7.28,5.92,13.21,13.21,13.21c7.28,0,13.21-5.92,13.21-13.21C31.9,39.9,27.59,34.69,21.8,33.29z M18.7,56.48
		c-5.72,0-10.37-4.65-10.37-10.37c0-4.88,3.39-8.97,7.94-10.07c0.57,0.72,1.44,1.2,2.43,1.2c0.99,0,1.86-0.47,2.43-1.2
		c4.55,1.1,7.94,5.19,7.94,10.07C29.07,51.83,24.41,56.48,18.7,56.48z"/>
	<path class="st0" d="M14.02,38.88c-3.52,1.36-3.79,5.87-3.8,6.06c-0.04,0.78,0.56,1.45,1.34,1.49c0.03,0,0.05,0,0.08,0
		c0.75,0,1.38-0.59,1.42-1.34c0-0.03,0.2-2.87,1.99-3.56c0.73-0.28,1.09-1.11,0.81-1.84C15.57,38.96,14.75,38.6,14.02,38.88z"/>
	<path class="st0" d="M43.83,35.95c0.85,0,1.7-0.06,2.5-0.17v1.4c0,0.78,0.64,1.42,1.42,1.42c0.78,0,1.42-0.64,1.42-1.42v-1.37
		c0.74,0.09,1.51,0.14,2.29,0.14c2.01,0,5.55-0.32,6.7-2.49c0.42-0.79,0.67-2.1-0.52-3.84c-1.02-1.49-2.29-1.81-3.19-1.81
		c-1.91,0-3.84,1.46-5.28,2.9V1.85c0-0.78-0.64-1.42-1.42-1.42c-0.78,0-1.42,0.64-1.42,1.42v29.09c-1.46-1.51-3.48-3.13-5.5-3.13
		c-0.89,0-2.17,0.31-3.19,1.81c-1.18,1.74-0.93,3.05-0.52,3.84C38.28,35.63,41.83,35.95,43.83,35.95z M54.46,30.65
		c0.15,0,0.46,0,0.84,0.56c0.35,0.51,0.4,0.83,0.36,0.91c-0.17,0.32-1.42,0.98-4.19,0.98c-0.21,0-0.42,0-0.62-0.01
		C52.06,31.81,53.5,30.65,54.46,30.65z M40,31.22c0.38-0.56,0.69-0.56,0.84-0.56c0.96,0,2.39,1.16,3.62,2.45
		c-0.21,0.01-0.42,0.01-0.62,0.01c-2.77,0-4.02-0.66-4.19-0.98C39.6,32.04,39.65,31.73,40,31.22z"/>
	<path class="st0" d="M50.84,43.27c-0.05-1.6-1.36-2.89-2.98-2.89c-1.61,0-2.93,1.29-2.98,2.89c-4.27,1.28-7.39,5.25-7.39,9.93
		c0,5.72,4.65,10.37,10.37,10.37s10.37-4.65,10.37-10.37C58.23,48.52,55.11,44.55,50.84,43.27z M47.87,60.73
		c-4.15,0-7.53-3.38-7.53-7.53c0-3.15,1.95-5.86,4.71-6.98c0.4,1.19,1.5,2.05,2.82,2.05c1.32,0,2.43-0.86,2.82-2.05
		c2.76,1.12,4.71,3.82,4.71,6.98C55.4,57.35,52.02,60.73,47.87,60.73z"/>
</g>
</svg>
