<?xml version="1.0" encoding="utf-8"?>
<!-- Generator: Adobe Illustrator 24.0.2, SVG Export Plug-In . SVG Version: 6.00 Build 0)  -->
<svg version="1.1" id="Capa_1" xmlns="http://www.w3.org/2000/svg" xmlns:xlink="http://www.w3.org/1999/xlink" x="0px" y="0px"
	 viewBox="0 0 64 64" style="enable-background:new 0 0 64 64;" xml:space="preserve">
<style type="text/css">
	.st0{fill:#4E4E4E;}
</style>
<g>
	<path class="st0" d="M57.69,33.52h4.63c0.84,0,1.52-0.68,1.52-1.52c0-0.84-0.68-1.52-1.52-1.52H57.5l6-5.42
		c0.62-0.56,0.67-1.53,0.11-2.15c-0.56-0.62-1.52-0.67-2.15-0.11L53,30.45c-0.03,0.01-0.06,0.02-0.09,0.03h-4.03l6-5.42
		c0.62-0.56,0.67-1.53,0.11-2.15c-0.56-0.62-1.52-0.67-2.15-0.11l-7.91,7.14c-0.36-2.25-1.29-4.31-2.65-6.01l4.98-4.98
		c0.59-0.59,0.59-1.56,0-2.15s-1.56-0.59-2.15,0l-4.99,4.99c-1.7-1.33-3.74-2.24-5.97-2.59l7.05-7.81c0.56-0.62,0.51-1.58-0.11-2.15
		c-0.62-0.56-1.58-0.51-2.15,0.11l-5.36,5.93v-4.08l7.61-8.43c0.56-0.62,0.51-1.58-0.11-2.15c-0.62-0.56-1.58-0.51-2.15,0.11
		l-5.36,5.93V1.76c0-0.84-0.68-1.52-1.52-1.52c-0.84,0-1.52,0.68-1.52,1.52v4.87l-5.31-5.88c-0.56-0.62-1.52-0.67-2.15-0.11
		c-0.62,0.56-0.67,1.52-0.11,2.15l7.56,8.38v4.08l-5.31-5.88c-0.56-0.62-1.52-0.67-2.15-0.11c-0.62,0.56-0.67,1.53-0.11,2.15
		l7.07,7.82c-2.23,0.37-4.27,1.29-5.96,2.65l-5.06-5.06c-0.59-0.59-1.56-0.59-2.15,0c-0.59,0.59-0.59,1.56,0,2.15l5.07,5.07
		c-1.18,1.5-2.03,3.27-2.45,5.2l-7.12-6.43c-0.62-0.56-1.58-0.51-2.15,0.11c-0.56,0.62-0.51,1.58,0.11,2.15l6,5.42h-4.03
		c-0.03-0.01-0.06-0.02-0.09-0.03l-8.46-7.64c-0.62-0.56-1.58-0.51-2.15,0.11c-0.56,0.62-0.51,1.58,0.11,2.15l6,5.42h-5.9
		c-0.84,0-1.52,0.68-1.52,1.52c0,0.84,0.68,1.52,1.52,1.52h5.71l-5.81,5.25c-0.62,0.56-0.67,1.52-0.11,2.15
		c0.3,0.33,0.71,0.5,1.13,0.5c0.36,0,0.73-0.13,1.02-0.39l8.31-7.5h4.08l-5.81,5.25c-0.62,0.56-0.67,1.52-0.11,2.15
		c0.3,0.33,0.71,0.5,1.13,0.5c0.36,0,0.73-0.13,1.02-0.39l7.08-6.4c0.41,1.98,1.28,3.8,2.49,5.34l-5.07,5.07
		c-0.59,0.59-0.59,1.56,0,2.15c0.3,0.3,0.69,0.44,1.07,0.44c0.39,0,0.78-0.15,1.07-0.44l5.06-5.06c1.64,1.31,3.6,2.22,5.75,2.61
		l-6.85,7.59c-0.56,0.62-0.51,1.58,0.11,2.15c0.29,0.26,0.66,0.39,1.02,0.39c0.41,0,0.83-0.17,1.13-0.5l5.31-5.88v4.08l-7.56,8.38
		c-0.56,0.62-0.51,1.58,0.11,2.15c0.29,0.26,0.66,0.39,1.02,0.39c0.41,0,0.83-0.17,1.13-0.5l5.31-5.88v5.14
		c0,0.84,0.68,1.52,1.52,1.52c0.84,0,1.52-0.68,1.52-1.52v-5.2l5.36,5.93c0.3,0.33,0.71,0.5,1.13,0.5c0.36,0,0.73-0.13,1.02-0.39
		c0.62-0.56,0.67-1.52,0.11-2.15l-7.61-8.43v-4.08l5.36,5.93c0.3,0.33,0.71,0.5,1.13,0.5c0.36,0,0.73-0.13,1.02-0.39
		c0.62-0.56,0.67-1.52,0.11-2.15l-6.84-7.57c2.14-0.37,4.11-1.27,5.75-2.56l4.99,4.99c0.3,0.3,0.69,0.45,1.07,0.45
		c0.39,0,0.78-0.15,1.07-0.45c0.59-0.59,0.59-1.56,0-2.15l-4.98-4.98c1.39-1.74,2.33-3.85,2.68-6.16l7.89,7.12
		c0.29,0.26,0.66,0.39,1.02,0.39c0.41,0,0.83-0.17,1.13-0.5c0.56-0.62,0.51-1.58-0.11-2.15l-5.81-5.25h4.08l8.31,7.5
		c0.29,0.26,0.66,0.39,1.02,0.39c0.41,0,0.83-0.17,1.13-0.5c0.56-0.62,0.51-1.58-0.11-2.15L57.69,33.52z M41.94,30.48h-6.2
		l4.37-4.37C41.05,27.37,41.69,28.86,41.94,30.48z M33.59,28.33V22.2c1.61,0.24,3.1,0.86,4.36,1.77L33.59,28.33z M30.55,22.22v6.11
		l-4.29-4.29C27.5,23.12,28.96,22.48,30.55,22.22z M28.4,30.48h-6.04c0.24-1.58,0.86-3.04,1.76-4.28L28.4,30.48z M22.36,33.52h6.04
		l-4.28,4.28C23.22,36.55,22.61,35.1,22.36,33.52z M30.55,35.67v6.11c-1.59-0.26-3.05-0.9-4.29-1.82L30.55,35.67z M33.59,41.8v-6.13
		l4.36,4.36C36.69,40.95,35.2,41.57,33.59,41.8z M35.74,33.52h6.2c-0.25,1.62-0.89,3.11-1.83,4.37L35.74,33.52z"/>
	<path class="st0" d="M10.76,17.17c3.43,0,6.22-2.79,6.22-6.22c0-3.43-2.79-6.23-6.22-6.23c-3.43,0-6.22,2.79-6.22,6.23
		C4.53,14.38,7.33,17.17,10.76,17.17z M10.76,7.76c1.76,0,3.18,1.43,3.18,3.18s-1.43,3.18-3.18,3.18s-3.18-1.43-3.18-3.18
		S9,7.76,10.76,7.76z"/>
	<path class="st0" d="M53.55,17.17c3.43,0,6.22-2.79,6.22-6.22c0-3.43-2.79-6.23-6.22-6.23c-3.43,0-6.22,2.79-6.22,6.23
		C47.32,14.38,50.12,17.17,53.55,17.17z M53.55,7.76c1.76,0,3.18,1.43,3.18,3.18s-1.43,3.18-3.18,3.18c-1.76,0-3.18-1.43-3.18-3.18
		S51.79,7.76,53.55,7.76z"/>
	<path class="st0" d="M10.76,46.83c-3.43,0-6.22,2.79-6.22,6.23c0,3.43,2.79,6.22,6.22,6.22c3.43,0,6.22-2.79,6.22-6.22
		C16.98,49.63,14.19,46.83,10.76,46.83z M10.76,56.24c-1.76,0-3.18-1.43-3.18-3.18c0-1.76,1.43-3.18,3.18-3.18s3.18,1.43,3.18,3.18
		C13.94,54.81,12.52,56.24,10.76,56.24z"/>
	<path class="st0" d="M53.55,46.83c-3.43,0-6.22,2.79-6.22,6.23c0,3.43,2.79,6.22,6.22,6.22c3.43,0,6.22-2.79,6.22-6.22
		C59.77,49.63,56.98,46.83,53.55,46.83z M53.55,56.24c-1.76,0-3.18-1.43-3.18-3.18c0-1.76,1.43-3.18,3.18-3.18
		c1.76,0,3.18,1.43,3.18,3.18C56.73,54.81,55.3,56.24,53.55,56.24z"/>
</g>
</svg>
