<?xml version="1.0" encoding="utf-8"?>
<!-- Generator: Adobe Illustrator 24.0.2, SVG Export Plug-In . SVG Version: 6.00 Build 0)  -->
<svg version="1.1" id="Capa_1" xmlns="http://www.w3.org/2000/svg" xmlns:xlink="http://www.w3.org/1999/xlink" x="0px" y="0px"
	 viewBox="0 0 64 64" style="enable-background:new 0 0 64 64;" xml:space="preserve">
<style type="text/css">
	.st0{fill:#4E4E4E;}
</style>
<g>
	<path class="st0" d="M63.76,12.97c-0.32-0.48-0.89-0.72-1.45-0.63l-12.5,2.19L41.62,4.3c-0.36-0.45-0.95-0.64-1.5-0.5
		c-0.55,0.15-0.97,0.6-1.06,1.17l-2.08,12.95l-11.95,4.25c-0.54,0.19-0.92,0.69-0.96,1.26c-0.04,0.57,0.26,1.11,0.77,1.38
		l12.05,6.28l-0.02,12.34c0,0.57,0.34,1.09,0.87,1.32c0.19,0.08,0.38,0.12,0.58,0.12c0.36,0,0.71-0.13,0.98-0.39l9.26-8.61
		l12.3,2.93c0.56,0.13,1.14-0.08,1.49-0.54c0.35-0.46,0.39-1.08,0.1-1.58l-6.1-10.73l7.39-11.4C64.08,14.07,64.08,13.45,63.76,12.97
		z M53.48,25.12c-0.29,0.45-0.31,1.03-0.04,1.5l4.89,8.61l-9.83-2.34c-0.47-0.11-0.96,0.02-1.32,0.35l-7.4,6.88l0.01-9.9
		c0-0.54-0.3-1.03-0.78-1.28l-9.89-5.15l9.64-3.42c0.5-0.18,0.86-0.61,0.94-1.13L41.4,8.65l6.69,8.37c0.33,0.41,0.86,0.61,1.38,0.52
		l10.08-1.77L53.48,25.12z"/>
	<path class="st0" d="M27.13,33.73c0.78-0.18,1.26-0.96,1.07-1.74c-0.18-0.78-0.96-1.26-1.74-1.08C6.09,35.71,0.29,55.73,0.05,56.58
		c-0.21,0.77,0.24,1.56,1,1.78c0.13,0.04,0.26,0.05,0.39,0.05c0.63,0,1.21-0.42,1.39-1.05C2.89,57.17,8.44,38.12,27.13,33.73z"/>
	<path class="st0" d="M27.26,40.82C12.63,44.26,8.46,58.64,8.29,59.25c-0.21,0.77,0.24,1.56,1,1.78c0.13,0.04,0.26,0.05,0.39,0.05
		c0.63,0,1.21-0.42,1.39-1.06c0.04-0.13,3.86-13.34,16.85-16.4c0.78-0.18,1.26-0.96,1.07-1.74C28.82,41.12,28.04,40.64,27.26,40.82z
		"/>
	<path class="st0" d="M26.7,8.19l0.15,0.12l-0.12,0.15c-0.5,0.62-0.39,1.53,0.23,2.03c0.26,0.21,0.58,0.31,0.9,0.31
		c0.43,0,0.85-0.19,1.13-0.55l0.12-0.15l0.15,0.12c0.26,0.21,0.58,0.31,0.9,0.31c0.43,0,0.85-0.19,1.13-0.55
		c0.5-0.62,0.39-1.53-0.23-2.03L30.9,7.84l0.12-0.15c0.49-0.62,0.39-1.53-0.23-2.03c-0.63-0.49-1.53-0.39-2.03,0.23l-0.12,0.15
		l-0.15-0.12c-0.63-0.49-1.53-0.39-2.03,0.23C25.97,6.79,26.07,7.7,26.7,8.19z"/>
	<path class="st0" d="M52.53,49.77L51.55,49l0.77-0.97c0.5-0.63,0.39-1.53-0.23-2.03c-0.62-0.49-1.53-0.39-2.03,0.23l-0.77,0.97
		l-0.97-0.77c-0.63-0.5-1.53-0.39-2.03,0.23c-0.5,0.62-0.39,1.53,0.23,2.03l0.97,0.77l-0.77,0.97c-0.5,0.62-0.39,1.53,0.23,2.03
		c0.26,0.21,0.58,0.31,0.9,0.31c0.43,0,0.85-0.19,1.13-0.55l0.77-0.97l0.97,0.77c0.27,0.21,0.58,0.31,0.9,0.31
		c0.43,0,0.85-0.19,1.13-0.55C53.26,51.18,53.15,50.27,52.53,49.77z"/>
	<path class="st0" d="M13.12,23.2c0.21,0,0.41-0.01,0.63-0.04c2.97-0.34,5.12-3.04,4.77-6.02c-0.34-2.95-3-5.13-6.02-4.77
		c-2.97,0.34-5.12,3.04-4.77,6.02C8.05,21.13,10.36,23.2,13.12,23.2z M12.83,15.24c0.1-0.01,0.2-0.02,0.3-0.02
		c1.29,0,2.37,0.97,2.52,2.25c0.16,1.39-0.84,2.66-2.24,2.82c-1.41,0.17-2.66-0.85-2.82-2.24C10.44,16.67,11.44,15.4,12.83,15.24z"
		/>
</g>
</svg>
