<?xml version="1.0" encoding="utf-8"?>
<!-- Generator: Adobe Illustrator 24.0.2, SVG Export Plug-In . SVG Version: 6.00 Build 0)  -->
<svg version="1.1" id="Capa_1" xmlns="http://www.w3.org/2000/svg" xmlns:xlink="http://www.w3.org/1999/xlink" x="0px" y="0px"
	 viewBox="0 0 64 64" style="enable-background:new 0 0 64 64;" xml:space="preserve">
<style type="text/css">
	.st0{fill:#4E4E4E;}
</style>
<g>
	<path class="st0" d="M26.92,51.59c-0.48,0-0.96,0.06-1.44,0.17c-1.57,0.38-2.9,1.35-3.74,2.74c-0.84,1.38-1.09,3.01-0.71,4.58
		c0.66,2.72,3.08,4.62,5.88,4.62c0.48,0,0.96-0.06,1.44-0.17c1.57-0.38,2.9-1.35,3.74-2.74c0.84-1.38,1.09-3.01,0.71-4.58
		C32.13,53.49,29.72,51.59,26.92,51.59z M29.81,59.41c-0.47,0.77-1.21,1.32-2.09,1.53c-0.27,0.06-0.54,0.1-0.81,0.1
		c-1.56,0-2.91-1.06-3.28-2.58c-0.21-0.88-0.07-1.79,0.4-2.56c0.47-0.77,1.21-1.32,2.09-1.53c0.27-0.06,0.54-0.1,0.8-0.1
		c1.56,0,2.91,1.06,3.28,2.58C30.42,57.73,30.28,58.63,29.81,59.41z"/>
	<path class="st0" d="M56.73,39.3c-0.18-0.72-0.9-1.16-1.61-0.98l0,0c-0.35,0.09-0.71,0.13-1.06,0.13c-5.53,0-9.87-10.97-11.08-15.2
		c-0.05-0.16-0.12-0.31-0.22-0.44C40.71,15.68,35,10.56,29.01,10.56c-0.84,0-1.68,0.1-2.5,0.3c-6.8,1.66-10.67,9.54-8.94,18.09
		c-0.03,0.16-0.03,0.32,0.01,0.49c0.97,4.78,2.16,17.5-3.85,18.97c-0.72,0.17-1.16,0.9-0.98,1.61c0.15,0.61,0.69,1.02,1.3,1.02
		c0.1,0,0.21-0.01,0.32-0.04c0,0,0,0,0,0l41.39-10.08C56.47,40.74,56.91,40.01,56.73,39.3z M27.14,13.45
		c0.61-0.15,1.24-0.22,1.87-0.22c4.93,0,9.68,4.52,11.31,10.74c0.05,0.18,0.13,0.35,0.24,0.49c0.49,1.6,1.92,5.9,4.26,9.73L20.93,40
		c0.33-4.55-0.38-9.09-0.65-10.6c0.03-0.18,0.03-0.36-0.01-0.55C18.65,21.68,21.72,14.77,27.14,13.45z M19.18,47.07
		c0.67-1.25,1.11-2.71,1.39-4.24l25.86-6.3c0.96,1.22,2.02,2.31,3.2,3.12L19.18,47.07z"/>
	<path class="st0" d="M29.08,6.9C29.18,6.87,39,4.67,45.5,19.43c0.22,0.5,0.71,0.8,1.22,0.8c0.18,0,0.36-0.04,0.54-0.11
		c0.67-0.3,0.98-1.09,0.68-1.76C40.55,1.57,28.94,4.19,28.45,4.3c-0.72,0.17-1.16,0.9-0.98,1.61C27.64,6.63,28.37,7.07,29.08,6.9z"
		/>
	<path class="st0" d="M38.55,2.85c1.92,0.84,3.7,2.1,5.29,3.73c0.26,0.27,0.61,0.41,0.96,0.41c0.34,0,0.67-0.13,0.93-0.38
		c0.53-0.51,0.54-1.36,0.03-1.89c-1.82-1.88-3.89-3.33-6.13-4.32c-0.67-0.3-1.46,0.01-1.76,0.69C37.57,1.77,37.88,2.56,38.55,2.85z"
		/>
	<path class="st0" d="M13.56,27.21c-1.01-15.96,8.41-18.57,8.82-18.68c0.71-0.18,1.15-0.9,0.97-1.61c-0.17-0.72-0.9-1.16-1.61-0.98
		c-0.49,0.12-12,3.14-10.85,21.44c0.04,0.71,0.63,1.25,1.33,1.25c0.03,0,0.06,0,0.09,0C13.05,28.58,13.61,27.94,13.56,27.21z"/>
	<path class="st0" d="M11.9,7.42c-0.57-0.46-1.41-0.37-1.88,0.2c-1.54,1.9-2.7,4.14-3.46,6.65c-0.21,0.71,0.19,1.45,0.89,1.66
		c0.13,0.04,0.26,0.06,0.39,0.06c0.57,0,1.1-0.37,1.28-0.95c0.66-2.18,1.66-4.11,2.98-5.74C12.57,8.72,12.48,7.88,11.9,7.42z"/>
</g>
</svg>
