<?xml version="1.0" encoding="utf-8"?>
<!-- Generator: Adobe Illustrator 24.0.2, SVG Export Plug-In . SVG Version: 6.00 Build 0)  -->
<svg version="1.1" id="Capa_1" xmlns="http://www.w3.org/2000/svg" xmlns:xlink="http://www.w3.org/1999/xlink" x="0px" y="0px"
	 viewBox="0 0 64 64" style="enable-background:new 0 0 64 64;" xml:space="preserve">
<style type="text/css">
	.st0{fill:#4E4E4E;}
	.st1{fill:none;}
</style>
<g>
	<path class="st0" d="M46.57,49.39c-0.25-0.3-0.62-0.48-1.02-0.48h-0.19c0.09-0.45,0.14-0.9,0.14-1.36V26.09
		c0-1.64-0.58-3.14-1.53-4.33c1.72-0.38,3.02-1.91,3.02-3.75v-3.34c0-2.12-1.72-3.84-3.84-3.84H21.56c-2.12,0-3.84,1.72-3.84,3.84
		v3.34c0,1.84,1.3,3.37,3.02,3.75c-0.96,1.18-1.53,2.69-1.53,4.33v21.47c0,0.46,0.05,0.91,0.14,1.36h-0.19
		c-0.39,0-0.77,0.17-1.02,0.48l-7.85,9.37c-0.33,0.4-0.4,0.95-0.19,1.41c0.22,0.47,0.69,0.77,1.2,0.77H53.4
		c0.52,0,0.99-0.3,1.2-0.77c0.22-0.47,0.15-1.02-0.19-1.41L46.57,49.39z M20.37,18.02v-3.34c0-0.65,0.53-1.18,1.18-1.18h21.59
		c0.65,0,1.18,0.53,1.18,1.18v3.34c0,0.65-0.53,1.18-1.18,1.18h-4.43c-0.04,0-0.07-0.01-0.11-0.01H26.1c-0.04,0-0.07,0-0.11,0.01
		h-4.44C20.9,19.2,20.37,18.67,20.37,18.02z M14.15,58.28l5.62-6.71h1.14h0.32h4.14c0.73,0,1.33-0.59,1.33-1.33s-0.6-1.33-1.33-1.33
		h-3.28c-0.15-0.44-0.23-0.9-0.23-1.36V26.09c0-2.3,1.84-4.18,4.13-4.24h12.72c2.29,0.06,4.13,1.93,4.13,4.24v21.47
		c0,0.46-0.08,0.92-0.23,1.36h-3.48c-0.73,0-1.33,0.59-1.33,1.33s0.59,1.33,1.33,1.33h4.35h0.11h1.35l5.62,6.71H14.15z"/>
	<path class="st0" d="M30.49,48.92h-1.23c-0.73,0-1.33,0.59-1.33,1.33s0.59,1.33,1.33,1.33h1.23c0.73,0,1.33-0.59,1.33-1.33
		S31.22,48.92,30.49,48.92z"/>
	<path class="st0" d="M41.93,45.06c0-0.73-0.59-1.33-1.33-1.33h-2.83V38.2c0-0.22-0.06-0.42-0.15-0.6h2.99
		c0.73,0,1.33-0.59,1.33-1.33s-0.59-1.33-1.33-1.33H30.47c0.01-0.05,0.02-0.1,0.02-0.16v-5.95c0-0.05-0.01-0.11-0.02-0.16H40.6
		c0.73,0,1.33-0.59,1.33-1.33c0-0.73-0.59-1.33-1.33-1.33H24.1c-0.73,0-1.33,0.59-1.33,1.33c0,0.73,0.59,1.33,1.33,1.33h3.74
		c-0.01,0.05-0.02,0.1-0.02,0.16v5.95c0,0.05,0.01,0.11,0.02,0.16H24.1c-0.73,0-1.33,0.59-1.33,1.33s0.59,1.33,1.33,1.33h11.16
		c-0.09,0.18-0.15,0.39-0.15,0.6v5.53H24.1c-0.73,0-1.33,0.59-1.33,1.33c0,0.73,0.59,1.33,1.33,1.33h16.5
		C41.33,46.39,41.93,45.79,41.93,45.06z"/>
	<path class="st0" d="M27.46,5.07c0.84,0,1.53-0.68,1.53-1.53c0-0.84-0.68-1.53-1.53-1.53s-1.53,0.68-1.53,1.53
		C25.94,4.38,26.62,5.07,27.46,5.07z"/>
	<circle class="st0" cx="3.8" cy="5.62" r="1.53"/>
	<path class="st0" d="M53.26,29.31c-0.84,0-1.53,0.68-1.53,1.53s0.68,1.53,1.53,1.53c0.84,0,1.53-0.68,1.53-1.53
		S54.1,29.31,53.26,29.31z"/>
	<path class="st0" d="M2.03,49.59c-0.84,0-1.53,0.68-1.53,1.53c0,0.84,0.68,1.53,1.53,1.53c0.84,0,1.53-0.68,1.53-1.53
		C3.55,50.28,2.87,49.59,2.03,49.59z"/>
	<path class="st0" d="M63.61,38.46c-0.52-0.52-1.36-0.52-1.88,0l-0.47,0.47l-0.47-0.47c-0.52-0.52-1.36-0.52-1.88,0
		c-0.52,0.52-0.52,1.36,0,1.88l0.47,0.47l-0.47,0.47c-0.52,0.52-0.52,1.36,0,1.88c0.26,0.26,0.6,0.39,0.94,0.39
		c0.34,0,0.68-0.13,0.94-0.39l0.47-0.47l0.47,0.47c0.26,0.26,0.6,0.39,0.94,0.39c0.34,0,0.68-0.13,0.94-0.39
		c0.52-0.52,0.52-1.36,0-1.88l-0.47-0.47l0.47-0.47C64.13,39.82,64.13,38.98,63.61,38.46z"/>
	<path class="st0" d="M12.83,23.69c0.84,0,1.53-0.68,1.53-1.52c0-0.84-0.68-1.53-1.53-1.53c-0.84,0-1.52,0.68-1.52,1.53
		C11.3,23,11.99,23.69,12.83,23.69z"/>
	<g>
		<path class="st1" d="M6.82,32.22c-0.53,0-0.96,0.43-0.96,0.96c0,0.53,0.43,0.96,0.96,0.96s0.96-0.43,0.96-0.96
			C7.78,32.65,7.35,32.22,6.82,32.22z"/>
		<path class="st0" d="M12.13,31.85h-1.95c-0.36-0.91-1.07-1.64-1.98-2.01v-1.91c0-0.73-0.59-1.33-1.33-1.33s-1.33,0.6-1.33,1.33
			v1.88c-0.95,0.36-1.71,1.1-2.09,2.05H1.62c-0.73,0-1.33,0.59-1.33,1.33c0,0.73,0.59,1.33,1.33,1.33h1.84
			c0.38,0.94,1.13,1.69,2.09,2.05v1.88c0,0.73,0.59,1.33,1.33,1.33s1.33-0.6,1.33-1.33v-1.91c0.9-0.37,1.62-1.1,1.98-2.01h1.95
			c0.73,0,1.33-0.6,1.33-1.33C13.45,32.45,12.86,31.85,12.13,31.85z M6.82,34.14c-0.53,0-0.96-0.43-0.96-0.96
			c0-0.53,0.43-0.96,0.96-0.96s0.96,0.43,0.96,0.96C7.78,33.71,7.35,34.14,6.82,34.14z"/>
	</g>
	<path class="st0" d="M55.04,12.65l-1.51,1.51c-0.52,0.52-0.52,1.36,0,1.88c0.26,0.26,0.6,0.39,0.94,0.39
		c0.34,0,0.68-0.13,0.94-0.39l1.51-1.51l1.51,1.51c0.26,0.26,0.6,0.39,0.94,0.39c0.34,0,0.68-0.13,0.94-0.39
		c0.52-0.52,0.52-1.36,0-1.88l-1.51-1.51l1.51-1.51c0.52-0.52,0.52-1.36,0-1.88c-0.52-0.52-1.36-0.52-1.88,0l-1.51,1.51l-1.51-1.51
		c-0.52-0.52-1.36-0.52-1.88,0c-0.52,0.52-0.52,1.36,0,1.88L55.04,12.65z"/>
	<path class="st0" d="M51.73,14.17c0.84,0,1.53-0.68,1.53-1.53c0-0.84-0.68-1.53-1.53-1.53c-0.84,0-1.53,0.68-1.53,1.53
		C50.21,13.49,50.89,14.17,51.73,14.17z"/>
	<path class="st0" d="M62.07,14.17c0.84,0,1.53-0.68,1.53-1.53c0-0.84-0.68-1.53-1.53-1.53c-0.84,0-1.53,0.68-1.53,1.53
		C60.55,13.49,61.23,14.17,62.07,14.17z"/>
	<path class="st0" d="M56.92,16.31c-0.84,0-1.53,0.68-1.53,1.53c0,0.84,0.68,1.53,1.53,1.53c0.84,0,1.53-0.68,1.53-1.53
		C58.45,16.99,57.76,16.31,56.92,16.31z"/>
	<path class="st0" d="M56.92,8.98c0.84,0,1.53-0.68,1.53-1.53s-0.68-1.53-1.53-1.53c-0.84,0-1.53,0.68-1.53,1.53
		S56.08,8.98,56.92,8.98z"/>
</g>
</svg>
