<?xml version="1.0" encoding="utf-8"?>
<!-- Generator: Adobe Illustrator 24.0.2, SVG Export Plug-In . SVG Version: 6.00 Build 0)  -->
<svg version="1.1" id="Capa_1" xmlns="http://www.w3.org/2000/svg" xmlns:xlink="http://www.w3.org/1999/xlink" x="0px" y="0px"
	 viewBox="0 0 64 64" style="enable-background:new 0 0 64 64;" xml:space="preserve">
<style type="text/css">
	.st0{fill:#4E4E4E;}
</style>
<g>
	<path class="st0" d="M37,27.82c-0.11-1.76-0.78-3.15-2.01-4.12c-0.81-0.64-1.71-0.97-2.67-0.97c-2.34,0-4.48,1.92-6.29,3.82
		c0.81-5.89,0.36-12.84-3.14-17.38c-2.23-2.9-5.36-4.37-9.31-4.37c-3.87,0-6.96,1.22-9.19,3.61C-1,14.2-0.16,25.79,0.45,34.25
		c0.13,1.72,0.24,3.35,0.3,4.76c0.46,11.83,6.53,16.05,12.06,16.05c0,0,0,0,0,0c4.13,0,8.51-2.14,12.33-6.02
		C30.12,43.98,37.39,34.14,37,27.82z M6.27,10.17c1.75-1.88,4.13-2.79,7.3-2.79c3.1,0,5.55,1.13,7.27,3.37
		c0.92,1.2,1.6,2.65,2.07,4.26l-1.69,0.65l-1.59-1.7c-0.24-0.25-0.56-0.4-0.91-0.41c-0.35-0.02-0.68,0.12-0.93,0.36l-2.04,1.98
		l-1.76-1.56c-0.47-0.41-1.16-0.43-1.65-0.05l-1.86,1.45l-2.03-1.85c-0.27-0.24-0.62-0.36-0.99-0.33c-0.36,0.03-0.69,0.22-0.91,0.51
		l-1.42,1.88l-1.43-0.98C4.28,13.07,5.1,11.43,6.27,10.17z M3.09,17.65l1.6,1.1c0.22,0.15,0.48,0.23,0.73,0.23
		c0.39,0,0.78-0.18,1.03-0.51l1.31-1.73l1.79,1.63c0.46,0.42,1.17,0.45,1.66,0.06l1.87-1.46l1.85,1.64c0.5,0.45,1.27,0.43,1.75-0.04
		l1.96-1.9l1.29,1.38c0.36,0.38,0.91,0.51,1.4,0.32l2.14-0.82c0.32,2.04,0.38,4.21,0.23,6.36l-2.37-0.91
		c-0.49-0.19-1.05-0.06-1.4,0.32l-1.29,1.38l-1.96-1.9c-0.48-0.47-1.25-0.49-1.75-0.04l-1.85,1.64l-1.87-1.46
		c-0.49-0.39-1.2-0.36-1.66,0.06l-1.79,1.63l-1.31-1.73c-0.41-0.55-1.19-0.68-1.76-0.29l-2.11,1.45C2.6,21.85,2.74,19.67,3.09,17.65
		z M23.3,47.23c-3.28,3.34-7.1,5.25-10.49,5.25c0,0,0,0,0,0c-5.61,0-9.15-5.07-9.48-13.57c-0.06-1.46-0.18-3.1-0.3-4.85
		c-0.16-2.22-0.34-4.68-0.41-7.17c0.24,0,0.49-0.08,0.71-0.22l1.82-1.25l1.42,1.88c0.22,0.29,0.55,0.47,0.91,0.51
		c0.04,0,0.08,0.01,0.12,0.01c0.32,0,0.63-0.12,0.87-0.34l2.03-1.85l1.86,1.45c0.49,0.38,1.18,0.36,1.65-0.05l1.76-1.56l2.04,1.98
		c0.25,0.24,0.58,0.37,0.93,0.36c0.35-0.01,0.67-0.16,0.91-0.41l1.59-1.7l1.77,0.68c0.15,0.06,0.3,0.08,0.45,0.08
		c-0.19,1.29-0.45,2.55-0.76,3.73c-0.14,0.52,0.06,1.08,0.51,1.39c0.44,0.31,1.03,0.31,1.48,0c0.66-0.46,1.4-1.27,2.26-2.2
		c1.58-1.72,3.74-4.07,5.4-4.07c0.38,0,0.72,0.13,1.07,0.41c0.64,0.51,0.98,1.25,1.04,2.26C34.71,32.66,28.99,41.44,23.3,47.23z"/>
	<path class="st0" d="M21.43,56.45H4.25c-0.71,0-1.29,0.58-1.29,1.29c0,0.71,0.58,1.29,1.29,1.29h17.18c0.71,0,1.29-0.58,1.29-1.29
		C22.72,57.03,22.14,56.45,21.43,56.45z"/>
	<path class="st0" d="M15.35,38.35l1.47-1.47c0.5-0.5,0.5-1.32,0-1.82c-0.5-0.5-1.32-0.5-1.82,0l-1.47,1.47l-1.47-1.47
		c-0.5-0.5-1.32-0.5-1.82,0c-0.5,0.5-0.5,1.32,0,1.82l1.47,1.47l-1.47,1.47c-0.5,0.5-0.5,1.32,0,1.82c0.25,0.25,0.58,0.38,0.91,0.38
		c0.33,0,0.66-0.13,0.91-0.38l1.47-1.47L15,41.64c0.25,0.25,0.58,0.38,0.91,0.38c0.33,0,0.66-0.13,0.91-0.38
		c0.5-0.5,0.5-1.32,0-1.82L15.35,38.35z"/>
	<path class="st0" d="M8.5,36.87c-0.82,0-1.48,0.66-1.48,1.48c0,0.82,0.66,1.48,1.48,1.48c0.82,0,1.48-0.66,1.48-1.48
		C9.98,37.53,9.31,36.87,8.5,36.87z"/>
	<path class="st0" d="M18.53,36.87c-0.82,0-1.48,0.66-1.48,1.48c0,0.82,0.66,1.48,1.48,1.48c0.82,0,1.48-0.66,1.48-1.48
		C20.01,37.53,19.35,36.87,18.53,36.87z"/>
	<path class="st0" d="M13.53,41.91c-0.82,0-1.48,0.66-1.48,1.48c0,0.82,0.66,1.48,1.48,1.48c0.82,0,1.48-0.66,1.48-1.48
		C15.01,42.57,14.35,41.91,13.53,41.91z"/>
	<path class="st0" d="M13.53,34.8c0.82,0,1.48-0.66,1.48-1.48c0-0.82-0.66-1.48-1.48-1.48c-0.82,0-1.48,0.66-1.48,1.48
		C12.05,34.13,12.71,34.8,13.53,34.8z"/>
	<path class="st0" d="M53.12,54.78c5.51-0.4,11.26-5.05,10.86-16.88c-0.05-1.41-0.05-3.04-0.05-4.77c0-8.48,0-20.1-5.8-25.49
		c-2.4-2.23-5.57-3.22-9.43-2.93c-3.94,0.29-6.95,1.98-8.97,5.04c-3.16,4.79-3.11,11.76-1.87,17.57c-0.06-0.06,0.82,4.28,1.73,4.92
		c0.44,0.31,1.05,0.23,1.47-0.11c0.42-0.34,0.58-0.91,0.41-1.42c-0.4-1.16-0.75-2.39-1.03-3.66c0.15-0.01,0.3-0.05,0.44-0.11
		l1.71-0.81l1.71,1.58c0.25,0.24,0.59,0.36,0.94,0.34c0.35-0.01,0.67-0.17,0.9-0.43l1.89-2.12l1.87,1.43
		c0.49,0.38,1.19,0.35,1.65-0.07l1.75-1.58l2.16,1.7c0.25,0.2,0.57,0.29,0.89,0.27c0.04,0,0.08-0.01,0.12-0.01
		c0.36-0.06,0.67-0.27,0.87-0.57l1.28-1.97l1.9,1.11c0.23,0.13,0.48,0.19,0.72,0.17c0.11,2.49,0.11,4.95,0.11,7.18
		c0,1.75,0,3.4,0.05,4.86c0.29,8.5-2.88,13.81-8.47,14.22c-3.38,0.25-7.33-1.38-10.85-4.47c-2.63-2.31-5.3-5.17-7.49-8.06
		c-0.47,0.81-0.88,1.53-1.42,2.37c2.34,2.94,5.02,5.7,7.21,7.62C44.47,53.26,49,55.08,53.12,54.78z M41.89,11.16
		c1.55-2.35,3.91-3.66,7.01-3.88c3.16-0.23,5.61,0.51,7.49,2.25c1.26,1.17,2.2,2.75,2.9,4.59l-1.35,1.08l-1.55-1.77
		c-0.24-0.27-0.58-0.43-0.94-0.44c-0.36-0.01-0.71,0.14-0.96,0.4l-1.9,1.99l-1.96-1.31c-0.52-0.35-1.21-0.28-1.64,0.17l-1.64,1.68
		l-2.18-1.83c-0.26-0.22-0.61-0.33-0.95-0.29c-0.34,0.03-0.66,0.2-0.88,0.47l-1.46,1.81l-1.74-0.53
		C40.48,13.93,41.05,12.43,41.89,11.16z M58.86,21.82c-0.59-0.35-1.36-0.17-1.73,0.41l-1.18,1.82l-1.91-1.5
		c-0.49-0.39-1.2-0.36-1.66,0.06l-1.76,1.59l-1.97-1.5c-0.53-0.41-1.29-0.34-1.74,0.17l-1.81,2.04l-1.38-1.28
		c-0.39-0.36-0.95-0.44-1.43-0.22l-2.3,1.08c-0.3-2.13-0.4-4.3-0.23-6.36l2.2,0.67c0.5,0.15,1.05-0.02,1.38-0.42l1.18-1.47
		l2.09,1.75c0.52,0.43,1.28,0.39,1.75-0.09l1.73-1.77l1.97,1.32c0.52,0.35,1.22,0.27,1.65-0.18l1.67-1.76l1.43,1.63
		c0.28,0.32,0.67,0.46,1.06,0.44c0.25-0.02,0.5-0.11,0.71-0.28l1.52-1.22c0.49,1.99,0.79,4.15,0.97,6.35L58.86,21.82z"/>
	<path class="st0" d="M61.76,55.65L44.63,56.9c-0.71,0.05-1.24,0.67-1.19,1.38c0.05,0.71,0.67,1.24,1.38,1.19l17.14-1.25
		c0.71-0.05,1.24-0.67,1.19-1.38C63.09,56.13,62.47,55.6,61.76,55.65z"/>
	<path class="st0" d="M47.67,35.12c-0.47,0.54-0.41,1.35,0.13,1.82l1.57,1.36l-1.36,1.57c-0.46,0.54-0.41,1.35,0.13,1.82
		c0.27,0.23,0.61,0.34,0.94,0.31c0.33-0.02,0.65-0.17,0.88-0.44l1.36-1.57l1.57,1.36c0.27,0.23,0.61,0.34,0.94,0.31
		c0.33-0.02,0.65-0.17,0.88-0.44c0.47-0.54,0.41-1.35-0.13-1.82L53,38.03l1.36-1.57c0.47-0.54,0.41-1.35-0.13-1.82
		c-0.54-0.47-1.35-0.41-1.82,0.13l-1.36,1.57l-1.57-1.36C48.94,34.53,48.13,34.58,47.67,35.12z"/>
	<path class="st0" d="M56.31,39.28c0.81-0.06,1.43-0.77,1.37-1.58c-0.06-0.81-0.77-1.43-1.58-1.37c-0.81,0.06-1.43,0.77-1.37,1.58
		C54.79,38.72,55.5,39.33,56.31,39.28z"/>
	<path class="st0" d="M46.09,37.05c-0.81,0.06-1.43,0.77-1.37,1.58c0.06,0.81,0.77,1.43,1.58,1.37c0.81-0.06,1.43-0.77,1.37-1.58
		C47.62,37.61,46.91,36.99,46.09,37.05z"/>
	<path class="st0" d="M51.44,41.71c-0.82,0.06-1.43,0.77-1.37,1.58c0.06,0.81,0.77,1.43,1.58,1.37c0.82-0.06,1.43-0.77,1.37-1.58
		C52.97,42.26,52.26,41.65,51.44,41.71z"/>
	<path class="st0" d="M50.93,34.62c0.81-0.06,1.43-0.77,1.37-1.58c-0.06-0.81-0.77-1.43-1.58-1.37c-0.82,0.06-1.43,0.77-1.37,1.58
		C49.4,34.07,50.11,34.68,50.93,34.62z"/>
</g>
</svg>
