<?xml version="1.0" encoding="utf-8"?>
<!-- Generator: Adobe Illustrator 24.0.2, SVG Export Plug-In . SVG Version: 6.00 Build 0)  -->
<svg version="1.1" id="Capa_1" xmlns="http://www.w3.org/2000/svg" xmlns:xlink="http://www.w3.org/1999/xlink" x="0px" y="0px"
	 viewBox="0 0 64 64" style="enable-background:new 0 0 64 64;" xml:space="preserve">
<style type="text/css">
	.st0{fill:#4E4E4E;}
</style>
<g>
	<path class="st0" d="M61.82,11.07l-1.81-0.89l0.75-2.09c0.24-0.67-0.11-1.4-0.77-1.64c-0.67-0.24-1.4,0.11-1.64,0.78l-0.9,2.52
		l-18.06,4.83l4.16-7.44c0.35-0.62,0.13-1.4-0.49-1.75c-0.62-0.35-1.4-0.13-1.75,0.49l-5.34,9.54c-0.01,0.02-0.02,0.05-0.03,0.07
		l-11.43,3.06l4.13-7.38c0.35-0.62,0.13-1.4-0.49-1.75c-0.62-0.35-1.4-0.13-1.75,0.49l-5.34,9.54c0,0,0,0.01-0.01,0.02L9.63,22.53
		l4.15-7.41c0.35-0.62,0.13-1.4-0.49-1.75c-0.62-0.35-1.4-0.13-1.75,0.49L6.19,23.4c-0.01,0.02-0.01,0.03-0.02,0.05l-3.95,1.06
		c-0.69,0.18-1.09,0.89-0.91,1.57c0.15,0.57,0.67,0.95,1.24,0.95c0.11,0,0.22-0.01,0.33-0.04l14.17-3.79v11.79
		c0,0.71,0.57,1.28,1.28,1.28s1.28-0.58,1.28-1.28V22.51l5.63-1.5c0.06,0.05,0.12,0.1,0.18,0.13l9.39,5.6
		c0.21,0.12,0.43,0.18,0.66,0.18c0.44,0,0.86-0.22,1.1-0.63c0.36-0.61,0.16-1.4-0.44-1.76l-7.46-4.45l10.89-2.91v8.19
		c0,0.71,0.57,1.28,1.28,1.28c0.71,0,1.28-0.57,1.28-1.28V16.5l2.29-0.61l8.98,5.36c0.21,0.12,0.43,0.18,0.66,0.18
		c0.44,0,0.86-0.22,1.1-0.63c0.36-0.61,0.16-1.4-0.44-1.76l-6.83-4.08l10.38-2.77l2.43,1.19c0.18,0.09,0.37,0.13,0.56,0.13
		c0.47,0,0.93-0.26,1.15-0.72C62.72,12.15,62.45,11.38,61.82,11.07z"/>
	<path class="st0" d="M18.84,43.11c-4.63,0-8.39,3.77-8.39,8.39s3.77,8.39,8.39,8.39s8.39-3.77,8.39-8.39S23.47,43.11,18.84,43.11z
		 M18.84,57.33c-3.21,0-5.83-2.61-5.83-5.83c0-3.21,2.61-5.83,5.83-5.83c3.21,0,5.83,2.61,5.83,5.83
		C24.67,54.71,22.05,57.33,18.84,57.33z"/>
	<path class="st0" d="M18.12,47.06c-1.15,0-2.13,0.39-2.84,1.12c-1.25,1.29-1.24,3.15-1.23,3.36c0.02,0.7,0.59,1.24,1.28,1.24
		c0.01,0,0.02,0,0.03,0c0.7-0.01,1.27-0.6,1.26-1.3c0-0.27,0.08-1.08,0.51-1.51c0.14-0.15,0.4-0.34,1-0.34
		c0.71,0,1.28-0.58,1.28-1.28C19.4,47.63,18.83,47.06,18.12,47.06z"/>
	<path class="st0" d="M19.17,42.38c0.71,0,1.28-0.57,1.28-1.28v-1.62c0-1.17-0.95-2.12-2.12-2.12c-1.17,0-2.12,0.95-2.12,2.12v1.62
		c0,0.71,0.57,1.28,1.28,1.28H19.17z"/>
	<path class="st0" d="M40.85,35.62c-6.11,0-11.08,4.97-11.08,11.08c0,6.11,4.97,11.08,11.08,11.08c6.11,0,11.08-4.97,11.08-11.08
		C51.93,40.59,46.96,35.62,40.85,35.62z M40.85,55.21c-4.69,0-8.51-3.82-8.51-8.51c0-4.69,3.82-8.51,8.51-8.51s8.51,3.82,8.51,8.51
		C49.37,51.39,45.55,55.21,40.85,55.21z"/>
	<path class="st0" d="M39.86,41.06c-1.44,0-2.68,0.48-3.57,1.4c-1.58,1.63-1.56,4.01-1.56,4.27c0.02,0.7,0.59,1.25,1.28,1.25
		c0.01,0,0.02,0,0.04,0c0.71-0.02,1.27-0.61,1.25-1.32c0-0.02,0-1.55,0.83-2.41c0.41-0.42,0.97-0.62,1.73-0.62
		c0.71,0,1.28-0.57,1.28-1.28C41.14,41.63,40.57,41.06,39.86,41.06z"/>
	<path class="st0" d="M42,33.65c0.71,0,1.28-0.57,1.28-1.28v-2.24c0-1.34-1.09-2.43-2.43-2.43c-1.34,0-2.43,1.09-2.43,2.43v2.24
		c0,0.71,0.57,1.28,1.28,1.28H42z"/>
</g>
</svg>
