<?xml version="1.0" encoding="utf-8"?>
<!-- Generator: Adobe Illustrator 24.0.2, SVG Export Plug-In . SVG Version: 6.00 Build 0)  -->
<svg version="1.1" id="Capa_1" xmlns="http://www.w3.org/2000/svg" xmlns:xlink="http://www.w3.org/1999/xlink" x="0px" y="0px"
	 viewBox="0 0 64 64" style="enable-background:new 0 0 64 64;" xml:space="preserve">
<style type="text/css">
	.st0{fill:#4E4E4E;}
</style>
<g>
	<path class="st0" d="M42.28,28.25H21.72c-3.7,0-6.7,3.01-6.7,6.7v17.11c0,3.7,3.01,6.7,6.7,6.7h20.55c3.7,0,6.7-3.01,6.7-6.7V34.95
		C48.98,31.25,45.97,28.25,42.28,28.25z M46.25,52.07c0,2.19-1.78,3.97-3.97,3.97h-3.71c1.45-5.54-4.55-14.07-5.29-15.09
		c-0.34-0.46-0.93-0.67-1.47-0.51c-0.55,0.15-0.95,0.64-0.99,1.21C30.22,49.06,26.8,51.87,26.64,52c-0.59,0.46-0.7,1.31-0.25,1.91
		c0.46,0.6,1.32,0.71,1.91,0.26c0.16-0.12,3.29-2.59,4.68-8.64c2.1,3.64,3.92,8.21,2.71,10.47c-0.01,0.02-0.01,0.03-0.02,0.05h-2.65
		c0.07-0.41,0.37-1.33,1.55-2.92c0.45-0.61,0.32-1.46-0.29-1.91c-0.61-0.45-1.46-0.32-1.91,0.29c-1.57,2.13-2.04,3.6-2.1,4.55h-8.55
		c-2.19,0-3.97-1.78-3.97-3.97V34.95c0-2.19,1.78-3.97,3.97-3.97h20.55c2.19,0,3.97,1.78,3.97,3.97V52.07z"/>
	<path class="st0" d="M48.8,61.27H15.2c-0.75,0-1.36,0.61-1.36,1.36c0,0.75,0.61,1.36,1.36,1.36h33.6c0.75,0,1.36-0.61,1.36-1.36
		C50.16,61.88,49.55,61.27,48.8,61.27z"/>
	<path class="st0" d="M15.2,25.71h2.27h0h0h29.63h0h0h1.69c0.75,0,1.36-0.61,1.36-1.36c0-0.75-0.61-1.36-1.36-1.36h-1.04
		l-9.34-11.49V1.36C38.41,0.61,37.8,0,37.05,0h-9.51c-0.75,0-1.36,0.61-1.36,1.36v10.13l-9.34,11.49H15.2
		c-0.75,0-1.36,0.61-1.36,1.36C13.84,25.1,14.45,25.71,15.2,25.71z M28.6,12.84c0.2-0.24,0.31-0.55,0.31-0.86V2.73h6.78v9.25
		c0,0.31,0.11,0.62,0.31,0.86l8.25,10.14H20.35L28.6,12.84z"/>
	<path class="st0" d="M33.16,35.6h-2.38c-7.36,0-9.69,5.96-9.89,9.11c0,0.03,0,0.06,0,0.09v7.83c0,0.75,0.61,1.36,1.36,1.36
		s1.36-0.61,1.36-1.36v-7.78c0.05-0.59,0.69-6.51,7.17-6.51h2.38c6.4,0,7.1,5.7,7.17,6.51v7.78c0,0.75,0.61,1.36,1.36,1.36
		c0.75,0,1.36-0.61,1.36-1.36v-7.83c0-0.03,0-0.06,0-0.09C42.85,41.55,40.53,35.6,33.16,35.6z"/>
</g>
</svg>
