<?xml version="1.0" encoding="utf-8"?>
<!-- Generator: Adobe Illustrator 24.0.2, SVG Export Plug-In . SVG Version: 6.00 Build 0)  -->
<svg version="1.1" id="Capa_1" xmlns="http://www.w3.org/2000/svg" xmlns:xlink="http://www.w3.org/1999/xlink" x="0px" y="0px"
	 viewBox="0 0 64 64" style="enable-background:new 0 0 64 64;" xml:space="preserve">
<style type="text/css">
	.st0{fill:#4E4E4E;}
</style>
<path class="st0" d="M61.59,36.22c-3.84,0-5.93-1.96-8.06-4.4c2.13-2.45,4.22-4.41,8.06-4.41c0.78,0,1.41-0.63,1.41-1.41
	c0-0.78-0.63-1.41-1.41-1.41c-4.84,0-7.63,2.49-9.92,5.07c-2.29-2.58-5.09-5.07-9.92-5.07c-0.42,0-0.82,0.02-1.21,0.06l5.84-5.84
	l5.33,5.33c0.28,0.28,0.64,0.41,1,0.41c0.36,0,0.72-0.14,1-0.41c0.55-0.55,0.55-1.45,0-2l-5.33-5.33l5.87-5.87
	c0.55-0.55,0.55-1.45,0-2s-1.45-0.55-2,0l-5.87,5.87l-5.33-5.33c-0.55-0.55-1.45-0.55-2,0c-0.55,0.55-0.55,1.45,0,2l5.33,5.33
	l-5.33,5.33c0-0.08,0.01-0.16,0.01-0.25c0-4.84-2.49-7.63-5.07-9.92c2.58-2.29,5.07-5.09,5.07-9.92c0-0.78-0.63-1.41-1.41-1.41
	c-0.78,0-1.41,0.63-1.41,1.41c0,3.84-1.96,5.93-4.4,8.06c-2.45-2.13-4.41-4.22-4.41-8.06c0-0.78-0.63-1.41-1.41-1.41
	s-1.41,0.63-1.41,1.41c0,4.84,2.49,7.63,5.07,9.92c-2.58,2.29-5.07,5.09-5.07,9.92c0,0.14,0.01,0.27,0.01,0.4l-5.49-5.49l5.33-5.33
	c0.55-0.55,0.55-1.45,0-2c-0.55-0.55-1.45-0.55-2,0l-5.33,5.33l-5.87-5.87c-0.55-0.55-1.45-0.55-2,0c-0.55,0.55-0.55,1.45,0,2
	l5.87,5.87l-5.33,5.33c-0.55,0.55-0.55,1.45,0,2c0.28,0.28,0.64,0.41,1,0.41c0.36,0,0.72-0.14,1-0.41l5.33-5.33l5.82,5.82
	c-0.34-0.03-0.68-0.04-1.04-0.04c-4.84,0-7.63,2.49-9.92,5.07c-2.29-2.58-5.09-5.07-9.92-5.07c-0.78,0-1.41,0.63-1.41,1.41
	c0,0.78,0.63,1.41,1.41,1.41c3.84,0,5.93,1.96,8.06,4.41c-2.13,2.45-4.22,4.4-8.06,4.4c-0.78,0-1.41,0.63-1.41,1.41
	s0.63,1.41,1.41,1.41c4.84,0,7.63-2.49,9.92-5.07c2.29,2.58,5.09,5.07,9.92,5.07c0.09,0,0.16-0.01,0.25-0.01l-5.03,5.03l-5.33-5.33
	c-0.55-0.55-1.45-0.55-2,0c-0.55,0.55-0.55,1.45,0,2l5.33,5.33l-5.87,5.87c-0.55,0.55-0.55,1.45,0,2c0.28,0.28,0.64,0.41,1,0.41
	c0.36,0,0.72-0.14,1-0.41l5.87-5.87l5.33,5.33c0.28,0.28,0.64,0.41,1,0.41c0.36,0,0.72-0.14,1-0.41c0.55-0.55,0.55-1.45,0-2
	l-5.33-5.33l5.54-5.54c-0.04,0.39-0.06,0.79-0.06,1.21c0,4.84,2.49,7.63,5.07,9.92c-2.58,2.29-5.07,5.09-5.07,9.92
	c0,0.78,0.63,1.41,1.41,1.41s1.41-0.63,1.41-1.41c0-3.84,1.96-5.93,4.41-8.06c2.45,2.13,4.4,4.22,4.4,8.06
	c0,0.78,0.63,1.41,1.41,1.41c0.78,0,1.41-0.63,1.41-1.41c0-4.84-2.49-7.63-5.07-9.92c2.58-2.29,5.07-5.09,5.07-9.92
	c0-0.36-0.01-0.71-0.04-1.04l5.37,5.37l-5.33,5.33c-0.55,0.55-0.55,1.45,0,2c0.28,0.28,0.64,0.41,1,0.41c0.36,0,0.72-0.14,1-0.41
	l5.33-5.33l5.87,5.87c0.28,0.28,0.64,0.41,1,0.41c0.36,0,0.72-0.14,1-0.41c0.55-0.55,0.55-1.45,0-2l-5.87-5.87l5.33-5.33
	c0.55-0.55,0.55-1.45,0-2c-0.55-0.55-1.45-0.55-2,0l-5.33,5.33l-5.04-5.04c0.14,0,0.27,0.02,0.4,0.02c4.84,0,7.63-2.49,9.92-5.07
	c2.29,2.58,5.09,5.07,9.92,5.07c0.78,0,1.41-0.63,1.41-1.41S62.37,36.22,61.59,36.22z M27.41,21.9c0-3.84,1.96-5.93,4.41-8.06
	c2.45,2.13,4.4,4.22,4.4,8.06c0,1.57-0.33,2.84-0.88,3.95l-3.6,3.6l-3.28-3.28C27.81,24.98,27.41,23.62,27.41,21.9z M21.89,36.22
	c-3.84,0-5.93-1.96-8.06-4.4c2.13-2.45,4.22-4.41,8.06-4.41c2.1,0,3.67,0.59,5.02,1.52c0.77,1.03,1.67,1.92,2.59,2.75l-3.66,3.66
	C24.73,35.89,23.46,36.22,21.89,36.22z M31.82,49.8c-2.45-2.13-4.41-4.22-4.41-8.06c0-2.1,0.59-3.68,1.52-5.02
	c1.09-0.82,2.02-1.77,2.88-2.74c0.86,0.97,1.8,1.92,2.88,2.74c0.93,1.35,1.52,2.92,1.52,5.03C36.22,45.58,34.27,47.67,31.82,49.8z
	 M41.74,36.22c-1.72,0-3.09-0.4-4.27-1.05l-3.42-3.42c0.94-0.84,1.87-1.76,2.67-2.81c1.35-0.93,2.92-1.52,5.02-1.52
	c3.84,0,5.93,1.96,8.06,4.41C47.67,34.27,45.58,36.22,41.74,36.22z"/>
</svg>
