<?xml version="1.0" standalone="no"?>
<!DOCTYPE svg PUBLIC "-//W3C//DTD SVG 1.1//EN" "http://www.w3.org/Graphics/SVG/1.1/DTD/svg11.dtd" >
<svg xmlns="http://www.w3.org/2000/svg">
<metadata>Generated by IcoMoon</metadata>
<defs>
<font id="icomoon" horiz-adv-x="1024">
<font-face units-per-em="1024" ascent="960" descent="-64" />
<missing-glyph horiz-adv-x="1024" />
<glyph unicode="&#x20;" horiz-adv-x="512" d="" />
<glyph unicode="&#xe900;" glyph-name="glyph0" d="M1016 928h-48c0-243.36-191.68-442.88-432-455.36v455.36h-48v-455.36c-240.32 12.48-432 212-432 455.36h-48c0-269.92 213.12-490.88 480-503.36v-456.64h48v456.64c266.88 12.48 480 233.44 480 503.36z" />
<glyph unicode="&#xe901;" glyph-name="glyph1" d="M512 952c-277.92 0-504-226.080-504-504s226.080-504 504-504 504 226.080 504 504c0 277.92-226.080 504-504 504zM968 448c0-76.16-18.88-148.16-52.16-211.36l-379.84 219.36 373.28 215.52c37.28-66.080 58.72-142.4 58.72-223.52zM892.48 698.88l-372.48-215.2v420.16c155.52-2.72 292.32-83.68 372.48-204.96zM488 903.36v-419.68l-360.96 208.32c76.96 120.96 209.28 203.52 360.96 211.36zM110.72 664.48l361.28-208.48-367.52-212.16c-30.88 61.44-48.48 130.72-48.48 204.16 0 78.24 19.84 152.16 54.72 216.48zM119.84 215.68l368.16 212.64v-435.68c-156.64 8.16-292.48 95.68-368.16 223.040zM520-7.84v436.16l380-219.36c-79.040-128-219.52-213.92-380-216.8z" />
<glyph unicode="&#xe902;" glyph-name="glyph2" d="M512.32 389.44c52 0 94.24-42.24 94.24-94.24s-42.24-94.24-94.24-94.24-94.24 42.24-94.24 94.24 42.24 94.24 94.24 94.24zM512.32 891.2l-511.68-886.4h1023.36l-511.68 886.4zM512.32 796.96l430.080-744.96h-860.16l430.080 744.96z" />
<glyph unicode="&#xe903;" glyph-name="glyph3" d="M40 920v-944h944v944h-944zM645.28 872v-848h-266.56v848h266.56zM88 872h258.72v-848h-258.72v848zM936 24h-258.72v848h258.72v-848z" />
<glyph unicode="&#xe904;" glyph-name="glyph4" d="M912 675.2l-24 41.6-376-217.12-376 217.12-24-41.6 352-203.2-352-203.2 24-41.6 352 203.2v-406.4h48v406.4l352-203.2 24 41.6-352 203.2 352 203.2zM512 872c52.96 0 96-43.040 96-96s-43.040-96-96-96-96 43.040-96 96 43.040 96 96 96z" />
<glyph unicode="&#xe905;" glyph-name="glyph5" d="M512 952c-277.92 0-504-226.080-504-504s226.080-504 504-504 504 226.080 504 504-226.080 504-504 504zM512-8c-251.36 0-456 204.64-456 456s204.64 456 456 456 456-204.64 456-456-204.64-456-456-456zM512 736c-163.2 0-296-132.8-296-296s132.8-296 296-296 296 132.8 296 296-132.8 296-296 296zM512 176c-145.6 0-264 118.4-264 264s118.4 264 264 264c145.6 0 264-118.4 264-264s-118.4-264-264-264z" />
<glyph unicode="&#xe906;" glyph-name="glyph6" d="M511.52 892.8l-512.32-887.36h1024.8l-512.48 887.36zM733.6 414.080l208.8-361.6h-419.040v361.6h210.24zM715.52 445.44h-407.84l203.84 353.12 204-353.12zM289.6 414.080h202.4v-361.6h-411.2l208.8 361.6z" />
<glyph unicode="&#xe907;" glyph-name="glyph7" d="M416 448c0 52.96 43.040 96 96 96s96-43.040 96-96-43.040-96-96-96-96 43.040-96 96zM984 920v-944h-944v944h944zM936 872h-848v-848h848v848z" />
<glyph unicode="&#xe908;" glyph-name="glyph8" d="M943.040 291.36l33.92 33.92-279.040 279.040 279.040 279.040-33.92 33.92-279.040-279.040-152 152-152-152-279.040 279.040-33.92-33.92 279.040-279.040-279.040-279.040 33.92-33.92 279.040 279.040 118.080-118.080-431.040-431.040 33.92-33.92 431.040 431.040 431.040-431.040 33.92 33.92-431.040 431.040 118.080 118.080 279.040-279.040zM512 486.24l-118.080 118.080 118.080 118.080 118.080-118.080-118.080-118.080z" />
<glyph unicode="&#xe909;" glyph-name="glyph9" d="M512 952c-277.92 0-504-226.080-504-504s226.080-504 504-504c277.92 0 504 226.080 504 504s-226.080 504-504 504zM520-7.84v463.84h-32v-463.36c-240.32 12.48-432 212-432 455.36 0 251.36 204.48 456 456 456 251.36 0 456-204.64 456-456 0-248.8-200.32-451.52-448-455.84zM721.28 649.28c115.36-115.36 115.36-303.2 0-418.56l-22.56 22.56c102.88 102.88 102.88 270.4 0 373.28-49.92 49.92-116.16 77.44-186.72 77.44s-136.8-27.52-186.72-77.28c-49.92-49.92-77.28-116.16-77.28-186.72s27.52-136.8 77.28-186.72l-22.56-22.56c-55.84 55.84-86.72 130.24-86.72 209.28s30.72 153.44 86.72 209.28c55.84 56 130.24 86.72 209.28 86.72s153.44-30.72 209.28-86.72z" />
<glyph unicode="&#xe90a;" glyph-name="glyph10" d="M512 876.16l-511.36-885.76h1022.88l-511.52 885.76zM512 782.080l429.92-744.64h-190.080l-239.84 415.2-239.84-415.2h-190.080l429.92 744.64zM715.52 37.44h-407.040l203.52 352.48 203.52-352.48z" />
<glyph unicode="&#xe90b;" glyph-name="glyph11" d="M40 920v-944h944v944h-944zM936 460h-404v412h404v-412zM88 872h412v-848h-412v848zM532 24v404h404v-404h-404z" />
<glyph unicode="&#xe90c;" glyph-name="glyph12" d="M416.96 812c0 52.96 43.040 96 96 96s96-43.040 96-96-43.040-96-96-96-96 43.040-96 96zM885.76 36l-373.76 647.36-373.76-647.36h-106.24v-48h133.92l346.080 599.36 346.080-599.36h133.92v48h-106.24z" />
<glyph unicode="&#xe90d;" glyph-name="glyph13" d="M512 952c-277.92 0-504-226.080-504-504s226.080-504 504-504c277.92 0 504 226.080 504 504s-226.080 504-504 504zM512-8c-251.52 0-456 204.64-456 456s204.48 456 456 456c251.36 0 456-204.64 456-456s-204.48-456-456-456zM608 696c0-52.96-43.040-96-96-96s-96 43.040-96 96 43.040 96 96 96 96-43.040 96-96zM608 200c0-52.96-43.040-96-96-96s-96 43.040-96 96 43.040 96 96 96 96-43.040 96-96zM360 448c0-52.96-43.040-96-96-96s-96 43.040-96 96 43.040 96 96 96 96-43.040 96-96zM856 448c0-52.96-43.040-96-96-96s-96 43.040-96 96 43.040 96 96 96 96-43.040 96-96z" />
<glyph unicode="&#xe90e;" glyph-name="glyph14" d="M516.64 0.8h507.68l-512.32 887.2-512.16-887.2h516.8zM543.84 47.84l199.36 345.28 199.36-345.28h-398.72zM725.12 424.64l-213.12-368.96-213.12 368.96 213.12 369.12 213.12-369.12zM81.44 47.84l199.36 345.28 199.36-345.28h-398.72z" />
<glyph unicode="&#xe90f;" glyph-name="glyph15" d="M40 920v-944h944v944h-944zM936 438.56l-414.56-414.56h-402.88l817.44 817.44v-402.88zM88 441.44l430.56 430.56h402.72l-833.28-833.44v402.88zM473.44 872l-385.44-385.44v385.44h385.44zM566.56 24l369.44 369.44v-369.44h-369.44z" />
<glyph unicode="&#xe910;" glyph-name="glyph16" d="M1012.8 851.68l-41.6 24-219.2-379.68-240 415.68-240-415.68-219.2 379.68-41.6-24 233.12-403.68-233.12-403.68 41.6-24 219.2 379.68 240-415.68 240 415.68 219.2-379.68 41.6 24-233.12 403.68 233.12 403.68zM512 80.32l-212.32 367.68 212.32 367.68 212.32-367.68-212.32-367.68z" />
<glyph unicode="&#xe911;" glyph-name="glyph17" d="M512 952c-277.92 0-504-226.080-504-504s226.080-504 504-504c277.92 0 504 226.080 504 504s-226.080 504-504 504zM56 448c0 243.36 191.68 442.88 432 455.36v-910.72c-240.32 12.48-432 212-432 455.36zM520-7.84v911.68c247.68-4.32 448-207.040 448-455.84s-200.32-451.52-448-455.84z" />
<glyph unicode="&#xe912;" glyph-name="glyph18" d="M1024 4.64l-231.2 400.48h192.32v47.040h-219.52l-253.6 439.2-253.6-439.2h-215.68v-47.040h188.48l-231.2-400.48h1024zM512 797.12l199.2-344.96h-398.4l199.2 344.96zM738.4 405.12l204-353.44h-860.8l204 353.44h452.8z" />
<glyph unicode="&#xe913;" glyph-name="glyph19" d="M40 920v-944h944v944h-944zM516 421.44l397.44-397.44h-794.88l397.44 397.44zM538.56 444l397.44 397.44v-794.72l-397.44 397.28zM921.44 872l-833.44-833.44v833.44h833.44z" />
<glyph unicode="&#xe914;" glyph-name="glyph20" d="M648 680c0 52.96 43.040 96 96 96s96-43.040 96-96-43.040-96-96-96-96 43.040-96 96zM88 472v424h-48v-472h448v-424h48v424h400v-424h48v472h-896z" />
<glyph unicode="&#xe915;" glyph-name="glyph21" d="M512 952c-277.92 0-504-226.080-504-504s226.080-504 504-504c277.92 0 504 226.080 504 504s-226.080 504-504 504zM56.48 432h911.2c-2.56-75.36-23.52-146.080-58.56-208h-794.080c-35.040 61.92-56 132.64-58.56 208zM56.48 464c2.56 75.36 23.52 146.080 58.56 208h793.92c35.040-61.92 56-132.64 58.56-208h-911.040zM512 904c156.64 0 295.040-79.36 377.12-200h-754.24c82.080 120.64 220.48 200 377.12 200zM512-8c-156.64 0-295.040 79.36-377.12 200h754.24c-82.080-120.64-220.48-200-377.12-200z" />
<glyph unicode="&#xe916;" glyph-name="glyph22" d="M512 892l-511.68-886.24h1023.2l-511.52 886.24zM942.080 52.96h-268.64l-295.68 512.16 134.24 232.64 430.080-744.8zM637.28 52.96h-277.76l-138.72 240.32 138.88 240.48 277.6-480.8zM202.72 261.92l120.64-209.12h-241.44l120.8 209.12z" />
<glyph unicode="&#xe917;" glyph-name="glyph23" d="M40 920v-944h944v944h-944zM936 24h-848v848h848v-848zM496 432h-136v32h136v136h32v-136h136v-32h-136v-136h-32v136z" />
</font>
</defs>
</svg>
