<?xml version="1.0" encoding="utf-8"?>
<!-- Generator: Adobe Illustrator 24.0.2, SVG Export Plug-In . SVG Version: 6.00 Build 0)  -->
<svg version="1.1" id="Capa_1" xmlns="http://www.w3.org/2000/svg" xmlns:xlink="http://www.w3.org/1999/xlink" x="0px" y="0px"
	 viewBox="0 0 196 64" style="enable-background:new 0 0 196 64;" xml:space="preserve">
<style type="text/css">
	.st0{fill:#FFFFFF;}
</style>
<path class="st0" d="M2.01,51.52C1.26,2.88,54.1-1.96,64.28,1.02c-15.76,11.34-7.24,20.96-31.13,27.4
	c4.14,2.61,10.35,0.35,10.35,0.35C38.67,42.16,25.83,47.06,19.7,46.94c0.8,2.18,6.34,3.56,6.34,3.56C14.72,52.75,6.18,55.49,4.07,59
	c6.19-21.01,18.53-37.63,32.96-46.07C18.94,17.5,8.12,33.24,2.01,51.52z"/>
<g>
	<path class="st0" d="M83.04,30.88c0.83,0,1.48,0.29,1.96,0.87c0.48,0.58,0.72,1.38,0.72,2.4c0,0.26-0.02,0.52-0.05,0.79
		c-0.03,0.27-0.08,0.5-0.14,0.7c-0.67-0.18-1.4-0.28-2.2-0.28c-0.19,1.39-0.7,2.85-1.53,4.38c-0.83,1.53-1.83,2.97-3.01,4.31
		c-1.18,1.34-2.47,2.52-3.87,3.53c-1.4,1.01-2.78,1.69-4.15,2.03c-4.26,0-7.37-1.06-9.33-3.18s-2.93-5.43-2.93-9.92
		c0-3.28,0.6-6.46,1.81-9.54c1.21-3.08,2.82-5.81,4.82-8.2c2-2.39,4.3-4.31,6.9-5.76c2.59-1.45,5.29-2.18,8.09-2.18
		c2.2,0,3.9,0.46,5.13,1.38c1.22,0.92,1.84,2.23,1.84,3.91c0,1.11-0.26,2.15-0.79,3.1c-0.52,0.95-1.39,1.99-2.6,3.1
		c-0.73-0.22-1.37-0.61-1.91-1.17c-0.54-0.56-0.88-1.2-1-1.93c1.08-0.79,1.84-1.53,2.29-2.2c0.44-0.67,0.67-1.46,0.67-2.39
		c0-1.46-0.88-2.2-2.62-2.2c-1.43,0-2.97,0.53-4.61,1.6c-1.64,1.07-3.29,2.6-4.94,4.61c-2.35,2.83-4.07,5.76-5.15,8.77
		s-1.62,6.39-1.62,10.15c0,1.4,0.14,2.67,0.43,3.82c0.29,1.15,0.67,2.15,1.15,3.01c0.48,0.86,1.04,1.54,1.69,2.05
		c0.65,0.51,1.36,0.8,2.12,0.86c1.02-0.22,2.04-0.74,3.05-1.55c1.02-0.81,1.95-1.77,2.79-2.86c0.84-1.1,1.56-2.28,2.15-3.53
		c0.59-1.26,0.95-2.46,1.07-3.6c-0.89,0.19-1.74,0.37-2.55,0.54c-0.81,0.17-1.58,0.26-2.31,0.26c-0.95,0-1.79-0.24-2.51-0.71
		c-0.72-0.48-1.2-1.13-1.46-1.96c0.57-0.32,1.41-0.66,2.5-1.01c1.1-0.35,2.27-0.68,3.51-0.99c1.24-0.3,2.46-0.55,3.65-0.75
		C81.29,30.98,82.27,30.88,83.04,30.88z"/>
	<path class="st0" d="M87.38,43c0-1.4,0.33-3.36,1-5.89s1.61-5.48,2.82-8.85c1.97-5.38,3.83-9.85,5.56-13.43s3.43-6.37,5.08-8.37
		c0.38,0.06,0.85,0.22,1.41,0.48c0.56,0.26,1.11,0.53,1.65,0.84c0.54,0.3,1.03,0.61,1.46,0.93c0.43,0.32,0.71,0.57,0.83,0.76
		c-2.48,2.93-4.66,6.08-6.54,9.45c-1.88,3.37-3.6,7.24-5.15,11.6c-1.34,3.75-2.35,7.13-3.05,10.14c-0.7,3.01-1.05,5.51-1.05,7.52
		c0,0.54,0,0.87,0,1c0,0.13,0.02,0.25,0.05,0.38c-0.45-0.06-0.83-0.18-1.15-0.33c-0.32-0.16-0.52-0.35-0.62-0.57
		c-0.06-0.16-0.24-0.39-0.52-0.69c-0.29-0.3-0.54-0.53-0.76-0.69c-0.29-0.19-0.52-0.69-0.72-1.5C87.47,44.93,87.38,44.02,87.38,43z"
		/>
	<path class="st0" d="M111.67,45c-0.61-0.51-1.01-1.15-1.22-1.91c-0.21-0.76-0.31-1.42-0.31-1.96c0-0.67,0.08-1.24,0.24-1.72
		c-0.13,0-0.41,0.25-0.86,0.76c-0.45,0.51-0.93,1.11-1.46,1.81c-0.52,0.7-1.04,1.38-1.55,2.05c-0.51,0.67-0.89,1.16-1.14,1.47
		c-0.41,0.44-0.8,0.79-1.17,1.05c-0.37,0.25-0.66,0.4-0.88,0.43c-0.51,0-1.04-0.09-1.6-0.26c-0.56-0.18-1.08-0.43-1.57-0.74
		c-0.49-0.32-0.92-0.7-1.29-1.15c-0.37-0.45-0.61-0.96-0.74-1.54c0-0.89,0.02-1.62,0.07-2.2c0.05-0.57,0.15-1.19,0.31-1.86
		c0.29-1.21,0.71-2.58,1.26-4.1c0.56-1.53,1.2-3.03,1.93-4.51c0.73-1.48,1.55-2.86,2.46-4.15c0.91-1.29,1.87-2.3,2.89-3.03
		c0.29,0,0.62,0.02,1,0.07c0.38,0.05,0.77,0.14,1.17,0.26c0.4,0.13,0.78,0.28,1.14,0.45c0.37,0.18,0.68,0.41,0.93,0.69
		c-0.29,0.32-1.01,1.38-2.17,3.2c-1.16,1.81-2.46,4.42-3.89,7.83c-0.16,0.35-0.35,0.86-0.57,1.53c-0.22,0.67-0.45,1.37-0.67,2.1
		c-0.22,0.73-0.41,1.45-0.55,2.15c-0.14,0.7-0.21,1.26-0.21,1.67c0,0.26,0.04,0.45,0.12,0.57c0.08,0.13,0.15,0.22,0.21,0.29
		c0.48-0.19,1.08-0.72,1.81-1.57c0.73-0.86,1.75-2.18,3.05-3.96c0.32-0.45,0.69-0.95,1.12-1.53c0.43-0.57,0.87-1.18,1.31-1.84
		c0.45-0.65,0.87-1.33,1.26-2.03c0.4-0.7,0.72-1.4,0.98-2.1c0.13-0.38,0.29-0.83,0.5-1.36c0.21-0.52,0.46-1.07,0.76-1.65
		c0.3-0.57,0.65-1.15,1.05-1.74c0.4-0.59,0.87-1.14,1.41-1.65c0.41,0,0.86,0.05,1.34,0.14c0.48,0.1,0.93,0.21,1.36,0.36
		c0.43,0.14,0.8,0.3,1.12,0.48c0.32,0.18,0.56,0.36,0.72,0.55c-0.57,1.4-1.21,2.78-1.91,4.15c-0.7,1.37-1.35,2.71-1.96,4.03
		c-0.6,1.32-1.11,2.63-1.53,3.94c-0.41,1.3-0.62,2.58-0.62,3.82c0,0.67,0.06,1.25,0.17,1.74c0.11,0.49,0.23,0.91,0.36,1.24
		c0.13,0.33,0.25,0.61,0.36,0.83c0.11,0.22,0.17,0.41,0.17,0.57c0,0.03-0.03,0.08-0.1,0.14c-0.03,0.03-0.06,0.05-0.1,0.05
		c-0.22,0-0.51-0.05-0.86-0.14c-0.35-0.1-0.74-0.23-1.17-0.41c-0.43-0.18-0.86-0.37-1.29-0.6C112.45,45.5,112.05,45.26,111.67,45z"
		/>
	<path class="st0" d="M118.78,61.85c-0.45-0.13-0.7-0.6-0.76-1.43c-0.13-0.41-0.21-0.91-0.26-1.48c-0.05-0.57-0.07-1.22-0.07-1.96
		c0-0.67,0.11-1.58,0.33-2.74c0.22-1.16,0.53-2.47,0.93-3.94c0.4-1.46,0.88-3.05,1.46-4.75c0.57-1.7,1.21-3.43,1.91-5.18
		c0.86-2.2,1.61-4.1,2.24-5.7c0.64-1.61,1.17-3,1.6-4.18c0.43-1.18,0.78-2.15,1.05-2.91c0.27-0.76,0.48-1.42,0.64-1.96
		c0.13-0.38,0.32-0.84,0.57-1.38c0.25-0.54,0.55-1.09,0.88-1.65c0.33-0.56,0.68-1.08,1.03-1.57c0.35-0.49,0.67-0.87,0.95-1.12
		c1.11,0.16,2.16,0.45,3.15,0.86c0.99,0.41,1.59,0.81,1.81,1.19c-0.45,0.41-0.95,1.06-1.53,1.93c-0.57,0.88-1.13,1.83-1.67,2.86
		c-0.54,1.03-1.03,2.09-1.48,3.17c-0.45,1.08-0.78,2.04-1,2.86c0.32-0.54,0.73-1.13,1.24-1.77c0.51-0.64,1.29-1.51,2.34-2.62
		c1.18-1.21,2.28-2.14,3.32-2.79c1.03-0.65,1.93-0.98,2.7-0.98c1.21,0,2.2,0.33,2.98,1c0.78,0.67,1.17,1.53,1.17,2.58
		c0,2.29-0.38,4.56-1.15,6.8c-0.76,2.24-1.86,4.27-3.29,6.08c-0.54,0.7-1.18,1.37-1.91,2c-0.73,0.64-1.5,1.2-2.29,1.69
		c-0.8,0.49-1.57,0.88-2.34,1.17c-0.76,0.29-1.45,0.43-2.05,0.43c-0.57,0-1.07-0.12-1.5-0.36c-0.43-0.24-0.72-0.53-0.88-0.88
		c1.24-0.73,2.45-1.75,3.63-3.05c1.18-1.3,2.27-2.81,3.27-4.51c1-1.7,1.88-3.54,2.62-5.51c0.75-1.97,1.31-3.98,1.69-6.01
		c-1.21,0.64-2.3,1.33-3.27,2.08c-0.97,0.75-1.93,1.73-2.89,2.93c-1.14,1.4-2.05,2.53-2.72,3.39c-0.67,0.86-1.22,1.59-1.65,2.2
		c-0.43,0.6-0.78,1.17-1.05,1.69c-0.27,0.52-0.57,1.17-0.88,1.93c-0.45,1.02-0.96,2.36-1.55,4.03c-0.59,1.67-1.19,3.54-1.81,5.61
		c-0.62,2.07-1.24,4.27-1.86,6.61c-0.62,2.34-1.22,4.67-1.79,6.99c-0.35-0.06-0.65-0.32-0.91-0.76c-0.26-0.29-0.44-0.49-0.55-0.62
		C119.07,62.01,118.94,61.91,118.78,61.85z"/>
	<path class="st0" d="M145.98,45.24c0-1.11,0.11-2.43,0.33-3.94c0.22-1.51,0.55-3.13,0.98-4.84c0.43-1.72,0.94-3.51,1.53-5.39
		c0.59-1.88,1.25-3.75,1.98-5.63c0.64-1.69,1.38-3.39,2.22-5.11c0.84-1.72,1.76-3.4,2.74-5.06c0.99-1.65,2.01-3.23,3.08-4.72
		c1.07-1.5,2.14-2.86,3.22-4.1c0.51,0,1.06,0.06,1.65,0.19c0.59,0.13,1.16,0.29,1.72,0.5c0.56,0.21,1.07,0.45,1.53,0.74
		c0.46,0.29,0.84,0.57,1.12,0.86c-2.39,2.45-4.53,4.92-6.44,7.42c-1.91,2.5-3.42,4.84-4.53,7.04c-0.61,1.21-1.15,2.34-1.65,3.39
		c-0.49,1.05-0.95,2.09-1.36,3.13c-0.41,1.03-0.79,2.07-1.12,3.1c-0.33,1.03-0.64,2.12-0.93,3.27c6.11-7.79,10.64-11.69,13.6-11.69
		c0.83,0,1.72,0.27,2.67,0.81c0.95,0.54,1.8,1.27,2.53,2.2c-0.99,1.08-2,2.39-3.05,3.91c-1.05,1.53-2.01,3.06-2.89,4.61
		c-0.88,1.54-1.59,2.98-2.15,4.29c-0.56,1.32-0.83,2.3-0.83,2.93c0,0.32,0.05,0.53,0.14,0.64c0.1,0.11,0.3,0.17,0.62,0.17
		c0.48,0,0.86-0.06,1.14-0.19c0.29-0.13,0.46-0.19,0.52-0.19c0.16,0.26,0.25,0.43,0.29,0.52c0.03,0.1,0.05,0.18,0.05,0.24
		c0,0.13-0.19,0.31-0.57,0.55c-0.38,0.24-0.84,0.48-1.36,0.72c-0.52,0.24-1.04,0.45-1.55,0.64c-0.51,0.19-0.89,0.29-1.14,0.29
		c-0.32,0-0.64-0.09-0.95-0.26c-0.32-0.18-0.6-0.41-0.83-0.69c-0.24-0.29-0.43-0.6-0.57-0.95c-0.14-0.35-0.21-0.72-0.21-1.1
		c0-0.48,0.14-1.18,0.41-2.12c0.27-0.94,0.64-2.04,1.12-3.29c0.48-1.26,1.05-2.63,1.72-4.13c0.67-1.5,1.38-3.02,2.15-4.58
		c0-0.13-0.06-0.19-0.19-0.19c-0.1,0-0.34,0.13-0.74,0.38c-0.4,0.26-0.77,0.51-1.12,0.76c-1.14,0.86-2.3,1.92-3.46,3.17
		c-1.16,1.26-2.29,2.63-3.39,4.13c-1.1,1.5-2.13,3.08-3.1,4.75c-0.97,1.67-1.81,3.35-2.51,5.03c-0.1,0.22-0.24,0.43-0.43,0.62
		c-0.19,0.19-0.35,0.29-0.48,0.29c-0.1,0-0.23-0.11-0.41-0.33c-0.18-0.22-0.33-0.5-0.48-0.84c-0.14-0.33-0.28-0.68-0.41-1.03
		C146.04,45.8,145.98,45.5,145.98,45.24z"/>
	<path class="st0" d="M188.64,38.66c-0.73,2.32-1.46,4.44-2.19,6.35c-0.73,1.91-1.51,3.67-2.34,5.27c-0.83,1.61-1.72,3.09-2.67,4.44
		c-0.95,1.35-2,2.63-3.15,3.84c-1.46,1.53-2.97,2.7-4.53,3.51c-1.56,0.81-3.12,1.22-4.68,1.22c-0.8,0-1.58-0.09-2.36-0.26
		c-0.78-0.18-1.51-0.41-2.19-0.72c-0.68-0.3-1.29-0.65-1.81-1.05c-0.52-0.4-0.9-0.82-1.12-1.26c0-0.38,0.22-0.72,0.67-1
		c0.38,0.35,0.7,0.62,0.95,0.81c0.26,0.19,0.5,0.35,0.74,0.48c0.24,0.13,0.49,0.21,0.76,0.24c0.27,0.03,0.58,0.05,0.93,0.05
		c1.81,0,3.59-0.53,5.32-1.6c1.73-1.07,3.37-2.58,4.92-4.53c1.54-1.96,2.95-4.33,4.22-7.11c1.27-2.78,2.35-5.89,3.25-9.33
		c-0.41,0.64-0.92,1.41-1.53,2.33c-0.6,0.92-1.27,1.83-2,2.74c-0.73,0.9-1.49,1.72-2.27,2.45c-0.78,0.73-1.54,1.22-2.27,1.48
		c-0.51,0-1.04-0.09-1.6-0.26c-0.56-0.18-1.08-0.43-1.57-0.74c-0.49-0.32-0.93-0.7-1.31-1.15c-0.38-0.45-0.64-0.96-0.76-1.54
		c0-0.92,0.03-1.66,0.1-2.22c0.06-0.56,0.17-1.17,0.33-1.84c0.29-1.21,0.71-2.58,1.26-4.1c0.56-1.53,1.21-3.03,1.96-4.51
		c0.75-1.48,1.57-2.86,2.48-4.15c0.91-1.29,1.85-2.3,2.84-3.03c0.25,0,0.57,0.02,0.95,0.07c0.38,0.05,0.78,0.14,1.19,0.26
		c0.41,0.13,0.81,0.28,1.19,0.45c0.38,0.18,0.72,0.41,1,0.69c-0.35,0.32-1.11,1.38-2.29,3.2c-1.18,1.81-2.48,4.42-3.91,7.83
		c-0.16,0.35-0.35,0.86-0.57,1.53c-0.22,0.67-0.44,1.37-0.64,2.1c-0.21,0.73-0.39,1.45-0.55,2.15c-0.16,0.7-0.24,1.26-0.24,1.67
		c0,0.26,0.04,0.45,0.12,0.57c0.08,0.13,0.15,0.22,0.21,0.29c0.57-0.1,1.34-0.56,2.29-1.41c0.95-0.84,2.04-2.16,3.25-3.94
		c0.76-1.15,1.46-2.28,2.1-3.41c0.64-1.13,1.26-2.27,1.88-3.41c0.62-1.15,1.26-2.32,1.93-3.53c0.67-1.21,1.38-2.45,2.15-3.72
		c0.41,0,0.86,0.05,1.34,0.14c0.48,0.1,0.94,0.21,1.38,0.36c0.45,0.14,0.84,0.3,1.17,0.48c0.33,0.18,0.58,0.36,0.74,0.55
		c-0.99,2.1-1.91,4.15-2.77,6.16C190.07,34.51,189.31,36.56,188.64,38.66z"/>
</g>
</svg>
